<svg viewBox="0 0 343 284.926" xmlns="http://www.w3.org/2000/svg" xmlns:xlink="http://www.w3.org/1999/xlink" width="343.000000" height="284.926025" fill="none" clip-path="url(#clipPath_99)" customFrame="url(#clipPath_99)">
	<defs>
		<clipPath id="clipPath_99">
			<rect width="343.000000" height="284.925934" x="0.000000" y="0.000000" rx="30.000000" fill="rgb(255,255,255)" />
		</clipPath>
		<clipPath id="clipPath_100">
			<rect width="433.887451" height="389.002441" x="0.000000" y="0.000000" fill="rgb(255,255,255)" transform="matrix(0.984808,0.173648,-0.173648,0.984808,12.1978,-87.1111)" />
		</clipPath>
		<clipPath id="clipPath_101">
			<rect width="92.071609" height="92.071609" x="0.000000" y="0.000000" rx="20.000000" fill="rgb(255,255,255)" transform="matrix(0.984808,0.173648,-0.174411,0.984673,12.2681,-87.0986)" />
		</clipPath>
		<clipPath id="clipPath_102">
			<rect width="92.071609" height="92.071609" x="0.000000" y="0.000000" rx="20.000000" fill="rgb(255,255,255)" transform="matrix(0.984808,0.173648,-0.174411,0.984673,109.812,-69.8992)" />
		</clipPath>
		<clipPath id="clipPath_103">
			<rect width="92.071609" height="92.071609" x="0.000000" y="0.000000" rx="20.000000" fill="rgb(255,255,255)" transform="matrix(0.984808,0.173648,-0.174411,0.984673,207.355,-52.6997)" />
		</clipPath>
		<clipPath id="clipPath_104">
			<rect width="92.071609" height="92.071609" x="0.000000" y="0.000000" rx="20.000000" fill="rgb(255,255,255)" transform="matrix(0.984808,0.173648,-0.174411,0.984673,304.899,-35.5)" />
		</clipPath>
		<clipPath id="clipPath_105">
			<rect width="92.071609" height="92.071609" x="0.000000" y="0.000000" rx="20.000000" fill="rgb(255,255,255)" transform="matrix(0.984808,0.173648,-0.174411,0.984673,-4.91895,10.3745)" />
		</clipPath>
		<clipPath id="clipPath_106">
			<rect width="92.071609" height="92.071609" x="0.000000" y="0.000000" rx="20.000000" fill="rgb(255,255,255)" transform="matrix(0.984808,0.173648,-0.174411,0.984673,92.625,27.574)" />
		</clipPath>
		<clipPath id="clipPath_107">
			<rect width="92.071609" height="92.071609" x="0.000000" y="0.000000" rx="20.000000" fill="rgb(255,255,255)" transform="matrix(0.984808,0.173648,-0.174411,0.984673,190.168,44.7737)" />
		</clipPath>
		<clipPath id="clipPath_108">
			<rect width="92.071609" height="92.071609" x="0.000000" y="0.000000" rx="20.000000" fill="rgb(255,255,255)" transform="matrix(0.984808,0.173648,-0.174411,0.984673,287.711,61.9734)" />
		</clipPath>
		<clipPath id="clipPath_109">
			<rect width="92.071609" height="92.071609" x="0.000000" y="0.000000" rx="20.000000" fill="rgb(255,255,255)" transform="matrix(0.984808,0.173648,-0.174411,0.984673,-22.106,107.848)" />
		</clipPath>
		<clipPath id="clipPath_110">
			<rect width="92.071609" height="92.071609" x="0.000000" y="0.000000" rx="20.000000" fill="rgb(255,255,255)" transform="matrix(0.984808,0.173648,-0.174411,0.984673,75.4375,125.047)" />
		</clipPath>
		<clipPath id="clipPath_111">
			<rect width="92.071609" height="92.071609" x="0.000000" y="0.000000" rx="20.000000" fill="rgb(255,255,255)" transform="matrix(0.984808,0.173648,-0.174411,0.984673,172.981,142.247)" />
		</clipPath>
		<clipPath id="clipPath_112">
			<rect width="92.071609" height="92.071609" x="0.000000" y="0.000000" rx="20.000000" fill="rgb(255,255,255)" transform="matrix(0.984808,0.173648,-0.174411,0.984673,270.524,159.447)" />
		</clipPath>
		<clipPath id="clipPath_113">
			<rect width="92.071609" height="92.071609" x="0.000000" y="0.000000" rx="20.000000" fill="rgb(255,255,255)" transform="matrix(0.984808,0.173648,-0.174411,0.984673,-39.2935,205.321)" />
		</clipPath>
		<clipPath id="clipPath_114">
			<rect width="92.071609" height="92.071609" x="0.000000" y="0.000000" rx="20.000000" fill="rgb(255,255,255)" transform="matrix(0.984808,0.173648,-0.174411,0.984673,58.25,222.521)" />
		</clipPath>
		<clipPath id="clipPath_115">
			<rect width="92.071609" height="92.071609" x="0.000000" y="0.000000" rx="20.000000" fill="rgb(255,255,255)" transform="matrix(0.984808,0.173648,-0.174411,0.984673,155.794,239.72)" />
		</clipPath>
		<clipPath id="clipPath_116">
			<rect width="92.071609" height="92.071609" x="0.000000" y="0.000000" rx="20.000000" fill="rgb(255,255,255)" transform="matrix(0.984808,0.173648,-0.174411,0.984673,253.337,256.92)" />
		</clipPath>
	</defs>
	<rect id="Обложка карточки" width="343.000000" height="284.925934" x="0.000000" y="0.000000" rx="30.000000" fill="rgb(39,26,88)" />
	<g id="Frame 2043683117" customFrame="url(#clipPath_100)">
		<rect id="Frame 2043683117" width="433.887451" height="389.002441" x="0.000000" y="0.000000" transform="matrix(0.984808,0.173648,-0.173648,0.984808,12.1978,-87.1111)" />
		<g id="Frame 2043683080" customFrame="url(#clipPath_101)">
			<rect id="Frame 2043683080" width="92.071609" height="92.071609" x="0.000000" y="0.000000" rx="20.000000" fill="rgb(217.019,181.817,255)" transform="matrix(0.984808,0.173648,-0.174411,0.984673,12.2681,-87.0986)" />
			<rect id="Frame 2043683080" width="91.496162" height="91.496162" x="0.287724" y="0.287724" rx="19.712276" stroke="rgb(39,26,88)" stroke-width="0.5754475" transform="matrix(0.984808,0.173648,-0.174411,0.984673,12.2681,-87.0986)" />
		</g>
		<g id="Frame 2043683097" customFrame="url(#clipPath_102)">
			<rect id="Frame 2043683097" width="92.071609" height="92.071609" x="0.000000" y="0.000000" rx="20.000000" fill="rgb(31.3615,164.139,108.372)" transform="matrix(0.984808,0.173648,-0.174411,0.984673,109.812,-69.8992)" />
			<rect id="Frame 2043683097" width="91.496162" height="91.496162" x="0.287724" y="0.287724" rx="19.712276" stroke="rgb(39,26,88)" stroke-width="0.5754475" transform="matrix(0.984808,0.173648,-0.174411,0.984673,109.812,-69.8992)" />
		</g>
		<g id="Frame 2043683096" customFrame="url(#clipPath_103)">
			<rect id="Frame 2043683096" width="92.071609" height="92.071609" x="0.000000" y="0.000000" rx="20.000000" fill="rgb(86,94,239)" transform="matrix(0.984808,0.173648,-0.174411,0.984673,207.355,-52.6997)" />
			<rect id="Frame 2043683096" width="91.496162" height="91.496162" x="0.287724" y="0.287724" rx="19.712276" stroke="rgb(39,26,88)" stroke-width="0.5754475" transform="matrix(0.984808,0.173648,-0.174411,0.984673,207.355,-52.6997)" />
		</g>
		<g id="Frame 2043683099" customFrame="url(#clipPath_104)">
			<rect id="Frame 2043683099" width="92.071609" height="92.071609" x="0.000000" y="0.000000" rx="20.000000" fill="rgb(0,193,255)" transform="matrix(0.984808,0.173648,-0.174411,0.984673,304.899,-35.5)" />
			<rect id="Frame 2043683099" width="91.496162" height="91.496162" x="0.287724" y="0.287724" rx="19.712276" stroke="rgb(39,26,88)" stroke-width="0.5754475" transform="matrix(0.984808,0.173648,-0.174411,0.984673,304.899,-35.5)" />
		</g>
		<g id="Frame 2043683103" customFrame="url(#clipPath_105)">
			<rect id="Frame 2043683103" width="92.071609" height="92.071609" x="0.000000" y="0.000000" rx="20.000000" fill="rgb(242.101,79.8018,79.8018)" transform="matrix(0.984808,0.173648,-0.174411,0.984673,-4.91895,10.3745)" />
			<rect id="Frame 2043683103" width="91.496162" height="91.496162" x="0.287724" y="0.287724" rx="19.712276" stroke="rgb(39,26,88)" stroke-width="0.5754475" transform="matrix(0.984808,0.173648,-0.174411,0.984673,-4.91895,10.3745)" />
		</g>
		<g id="Frame 2043683102" customFrame="url(#clipPath_106)">
			<rect id="Frame 2043683102" width="92.071609" height="92.071609" x="0.000000" y="0.000000" rx="20.000000" fill="rgb(255,199,0)" transform="matrix(0.984808,0.173648,-0.174411,0.984673,92.625,27.574)" />
			<rect id="Frame 2043683102" width="91.496162" height="91.496162" x="0.287724" y="0.287724" rx="19.712276" stroke="rgb(39,26,88)" stroke-width="0.5754475" transform="matrix(0.984808,0.173648,-0.174411,0.984673,92.625,27.574)" />
		</g>
		<g id="Frame 2043683105" customFrame="url(#clipPath_107)">
			<rect id="Frame 2043683105" width="92.071609" height="92.071609" x="0.000000" y="0.000000" rx="20.000000" fill="rgb(153,209,0)" transform="matrix(0.984808,0.173648,-0.174411,0.984673,190.168,44.7737)" />
			<rect id="Frame 2043683105" width="91.496162" height="91.496162" x="0.287724" y="0.287724" rx="19.712276" stroke="rgb(39,26,88)" stroke-width="0.5754475" transform="matrix(0.984808,0.173648,-0.174411,0.984673,190.168,44.7737)" />
		</g>
		<g id="Frame 2043683107" customFrame="url(#clipPath_108)">
			<rect id="Frame 2043683107" width="92.071609" height="92.071609" x="0.000000" y="0.000000" rx="20.000000" fill="rgb(173,97,255)" transform="matrix(0.984808,0.173648,-0.174411,0.984673,287.711,61.9734)" />
			<rect id="Frame 2043683107" width="91.496162" height="91.496162" x="0.287724" y="0.287724" rx="19.712276" stroke="rgb(39,26,88)" stroke-width="0.5754475" transform="matrix(0.984808,0.173648,-0.174411,0.984673,287.711,61.9734)" />
		</g>
		<g id="Frame 2043683108" customFrame="url(#clipPath_109)">
			<rect id="Frame 2043683108" width="92.071609" height="92.071609" x="0.000000" y="0.000000" rx="20.000000" fill="rgb(86,94,239)" transform="matrix(0.984808,0.173648,-0.174411,0.984673,-22.106,107.848)" />
			<rect id="Frame 2043683108" width="91.496162" height="91.496162" x="0.287724" y="0.287724" rx="19.712276" stroke="rgb(39,26,88)" stroke-width="0.5754475" transform="matrix(0.984808,0.173648,-0.174411,0.984673,-22.106,107.848)" />
		</g>
		<g id="Frame 2043683110" customFrame="url(#clipPath_110)">
			<rect id="Frame 2043683110" width="92.071609" height="92.071609" x="0.000000" y="0.000000" rx="20.000000" fill="rgb(0,193,255)" transform="matrix(0.984808,0.173648,-0.174411,0.984673,75.4375,125.047)" />
			<rect id="Frame 2043683110" width="91.496162" height="91.496162" x="0.287724" y="0.287724" rx="19.712276" stroke="rgb(39,26,88)" stroke-width="0.5754475" transform="matrix(0.984808,0.173648,-0.174411,0.984673,75.4375,125.047)" />
		</g>
		<g id="Frame 2043683112" customFrame="url(#clipPath_111)">
			<rect id="Frame 2043683112" width="92.071609" height="92.071609" x="0.000000" y="0.000000" rx="20.000000" fill="rgb(255,109,0)" transform="matrix(0.984808,0.173648,-0.174411,0.984673,172.981,142.247)" />
			<rect id="Frame 2043683112" width="91.496162" height="91.496162" x="0.287724" y="0.287724" rx="19.712276" stroke="rgb(39,26,88)" stroke-width="0.5754475" transform="matrix(0.984808,0.173648,-0.174411,0.984673,172.981,142.247)" />
		</g>
		<g id="Frame 2043683111" customFrame="url(#clipPath_112)">
			<rect id="Frame 2043683111" width="92.071609" height="92.071609" x="0.000000" y="0.000000" rx="20.000000" fill="rgb(31.3615,164.139,108.372)" transform="matrix(0.984808,0.173648,-0.174411,0.984673,270.524,159.447)" />
			<rect id="Frame 2043683111" width="91.496162" height="91.496162" x="0.287724" y="0.287724" rx="19.712276" stroke="rgb(39,26,88)" stroke-width="0.5754475" transform="matrix(0.984808,0.173648,-0.174411,0.984673,270.524,159.447)" />
		</g>
		<g id="Frame 2043683115" customFrame="url(#clipPath_113)">
			<rect id="Frame 2043683115" width="92.071609" height="92.071609" x="0.000000" y="0.000000" rx="20.000000" fill="rgb(173,97,255)" transform="matrix(0.984808,0.173648,-0.174411,0.984673,-39.2935,205.321)" />
			<rect id="Frame 2043683115" width="91.496162" height="91.496162" x="0.287724" y="0.287724" rx="19.712276" stroke="rgb(39,26,88)" stroke-width="0.5754475" transform="matrix(0.984808,0.173648,-0.174411,0.984673,-39.2935,205.321)" />
		</g>
		<g id="Frame 2043683116" customFrame="url(#clipPath_114)">
			<rect id="Frame 2043683116" width="92.071609" height="92.071609" x="0.000000" y="0.000000" rx="20.000000" fill="rgb(153,209,0)" transform="matrix(0.984808,0.173648,-0.174411,0.984673,58.25,222.521)" />
			<rect id="Frame 2043683116" width="91.496162" height="91.496162" x="0.287724" y="0.287724" rx="19.712276" stroke="rgb(39,26,88)" stroke-width="0.5754475" transform="matrix(0.984808,0.173648,-0.174411,0.984673,58.25,222.521)" />
		</g>
		<g id="Frame 2043683117" customFrame="url(#clipPath_115)">
			<rect id="Frame 2043683117" width="92.071609" height="92.071609" x="0.000000" y="0.000000" rx="20.000000" fill="rgb(255,199,0)" transform="matrix(0.984808,0.173648,-0.174411,0.984673,155.794,239.72)" />
			<rect id="Frame 2043683117" width="91.496162" height="91.496162" x="0.287724" y="0.287724" rx="19.712276" stroke="rgb(39,26,88)" stroke-width="0.5754475" transform="matrix(0.984808,0.173648,-0.174411,0.984673,155.794,239.72)" />
		</g>
		<g id="Frame 2043683118" customFrame="url(#clipPath_116)">
			<rect id="Frame 2043683118" width="92.071609" height="92.071609" x="0.000000" y="0.000000" rx="20.000000" fill="rgb(217.019,181.817,255)" transform="matrix(0.984808,0.173648,-0.174411,0.984673,253.337,256.92)" />
			<rect id="Frame 2043683118" width="91.496162" height="91.496162" x="0.287724" y="0.287724" rx="19.712276" stroke="rgb(39,26,88)" stroke-width="0.5754475" transform="matrix(0.984808,0.173648,-0.174411,0.984673,253.337,256.92)" />
		</g>
	</g>
</svg>
