<svg viewBox="0 0 247.68 247.412" xmlns="http://www.w3.org/2000/svg" xmlns:xlink="http://www.w3.org/1999/xlink" width="247.680176" height="247.411804" fill="none" customFrame="#000000">
	<defs>
		<g id="pixso_custom_effect_0">
			<effect x="0.000000" y="17.170609" visibility="visible" fill="rgb(0,0,0)" fill-opacity="0.300000012" effectType="dropShadow" stdDeviation="57.521553" radius="-10.3023663" />
		</g>
		<filter id="filter_0" width="247.680176" height="247.411804" x="0.000000" y="0.000000" filterUnits="userSpaceOnUse" customEffect="url(#pixso_custom_effect_0)" color-interpolation-filters="sRGB">
			<feFlood flood-opacity="0" result="BackgroundImageFix" />
			<feColorMatrix result="hardAlpha" in="SourceAlpha" type="matrix" values="0 0 0 0 0 0 0 0 0 0 0 0 0 0 0 0 0 0 127 0 " />
			<feOffset dx="6657.122559" dy="983.300964" in="hardAlpha" />
			<feMorphology radius="10.3023663" operator="erode" />
			<feOffset dx="-6657.122559" dy="-966.130371" />
			<feGaussianBlur stdDeviation="19.173851" />
			<feComposite k2="-1" k3="1" in2="hardAlpha" operator="out" />
			<feColorMatrix type="matrix" values="0 0 0 0 0 0 0 0 0 0 0 0 0 0 0 0 0 0 0.3 0 " />
			<feBlend result="effect_dropShadow_1" in2="BackgroundImageFix" mode="normal" />
			<feBlend result="shape" in="SourceGraphic" in2="effect_dropShadow_1" mode="normal" />
		</filter>
		<clipPath id="clipPath_26">
			<rect width="137.709549" height="137.499207" x="0.000000" y="0.000000" rx="20.000000" fill="rgb(255,255,255)" transform="matrix(0.984808,0.173648,-0.174411,0.984673,68.022,26.8829)" />
		</clipPath>
	</defs>
	<g id="Group 1597880555">
		<g id="Group 1597880554">
			<g id="Frame 2043683065" filter="url(#filter_0)" customFrame="url(#clipPath_26)">
				<rect id="Frame 2043683065" width="137.709549" height="137.499207" x="0.000000" y="0.000000" rx="20.000000" fill="rgb(232.532,211.707,255)" transform="matrix(0.984808,0.173648,-0.174411,0.984673,68.022,26.8829)" />
				<rect id="Frame 2043683065" width="137.209549" height="136.999207" x="0.250000" y="0.250000" rx="19.750000" stroke="rgb(32,32,39)" stroke-width="0.5" transform="matrix(0.984808,0.173648,-0.174411,0.984673,68.022,26.8829)" />
				<path id="?" d="M15.6404 48.1235C15.6404 45.6683 16.1806 43.655 17.2609 42.0836C18.3412 40.4632 19.9126 38.6954 21.975 36.7803C23.399 35.4545 24.4548 34.3496 25.1422 33.4657C25.8297 32.5327 26.1734 31.5506 26.1734 30.5194C26.1734 29.0954 25.5596 27.966 24.332 27.1312C23.1535 26.2473 21.6067 25.8054 19.6916 25.8054C17.7274 25.8054 15.9351 26.2719 14.3146 27.2049C12.7433 28.1378 11.4665 29.4391 10.4844 31.1087L-0.490502 25.2161C1.5228 21.7788 4.37088 19.1026 8.05374 17.1875C11.7366 15.2724 16.1806 14.3148 21.3857 14.3148C27.2292 14.3148 31.9187 15.5425 35.4543 17.9977C39.0389 20.4038 40.8312 23.7921 40.8312 28.1624C40.8312 30.1757 40.4875 31.968 39.8 33.5394C39.1126 35.0616 38.2778 36.3629 37.2957 37.4432C36.3627 38.4744 35.1351 39.6529 33.6128 40.9788C31.9433 42.4028 30.7156 43.6304 29.93 44.6616C29.1443 45.6437 28.7514 46.7977 28.7514 48.1235L15.6404 48.1235ZM22.1959 67.5691C19.7898 67.5691 17.8011 66.8325 16.2297 65.3593C14.6583 63.8371 13.8727 61.9957 13.8727 59.835C13.8727 57.6253 14.6338 55.8084 16.156 54.3844C17.7274 52.9604 19.7407 52.2483 22.1959 52.2483C24.6512 52.2483 26.6645 52.9604 28.2358 54.3844C29.8072 55.8084 30.5929 57.6253 30.5929 59.835C30.5929 61.9957 29.8072 63.8371 28.2358 65.3593C26.6645 66.8325 24.6512 67.5691 22.1959 67.5691Z" fill="rgb(255,255,255)" fill-rule="nonzero" transform="matrix(0.984808,0.173648,-0.174411,0.984673,109.238,62.8358)" />
				<path id="?" d="M16.7867 41.7576Q15.065 44.2619 15.065 48.1235L15.065 48.699L29.3269 48.699L29.3269 48.1235Q29.3269 46.9917 29.7491 46.049Q29.9935 45.5034 30.3793 45.0211L30.3836 45.0157L30.3877 45.0104Q31.5289 43.5126 33.9908 41.4127Q36.3 39.4014 37.7215 37.8303Q39.2558 36.1426 40.3272 33.77Q41.4067 31.3027 41.4067 28.1624Q41.4067 24.7419 39.9956 22.0744Q39.9158 21.9234 39.8315 21.775Q38.4253 19.2989 35.7825 17.525Q30.3311 13.7394 21.3857 13.7394Q13.4374 13.7394 7.78826 16.6769Q4.21556 18.5347 1.66178 21.3251Q0.161553 22.9643 -0.987046 24.9253L-1.28888 25.4406L10.6998 31.8775L10.9804 31.4005Q12.037 29.6043 13.5647 28.4116Q14.0586 28.026 14.6017 27.7036Q15.3069 27.2975 16.0587 27.0162Q17.7563 26.3808 19.6916 26.3808Q22.3724 26.3808 23.9867 27.5916L23.9974 27.5996L24.0084 27.6071Q24.8137 28.1547 25.2075 28.8791Q25.2205 28.9032 25.2332 28.9274Q25.598 29.6285 25.598 30.5194Q25.598 30.757 25.5698 30.9913Q25.4375 32.0922 24.6834 33.1184Q23.6803 34.4064 21.5834 36.3586Q18.4401 39.2774 16.7867 41.7576ZM25.1422 33.4657C24.4548 34.3496 23.399 35.4545 21.975 36.7803Q18.8814 39.6529 17.2609 42.0836Q15.7689 44.2539 15.6506 47.5481Q15.6404 47.8317 15.6404 48.1235L28.7514 48.1235C28.7514 46.7977 29.1443 45.6437 29.93 44.6616C30.7156 43.6304 31.9433 42.4028 33.6128 40.9788C35.1351 39.6529 36.3627 38.4744 37.2957 37.4432C38.2778 36.3629 39.1126 35.0616 39.8 33.5394C40.4875 31.968 40.8312 30.1757 40.8312 28.1624C40.8312 23.7921 39.0389 20.4038 35.4543 17.9977C31.9187 15.5425 27.2292 14.3148 21.3857 14.3148C16.1806 14.3148 11.7366 15.2724 8.05374 17.1875Q4.55442 19.0071 2.05996 21.743Q0.80687 23.1173 -0.192637 24.7229Q-0.344495 24.9668 -0.490502 25.2161L0.0168487 25.4885L10.4844 31.1087C11.4665 29.4391 12.7433 28.1378 14.3146 27.2049C15.9351 26.2719 17.7274 25.8054 19.6916 25.8054Q22.5642 25.8054 24.332 27.1312C25.5596 27.966 26.1734 29.0954 26.1734 30.5194C26.1734 31.5506 25.8297 32.5327 25.1422 33.4657ZM17.5355 67.0232Q19.5543 68.1445 22.1959 68.1445Q24.9988 68.1445 27.0924 66.9259Q27.9197 66.4444 28.6362 65.7726Q29.9507 64.4993 30.5828 62.9479Q31.1683 61.5107 31.1683 59.835Q31.1683 57.8432 30.3756 56.2445Q29.7477 54.9779 28.6223 53.958Q28.0096 53.4028 27.3152 52.9824Q25.1519 51.6729 22.1959 51.6729Q19.2582 51.6729 17.0996 52.9698Q16.3891 53.3967 15.7629 53.9642Q14.7399 54.9212 14.1413 56.0948Q13.2972 57.7496 13.2972 59.835Q13.2972 61.4955 13.8737 62.9231Q14.507 64.4916 15.8361 65.7791Q16.6221 66.5159 17.5355 67.0232ZM16.2297 65.3593C17.8011 66.8325 19.7898 67.5691 22.1959 67.5691C24.6512 67.5691 26.6645 66.8325 28.2358 65.3593Q29.4628 64.1708 30.051 62.7227Q30.5929 61.3889 30.5929 59.835C30.5929 57.6253 29.8072 55.8084 28.2358 54.3844Q27.6997 53.8985 27.0949 53.5231Q25.0411 52.2483 22.1959 52.2483Q19.3508 52.2483 17.2969 53.5232Q16.6922 53.8985 16.156 54.3844C14.6338 55.8084 13.8727 57.6253 13.8727 59.835Q13.8727 61.3889 14.4145 62.7227Q15.0028 64.1708 16.2297 65.3593Z" fill="rgb(32,32,39)" fill-rule="evenodd" transform="matrix(0.984808,0.173648,-0.174411,0.984673,109.238,62.8358)" />
			</g>
		</g>
	</g>
</svg>
