<svg viewBox="0 0 223.418 257.184" xmlns="http://www.w3.org/2000/svg" xmlns:xlink="http://www.w3.org/1999/xlink" width="223.418457" height="257.184326" fill="none" customFrame="#000000">
	<defs>
		<g id="pixso_custom_effect_3">
			<effect x="0.000000" y="13.852386" visibility="visible" fill="rgb(0,0,0)" fill-opacity="0.300000012" effectType="dropShadow" stdDeviation="46.4054985" radius="-8.31143093" />
		</g>
		<filter id="filter_3" width="223.418457" height="257.184326" x="0.000000" y="0.000000" filterUnits="userSpaceOnUse" customEffect="url(#pixso_custom_effect_3)" color-interpolation-filters="sRGB">
			<feFlood flood-opacity="0" result="BackgroundImageFix" />
			<feColorMatrix result="hardAlpha" in="SourceAlpha" type="matrix" values="0 0 0 0 0 0 0 0 0 0 0 0 0 0 0 0 0 0 127 0 " />
			<feOffset dx="6669.333008" dy="3338.476807" in="hardAlpha" />
			<feMorphology radius="8.31143093" operator="erode" />
			<feOffset dx="-6669.333008" dy="-3324.624512" />
			<feGaussianBlur stdDeviation="15.4684992" />
			<feComposite k2="-1" k3="1" in2="hardAlpha" operator="out" />
			<feColorMatrix type="matrix" values="0 0 0 0 0 0 0 0 0 0 0 0 0 0 0 0 0 0 0.3 0 " />
			<feBlend result="effect_dropShadow_1" in2="BackgroundImageFix" mode="normal" />
			<feBlend result="shape" in="SourceGraphic" in2="effect_dropShadow_1" mode="normal" />
		</filter>
		<clipPath id="clipPath_98">
			<rect width="126.342880" height="168.123871" x="-0.500000" y="-0.500000" rx="20.500000" fill="rgb(255,255,255)" transform="matrix(0.984808,0.173648,-0.174411,0.984673,64.564,21.5759)" />
		</clipPath>
	</defs>
	<g id="Group 1597880560">
		<g id="Frame 2043683065" filter="url(#filter_3)" customFrame="url(#clipPath_98)">
			<rect id="Frame 2043683065" width="125.342880" height="167.123871" x="0.000000" y="0.000000" rx="20.000000" fill="rgb(225,255,143)" transform="matrix(0.984808,0.173648,-0.174411,0.984673,64.564,21.5759)" />
			<rect id="Frame 2043683065" width="125.842880" height="167.623871" x="-0.250000" y="-0.250000" rx="20.250000" stroke="rgb(32,32,39)" stroke-width="0.5" transform="matrix(0.984808,0.173648,-0.174411,0.984673,64.564,21.5759)" />
			<rect id="Frame 2043683065" width="125.842880" height="167.623871" x="-0.250000" y="-0.250000" rx="20.250000" stroke="rgb(0,0,0)" stroke-opacity="0.200000003" stroke-width="0.5" transform="matrix(0.984808,0.173648,-0.174411,0.984673,64.564,21.5759)" />
		</g>
		<path id="?" d="M15.6404 48.1235C15.6404 45.6683 16.1806 43.655 17.2609 42.0836C18.3412 40.4632 19.9126 38.6954 21.975 36.7803C23.399 35.4545 24.4548 34.3496 25.1422 33.4657C25.8297 32.5327 26.1734 31.5506 26.1734 30.5194C26.1734 29.0954 25.5596 27.966 24.332 27.1312C23.1535 26.2473 21.6067 25.8054 19.6916 25.8054C17.7274 25.8054 15.9351 26.2719 14.3146 27.2049C12.7433 28.1378 11.4665 29.4391 10.4844 31.1087L-0.490502 25.2161C1.5228 21.7788 4.37088 19.1026 8.05374 17.1875C11.7366 15.2724 16.1806 14.3148 21.3857 14.3148C27.2292 14.3148 31.9187 15.5425 35.4543 17.9977C39.0389 20.4038 40.8312 23.7921 40.8312 28.1624C40.8312 30.1757 40.4875 31.968 39.8 33.5394C39.1126 35.0616 38.2778 36.3629 37.2957 37.4432C36.3627 38.4744 35.1351 39.6529 33.6128 40.9788C31.9433 42.4028 30.7156 43.6304 29.93 44.6616C29.1443 45.6437 28.7514 46.7977 28.7514 48.1235L15.6404 48.1235ZM22.1959 67.5691C19.7898 67.5691 17.8011 66.8325 16.2297 65.3593C14.6583 63.8371 13.8727 61.9957 13.8727 59.835C13.8727 57.6253 14.6338 55.8084 16.156 54.3844C17.7274 52.9604 19.7407 52.2483 22.1959 52.2483C24.6512 52.2483 26.6645 52.9604 28.2358 54.3844C29.8072 55.8084 30.5929 57.6253 30.5929 59.835C30.5929 61.9957 29.8072 63.8371 28.2358 65.3593C26.6645 66.8325 24.6512 67.5691 22.1959 67.5691Z" fill="rgb(255,255,255)" fill-rule="nonzero" transform="matrix(0.984808,0.173648,-0.174411,0.984673,96.9668,70.9458)" />
		<path id="?" d="M16.8489 41.8004Q15.1404 44.2854 15.1404 48.1235L15.1404 48.6235L29.2514 48.6235L29.2514 48.1235Q29.2514 46.9785 29.6776 46.0238Q29.9264 45.4665 30.3204 44.974L30.3241 44.9694L30.3277 44.9647Q31.4737 43.4605 33.9412 41.3558Q36.2471 39.3475 37.6657 37.7796Q39.192 36.1006 40.2581 33.7398Q41.3312 31.2869 41.3312 28.1624Q41.3312 24.7606 39.929 22.1097Q39.8547 21.9694 39.7767 21.8313Q38.3785 19.3584 35.7395 17.587Q30.3075 13.8148 21.3857 13.8148Q13.4558 13.8148 7.82307 16.7439Q4.25988 18.5967 1.71383 21.38Q0.221135 23.0118 -0.921944 24.9634L-1.1842 25.4112L10.6716 31.7767L10.9154 31.3622Q11.9748 29.5613 13.5055 28.3622Q14.0093 27.9676 14.5641 27.6382Q15.2779 27.2272 16.039 26.943Q17.7462 26.3054 19.6916 26.3054Q22.3976 26.3054 24.032 27.5312L24.0413 27.5382L24.0508 27.5447Q24.8713 28.1026 25.2738 28.8431Q25.2907 28.8743 25.307 28.9059Q25.6734 29.6185 25.6734 30.5194Q25.6734 30.7684 25.6432 31.0135Q25.5057 32.1273 24.7435 33.164Q23.7367 34.4569 21.6347 36.4139Q18.498 39.3266 16.8489 41.8004ZM25.1422 33.4657C24.4548 34.3496 23.399 35.4545 21.975 36.7803Q18.8814 39.6529 17.2609 42.0836Q15.7518 44.2787 15.6481 47.6235Q15.6404 47.8704 15.6404 48.1235L28.7514 48.1235C28.7514 46.7977 29.1443 45.6437 29.93 44.6616C30.7156 43.6304 31.9433 42.4028 33.6128 40.9788C35.1351 39.6529 36.3627 38.4744 37.2957 37.4432C38.2778 36.3629 39.1126 35.0616 39.8 33.5394C40.4875 31.968 40.8312 30.1757 40.8312 28.1624C40.8312 23.7921 39.0389 20.4038 35.4543 17.9977C31.9187 15.5425 27.2292 14.3148 21.3857 14.3148C16.1806 14.3148 11.7366 15.2724 8.05374 17.1875Q4.55442 19.0071 2.05996 21.743Q0.781836 23.1448 -0.232474 24.7871Q-0.3637 24.9996 -0.490502 25.2161L-0.0496718 25.4528L10.4844 31.1087C11.4665 29.4391 12.7433 28.1378 14.3146 27.2049C15.9351 26.2719 17.7274 25.8054 19.6916 25.8054Q22.5642 25.8054 24.332 27.1312C25.5596 27.966 26.1734 29.0954 26.1734 30.5194C26.1734 31.5506 25.8297 32.5327 25.1422 33.4657ZM17.5638 66.9525Q19.569 68.069 22.1959 68.0691Q24.9864 68.0691 27.0668 66.8536Q27.8794 66.3788 28.5837 65.7185Q29.8868 64.4561 30.5131 62.9182Q31.0929 61.4947 31.0929 59.835Q31.0929 57.86 30.3064 56.2752Q29.6847 55.0226 28.5716 54.0139Q27.969 53.4678 27.2864 53.0533Q25.1374 51.7483 22.1959 51.7483Q19.2704 51.7483 17.1254 53.0423Q16.4288 53.4625 15.8145 54.0193Q14.8033 54.9652 14.2108 56.1251Q13.3727 57.766 13.3727 59.835Q13.3727 61.4814 13.9445 62.8967Q14.572 64.4495 15.8877 65.7241Q16.663 66.4509 17.5638 66.9525ZM16.2297 65.3593C17.8011 66.8325 19.7898 67.5691 22.1959 67.5691C24.6512 67.5691 26.6645 66.8325 28.2358 65.3593Q29.4628 64.1708 30.051 62.7227Q30.5929 61.3889 30.5929 59.835C30.5929 57.6253 29.8072 55.8084 28.2358 54.3844Q27.6997 53.8985 27.0949 53.5231Q25.0411 52.2483 22.1959 52.2483Q19.3508 52.2483 17.2969 53.5232Q16.6922 53.8985 16.156 54.3844C14.6338 55.8084 13.8727 57.6253 13.8727 59.835Q13.8727 61.3889 14.4145 62.7227Q15.0028 64.1708 16.2297 65.3593Z" fill="rgb(32,32,39)" fill-rule="evenodd" transform="matrix(0.984808,0.173648,-0.174411,0.984673,96.9668,70.9458)" />
	</g>
</svg>
