<svg viewBox="0 0 343 284.926" xmlns="http://www.w3.org/2000/svg" xmlns:xlink="http://www.w3.org/1999/xlink" width="343.000000" height="284.926025" fill="none" clip-path="url(#clipPath_77)" customFrame="url(#clipPath_77)">
	<defs>
		<clipPath id="clipPath_77">
			<rect width="343.000000" height="284.925934" x="0.000000" y="0.000000" rx="30.000000" fill="rgb(255,255,255)" />
		</clipPath>
		<clipPath id="clipPath_78">
			<rect width="505.799042" height="397.555115" x="0.000000" y="0.000000" rx="17.263424" fill="rgb(255,255,255)" transform="matrix(0.984808,0.173648,-0.173648,0.984808,-43.5552,-97.0925)" />
		</clipPath>
		<clipPath id="clipPath_79">
			<rect width="505.799042" height="128.804428" x="0.000000" y="0.000000" fill="rgb(255,255,255)" transform="matrix(0.984808,0.173648,-0.173648,0.984808,-43.5552,-97.0925)" />
		</clipPath>
		<clipPath id="clipPath_80">
			<rect width="96.603348" height="128.804474" x="0.000000" y="0.000000" rx="20.000000" fill="rgb(255,255,255)" transform="matrix(0.984808,0.173648,-0.174411,0.984673,-43.457,-97.0752)" />
		</clipPath>
		<clipPath id="clipPath_81">
			<rect width="96.603348" height="128.804474" x="0.000000" y="0.000000" rx="20.000000" fill="rgb(255,255,255)" transform="matrix(0.984808,0.173648,-0.174411,0.984673,57.2637,-79.3157)" />
		</clipPath>
		<clipPath id="clipPath_82">
			<rect width="96.603348" height="128.804474" x="0.000000" y="0.000000" rx="20.000000" fill="rgb(255,255,255)" transform="matrix(0.984808,0.173648,-0.174411,0.984673,157.983,-61.5559)" />
		</clipPath>
		<clipPath id="clipPath_83">
			<rect width="96.603348" height="128.804474" x="0.000000" y="0.000000" rx="20.000000" fill="rgb(255,255,255)" transform="matrix(0.984808,0.173648,-0.174411,0.984673,258.704,-43.7961)" />
		</clipPath>
		<clipPath id="clipPath_84">
			<rect width="96.603348" height="128.804474" x="0.000000" y="0.000000" rx="20.000000" fill="rgb(255,255,255)" transform="matrix(0.984808,0.173648,-0.174411,0.984673,359.424,-26.0366)" />
		</clipPath>
		<clipPath id="clipPath_85">
			<rect width="505.799042" height="128.804428" x="0.000000" y="0.000000" fill="rgb(255,255,255)" transform="matrix(0.984808,0.173648,-0.173648,0.984808,-66.8892,35.2412)" />
		</clipPath>
		<clipPath id="clipPath_86">
			<rect width="96.603348" height="128.804474" x="0.000000" y="0.000000" rx="20.000000" fill="rgb(255,255,255)" transform="matrix(0.984808,0.173648,-0.174411,0.984673,-66.791,35.2585)" />
		</clipPath>
		<clipPath id="clipPath_87">
			<rect width="96.603348" height="128.804474" x="0.000000" y="0.000000" rx="20.000000" fill="rgb(255,255,255)" transform="matrix(0.984808,0.173648,-0.174411,0.984673,33.9297,53.0183)" />
		</clipPath>
		<clipPath id="clipPath_88">
			<rect width="96.603348" height="128.804474" x="0.000000" y="0.000000" rx="20.000000" fill="rgb(255,255,255)" transform="matrix(0.984808,0.173648,-0.174411,0.984673,134.65,70.7781)" />
		</clipPath>
		<clipPath id="clipPath_89">
			<rect width="96.603348" height="128.804474" x="0.000000" y="0.000000" rx="20.000000" fill="rgb(255,255,255)" transform="matrix(0.984808,0.173648,-0.174411,0.984673,235.37,88.5376)" />
		</clipPath>
		<clipPath id="clipPath_90">
			<rect width="96.603348" height="128.804474" x="0.000000" y="0.000000" rx="20.000000" fill="rgb(255,255,255)" transform="matrix(0.984808,0.173648,-0.174411,0.984673,336.09,106.297)" />
		</clipPath>
		<clipPath id="clipPath_91">
			<rect width="505.799042" height="128.804428" x="0.000000" y="0.000000" fill="rgb(255,255,255)" transform="matrix(0.984808,0.173648,-0.173648,0.984808,-90.2231,167.575)" />
		</clipPath>
		<clipPath id="clipPath_92">
			<rect width="96.603348" height="128.804474" x="0.000000" y="0.000000" rx="20.000000" fill="rgb(255,255,255)" transform="matrix(0.984808,0.173648,-0.174411,0.984673,-90.125,167.593)" />
		</clipPath>
		<clipPath id="clipPath_93">
			<rect width="96.603348" height="128.804474" x="0.000000" y="0.000000" rx="20.000000" fill="rgb(255,255,255)" transform="matrix(0.984808,0.173648,-0.174411,0.984673,10.5957,185.352)" />
		</clipPath>
		<clipPath id="clipPath_94">
			<rect width="96.603348" height="128.804474" x="0.000000" y="0.000000" rx="20.000000" fill="rgb(255,255,255)" transform="matrix(0.984808,0.173648,-0.174411,0.984673,111.315,203.112)" />
		</clipPath>
		<clipPath id="clipPath_95">
			<rect width="96.603348" height="128.804474" x="0.000000" y="0.000000" rx="20.000000" fill="rgb(255,255,255)" transform="matrix(0.984808,0.173648,-0.174411,0.984673,212.036,220.872)" />
		</clipPath>
		<clipPath id="clipPath_96">
			<rect width="96.603348" height="128.804474" x="0.000000" y="0.000000" rx="20.000000" fill="rgb(255,255,255)" transform="matrix(0.984808,0.173648,-0.174411,0.984673,312.756,238.631)" />
		</clipPath>
		<g id="pixso_custom_effect_2">
			<effect x="0.000000" y="13.852386" visibility="visible" fill="rgb(0,0,0)" fill-opacity="0.300000012" effectType="dropShadow" stdDeviation="46.4054985" radius="-8.31143093" />
		</g>
		<filter id="filter_2" width="223.418457" height="257.184326" x="59.333008" y="27.766846" filterUnits="userSpaceOnUse" customEffect="url(#pixso_custom_effect_2)" color-interpolation-filters="sRGB">
			<feFlood flood-opacity="0" result="BackgroundImageFix" />
			<feColorMatrix result="hardAlpha" in="SourceAlpha" type="matrix" values="0 0 0 0 0 0 0 0 0 0 0 0 0 0 0 0 0 0 127 0 " />
			<feOffset dx="6610.000000" dy="3310.709961" in="hardAlpha" />
			<feMorphology radius="8.31143093" operator="erode" />
			<feOffset dx="-6610.000000" dy="-3296.857666" />
			<feGaussianBlur stdDeviation="15.4684992" />
			<feComposite k2="-1" k3="1" in2="hardAlpha" operator="out" />
			<feColorMatrix type="matrix" values="0 0 0 0 0 0 0 0 0 0 0 0 0 0 0 0 0 0 0.3 0 " />
			<feBlend result="effect_dropShadow_1" in2="BackgroundImageFix" mode="normal" />
			<feBlend result="shape" in="SourceGraphic" in2="effect_dropShadow_1" mode="normal" />
		</filter>
		<clipPath id="clipPath_97">
			<rect width="126.342880" height="168.123871" x="-0.500000" y="-0.500000" rx="20.500000" fill="rgb(255,255,255)" transform="matrix(0.984808,0.173648,-0.174411,0.984673,123.897,49.3428)" />
		</clipPath>
	</defs>
	<rect id="Обложка карточки" width="343.000000" height="284.925934" x="0.000000" y="0.000000" rx="30.000000" fill="rgb(153,209,0)" />
	<g id="Group 1597880559">
		<g id="Frame 2043683114" customFrame="url(#clipPath_78)">
			<rect id="Frame 2043683114" width="505.799042" height="397.555115" x="0.000000" y="0.000000" rx="17.263424" transform="matrix(0.984808,0.173648,-0.173648,0.984808,-43.5552,-97.0925)" />
			<g id="Frame 2043683111" customFrame="url(#clipPath_79)">
				<rect id="Frame 2043683111" width="505.799042" height="128.804428" x="0.000000" y="0.000000" transform="matrix(0.984808,0.173648,-0.173648,0.984808,-43.5552,-97.0925)" />
				<g id="Frame 2043683103" customFrame="url(#clipPath_80)">
					<rect id="Frame 2043683103" width="96.603348" height="128.804474" x="0.000000" y="0.000000" rx="20.000000" fill="rgb(188,236,48)" transform="matrix(0.984808,0.173648,-0.174411,0.984673,-43.457,-97.0752)" />
					<rect id="Frame 2043683103" width="96.103348" height="128.304474" x="0.250000" y="0.250000" rx="19.750000" stroke="rgb(32,32,39)" stroke-width="0.5" transform="matrix(0.984808,0.173648,-0.174411,0.984673,-43.457,-97.0752)" />
					<path id="?" d="M9.65207 29.1127C9.65207 27.6271 9.9789 26.409 10.6326 25.4582C11.2862 24.4777 12.237 23.4081 13.4849 22.2494C14.3465 21.4471 14.9853 20.7786 15.4012 20.2438C15.8172 19.6793 16.0252 19.0851 16.0252 18.4611C16.0252 17.5995 15.6538 16.9161 14.911 16.411C14.1979 15.8762 13.262 15.6088 12.1033 15.6088C10.9148 15.6088 9.83034 15.8911 8.84986 16.4556C7.89909 17.0201 7.12659 17.8075 6.53236 18.8177L-0.108156 15.2523C1.11002 13.1725 2.83328 11.5532 5.06164 10.3945C7.29001 9.23572 9.9789 8.65634 13.1283 8.65634C16.664 8.65634 19.5014 9.39913 21.6407 10.8847C23.8096 12.3406 24.8941 14.3907 24.8941 17.035C24.8941 18.2532 24.6861 19.3376 24.2701 20.2884C23.8542 21.2094 23.3491 21.9968 22.7548 22.6505C22.1903 23.2744 21.4475 23.9875 20.5265 24.7897C19.5163 25.6513 18.7735 26.3941 18.2981 27.018C17.8227 27.6123 17.585 28.3105 17.585 29.1127L9.65207 29.1127ZM13.6186 40.8785C12.1627 40.8785 10.9594 40.4328 10.0086 39.5414C9.05784 38.6204 8.58246 37.5062 8.58246 36.1989C8.58246 34.8619 9.04298 33.7626 9.96404 32.9009C10.9148 32.0393 12.133 31.6085 13.6186 31.6085C15.1041 31.6085 16.3223 32.0393 17.2731 32.9009C18.2238 33.7626 18.6992 34.8619 18.6992 36.1989C18.6992 37.5062 18.2238 38.6204 17.2731 39.5414C16.3223 40.4328 15.1041 40.8785 13.6186 40.8785Z" fill="rgb(255,255,255)" fill-rule="nonzero" transform="matrix(0.984808,0.173648,-0.174411,0.984673,-16.1431,-51.7415)" />
					<path id="?" d="M10.25 25.1952Q9.18783 26.7402 9.18783 29.1127L9.18783 29.577L18.0493 29.577L18.0493 29.1127Q18.0493 28.4482 18.2987 27.8963Q18.4397 27.5842 18.6606 27.3081L18.664 27.3038L18.6674 27.2994Q19.3503 26.403 20.8314 25.1398Q22.2338 23.9183 23.0984 22.9627Q24.0391 21.9279 24.6954 20.4745Q25.3583 18.9593 25.3583 17.035Q25.3583 14.9365 24.4911 13.2971Q24.4339 13.1891 24.3731 13.0832Q23.51 11.5804 21.9055 10.5034Q18.5772 8.1921 13.1283 8.1921Q8.2907 8.1921 4.84747 9.98258Q2.67097 11.1144 1.11382 12.8137Q0.194629 13.8168 -0.508743 15.0177L-0.752245 15.4334L6.70613 19.4379L6.93251 19.0531Q7.56747 17.9736 8.48705 17.262Q8.77073 17.0425 9.0815 16.8579Q9.49494 16.6199 9.93556 16.454Q10.9477 16.0731 12.1033 16.0731Q13.6866 16.0731 14.6325 16.7824L14.6411 16.7889L14.65 16.7949Q15.114 17.1105 15.3387 17.5241Q15.3407 17.5277 15.3427 17.5313Q15.5609 17.9376 15.5609 18.4611Q15.5609 18.5876 15.547 18.7126Q15.4751 19.3588 15.031 19.9636Q14.4298 20.7353 13.169 21.9092Q11.2571 23.6845 10.25 25.1952ZM15.4012 20.2438C14.9853 20.7786 14.3465 21.4471 13.4849 22.2494Q11.613 23.9875 10.6326 25.4582C10.0483 26.308 9.72517 27.3714 9.66313 28.6485C9.65576 28.8002 9.65207 28.9549 9.65207 29.1127L17.585 29.1127C17.585 28.3105 17.8227 27.6123 18.2981 27.018C18.7735 26.3941 19.5163 25.6513 20.5265 24.7897Q21.9081 23.5864 22.7548 22.6505C23.3491 21.9968 23.8542 21.2094 24.2701 20.2884Q24.8941 18.8622 24.8941 17.035C24.8941 14.3907 23.8096 12.3406 21.6407 10.8847Q18.4318 8.65634 13.1283 8.65634Q8.40419 8.65634 5.06164 10.3945Q2.94434 11.4955 1.43504 13.1508Q0.715408 13.9401 0.134 14.8554Q0.00976608 15.051 -0.108156 15.2523L0.301152 15.4721L6.53236 18.8177Q7.18457 17.7089 8.12312 16.9581Q8.46724 16.6828 8.84986 16.4556C9.83034 15.8911 10.9148 15.6088 12.1033 15.6088C13.262 15.6088 14.1979 15.8762 14.911 16.411C15.6538 16.9161 16.0252 17.5995 16.0252 18.4611C16.0252 19.0851 15.8172 19.6793 15.4012 20.2438ZM10.7547 40.6568Q11.9973 41.3427 13.6186 41.3427Q15.3337 41.3427 16.6208 40.6005Q17.1438 40.2989 17.5961 39.8749Q18.4091 39.0873 18.8004 38.1278Q19.1635 37.2374 19.1635 36.1989Q19.1635 34.9681 18.6744 33.9791Q18.2848 33.1913 17.5848 32.5569Q17.1986 32.2069 16.7602 31.9436Q15.4295 31.1442 13.6186 31.1442Q11.8224 31.1442 10.4956 31.9334Q10.0441 32.2019 9.64689 32.5619Q9.00958 33.1581 8.63796 33.8893Q8.11821 34.912 8.11821 36.1989Q8.11821 37.2251 8.47403 38.1079Q8.86631 39.0812 9.69109 39.8801Q10.1828 40.3411 10.7547 40.6568ZM10.0086 39.5414C10.9594 40.4328 12.1627 40.8785 13.6186 40.8785C15.1041 40.8785 16.3223 40.4328 17.2731 39.5414Q18.0154 38.8223 18.3714 37.9461Q18.6992 37.1391 18.6992 36.1989C18.6992 34.8619 18.2238 33.7626 17.2731 32.9009Q16.9487 32.6069 16.5828 32.3798Q15.34 31.6085 13.6186 31.6085Q11.8971 31.6085 10.6544 32.3798Q10.2884 32.6069 9.96404 32.9009C9.04298 33.7626 8.58246 34.8619 8.58246 36.1989Q8.58246 37.1391 8.91031 37.9461Q9.26625 38.8223 10.0086 39.5414Z" fill="rgb(32,32,39)" fill-rule="evenodd" transform="matrix(0.984808,0.173648,-0.174411,0.984673,-16.1431,-51.7415)" />
				</g>
				<g id="Frame 2043683100" customFrame="url(#clipPath_81)">
					<rect id="Frame 2043683100" width="96.603348" height="128.804474" x="0.000000" y="0.000000" rx="20.000000" fill="rgb(188,236,48)" transform="matrix(0.984808,0.173648,-0.174411,0.984673,57.2637,-79.3157)" />
					<rect id="Frame 2043683100" width="96.103348" height="128.304474" x="0.250000" y="0.250000" rx="19.750000" stroke="rgb(32,32,39)" stroke-width="0.5" transform="matrix(0.984808,0.173648,-0.174411,0.984673,57.2637,-79.3157)" />
					<path id="?" d="M9.65207 29.1127C9.65207 27.6271 9.9789 26.409 10.6326 25.4582C11.2862 24.4777 12.237 23.4081 13.4849 22.2494C14.3465 21.4471 14.9853 20.7786 15.4012 20.2438C15.8172 19.6793 16.0252 19.0851 16.0252 18.4611C16.0252 17.5995 15.6538 16.9161 14.911 16.411C14.1979 15.8762 13.262 15.6088 12.1033 15.6088C10.9148 15.6088 9.83034 15.8911 8.84986 16.4556C7.89909 17.0201 7.12659 17.8075 6.53236 18.8177L-0.108156 15.2523C1.11002 13.1725 2.83328 11.5532 5.06164 10.3945C7.29001 9.23572 9.9789 8.65634 13.1283 8.65634C16.664 8.65634 19.5014 9.39913 21.6407 10.8847C23.8096 12.3406 24.8941 14.3907 24.8941 17.035C24.8941 18.2532 24.6861 19.3376 24.2701 20.2884C23.8542 21.2094 23.3491 21.9968 22.7548 22.6505C22.1903 23.2744 21.4475 23.9875 20.5265 24.7897C19.5163 25.6513 18.7735 26.3941 18.2981 27.018C17.8227 27.6123 17.585 28.3105 17.585 29.1127L9.65207 29.1127ZM13.6186 40.8785C12.1627 40.8785 10.9594 40.4328 10.0086 39.5414C9.05784 38.6204 8.58246 37.5062 8.58246 36.1989C8.58246 34.8619 9.04298 33.7626 9.96404 32.9009C10.9148 32.0393 12.133 31.6085 13.6186 31.6085C15.1041 31.6085 16.3223 32.0393 17.2731 32.9009C18.2238 33.7626 18.6992 34.8619 18.6992 36.1989C18.6992 37.5062 18.2238 38.6204 17.2731 39.5414C16.3223 40.4328 15.1041 40.8785 13.6186 40.8785Z" fill="rgb(255,255,255)" fill-rule="nonzero" transform="matrix(0.984808,0.173648,-0.174411,0.984673,84.5771,-33.9817)" />
					<path id="?" d="M10.25 25.1952Q9.18783 26.7402 9.18783 29.1127L9.18783 29.577L18.0493 29.577L18.0493 29.1127Q18.0493 28.4482 18.2987 27.8963Q18.4397 27.5842 18.6606 27.3081L18.664 27.3038L18.6674 27.2994Q19.3503 26.403 20.8314 25.1398Q22.2338 23.9183 23.0984 22.9627Q24.0391 21.9279 24.6954 20.4745Q25.3583 18.9593 25.3583 17.035Q25.3583 14.9365 24.4911 13.2971Q24.4339 13.1891 24.3731 13.0832Q23.51 11.5804 21.9055 10.5034Q18.5772 8.1921 13.1283 8.1921Q8.2907 8.1921 4.84747 9.98258Q2.67097 11.1144 1.11382 12.8137Q0.194629 13.8168 -0.508743 15.0177L-0.752245 15.4334L6.70613 19.4379L6.93251 19.0531Q7.56747 17.9736 8.48705 17.262Q8.77073 17.0425 9.0815 16.8579Q9.49494 16.6199 9.93556 16.454Q10.9477 16.0731 12.1033 16.0731Q13.6866 16.0731 14.6325 16.7824L14.6411 16.7889L14.65 16.7949Q15.114 17.1105 15.3387 17.5241Q15.3407 17.5277 15.3427 17.5313Q15.5609 17.9376 15.5609 18.4611Q15.5609 18.5876 15.547 18.7126Q15.4751 19.3588 15.031 19.9636Q14.4298 20.7353 13.169 21.9092Q11.2571 23.6845 10.25 25.1952ZM15.4012 20.2438C14.9853 20.7786 14.3465 21.4471 13.4849 22.2494Q11.613 23.9875 10.6326 25.4582C10.0483 26.308 9.72517 27.3714 9.66313 28.6485C9.65576 28.8002 9.65207 28.9549 9.65207 29.1127L17.585 29.1127C17.585 28.3105 17.8227 27.6123 18.2981 27.018C18.7735 26.3941 19.5163 25.6513 20.5265 24.7897Q21.9081 23.5864 22.7548 22.6505C23.3491 21.9968 23.8542 21.2094 24.2701 20.2884Q24.8941 18.8622 24.8941 17.035C24.8941 14.3907 23.8096 12.3406 21.6407 10.8847Q18.4318 8.65634 13.1283 8.65634Q8.40419 8.65634 5.06164 10.3945Q2.94434 11.4955 1.43504 13.1508Q0.715408 13.9401 0.134 14.8554Q0.00976608 15.051 -0.108156 15.2523L0.301152 15.4721L6.53236 18.8177Q7.18457 17.7089 8.12312 16.9581Q8.46724 16.6828 8.84986 16.4556C9.83034 15.8911 10.9148 15.6088 12.1033 15.6088C13.262 15.6088 14.1979 15.8762 14.911 16.411C15.6538 16.9161 16.0252 17.5995 16.0252 18.4611C16.0252 19.0851 15.8172 19.6793 15.4012 20.2438ZM10.7547 40.6568Q11.9973 41.3427 13.6186 41.3427Q15.3337 41.3427 16.6208 40.6005Q17.1438 40.2989 17.5961 39.8749Q18.4091 39.0873 18.8004 38.1278Q19.1635 37.2374 19.1635 36.1989Q19.1635 34.9681 18.6744 33.9791Q18.2848 33.1913 17.5848 32.5569Q17.1986 32.2069 16.7602 31.9436Q15.4295 31.1442 13.6186 31.1442Q11.8224 31.1442 10.4956 31.9334Q10.0441 32.2019 9.64689 32.5619Q9.00958 33.1581 8.63796 33.8893Q8.11821 34.912 8.11821 36.1989Q8.11821 37.2251 8.47403 38.1079Q8.86631 39.0812 9.69109 39.8801Q10.1828 40.3411 10.7547 40.6568ZM10.0086 39.5414C10.9594 40.4328 12.1627 40.8785 13.6186 40.8785C15.1041 40.8785 16.3223 40.4328 17.2731 39.5414Q18.0154 38.8223 18.3714 37.9461Q18.6992 37.1391 18.6992 36.1989C18.6992 34.8619 18.2238 33.7626 17.2731 32.9009Q16.9487 32.6069 16.5828 32.3798Q15.34 31.6085 13.6186 31.6085Q11.8971 31.6085 10.6544 32.3798Q10.2884 32.6069 9.96404 32.9009C9.04298 33.7626 8.58246 34.8619 8.58246 36.1989Q8.58246 37.1391 8.91031 37.9461Q9.26625 38.8223 10.0086 39.5414Z" fill="rgb(32,32,39)" fill-rule="evenodd" transform="matrix(0.984808,0.173648,-0.174411,0.984673,84.5771,-33.9817)" />
				</g>
				<g id="Frame 2043683094" customFrame="url(#clipPath_82)">
					<rect id="Frame 2043683094" width="96.603348" height="128.804474" x="0.000000" y="0.000000" rx="20.000000" fill="rgb(188,236,48)" transform="matrix(0.984808,0.173648,-0.174411,0.984673,157.983,-61.5559)" />
					<rect id="Frame 2043683094" width="96.103348" height="128.304474" x="0.250000" y="0.250000" rx="19.750000" stroke="rgb(32,32,39)" stroke-width="0.5" transform="matrix(0.984808,0.173648,-0.174411,0.984673,157.983,-61.5559)" />
					<path id="?" d="M11.7303 36.2176C11.7303 34.3762 12.1354 32.8662 12.9457 31.6877C13.7559 30.4724 14.9344 29.1465 16.4812 27.7102C17.5493 26.7159 18.3411 25.8872 18.8567 25.2243C19.3723 24.5246 19.6301 23.788 19.6301 23.0146C19.6301 21.9466 19.1697 21.0995 18.249 20.4734C17.3651 19.8105 16.205 19.479 14.7687 19.479C13.2955 19.479 11.9513 19.8289 10.736 20.5286C9.55744 21.2284 8.5999 22.2043 7.86332 23.4565L-0.367877 19.0371C1.1421 16.4591 3.27816 14.4519 6.04031 13.0156C8.80245 11.5793 12.1354 10.8611 16.0393 10.8611C20.4219 10.8611 23.939 11.7818 26.5907 13.6233C29.2792 15.4279 30.6234 17.9691 30.6234 21.2468C30.6234 22.7568 30.3656 24.101 29.85 25.2795C29.3344 26.4212 28.7083 27.3972 27.9718 28.2074C27.272 28.9808 26.3513 29.8647 25.2096 30.8591C23.9574 31.9271 23.0367 32.8478 22.4475 33.6212C21.8582 34.3578 21.5636 35.2233 21.5636 36.2176L11.7303 36.2176ZM16.647 50.8018C14.8424 50.8018 13.3508 50.2494 12.1723 49.1445C10.9938 48.0028 10.4045 46.6217 10.4045 45.0013C10.4045 43.344 10.9753 41.9813 12.117 40.9133C13.2955 39.8453 14.8055 39.3113 16.647 39.3113C18.4884 39.3113 19.9984 39.8453 21.1769 40.9133C22.3554 41.9813 22.9447 43.344 22.9447 45.0013C22.9447 46.6217 22.3554 48.0028 21.1769 49.1445C19.9984 50.2494 18.4884 50.8018 16.647 50.8018Z" fill="rgb(255,255,255)" fill-rule="nonzero" transform="matrix(0.984808,0.173648,-0.174411,0.984673,183.389,-22.6509)" />
					<path id="?" d="M12.5631 31.4247Q11.2661 33.3113 11.2661 36.2176L11.2661 36.6819L22.0278 36.6819L22.0278 36.2176Q22.0278 35.3745 22.3428 34.6727Q22.5241 34.2685 22.81 33.9112L22.8134 33.9069L22.8167 33.9026Q23.6705 32.7821 25.5145 31.2092Q27.2479 29.6995 28.3153 28.5197Q29.4695 27.25 30.2753 25.4656Q31.0877 23.6089 31.0877 21.2468Q31.0877 18.6733 30.0256 16.6655Q29.9632 16.5476 29.8972 16.4317Q28.8391 14.5734 26.8555 13.242Q22.7586 10.3969 16.0393 10.3969Q10.07 10.3969 5.82613 12.6037Q3.14242 13.9992 1.22372 16.0951Q0.0953376 17.3277 -0.768464 18.8025L-1.01197 19.2182L8.03709 24.0767L8.26347 23.6919Q9.05468 22.3468 10.1991 21.4551Q10.5653 21.1699 10.9676 20.931Q11.4927 20.6286 12.0526 20.4188Q13.3215 19.9433 14.7687 19.9433Q16.7684 19.9433 17.9705 20.8448L17.9791 20.8513L17.988 20.8573Q18.5854 21.2636 18.8769 21.7999Q18.885 21.8149 18.8929 21.8299Q19.1658 22.3507 19.1658 23.0146Q19.1658 23.1879 19.1456 23.3589Q19.0486 24.179 18.4865 24.9441Q17.7357 25.9079 16.1653 27.37Q13.805 29.5617 12.5631 31.4247ZM18.8567 25.2243C18.3411 25.8872 17.5493 26.7159 16.4812 27.7102Q14.161 29.8647 12.9457 31.6877C12.2046 32.7657 11.8024 34.1209 11.7392 35.7534C11.7333 35.9057 11.7303 36.0605 11.7303 36.2176L21.5636 36.2176C21.5636 35.2233 21.8582 34.3578 22.4475 33.6212C23.0367 32.8478 23.9574 31.9271 25.2096 30.8591C26.3513 29.8647 27.272 28.9808 27.9718 28.2074C28.7083 27.3972 29.3344 26.4212 29.85 25.2795C30.3656 24.101 30.6234 22.7568 30.6234 21.2468C30.6234 17.9691 29.2792 15.4279 26.5907 13.6233Q22.6132 10.8611 16.0393 10.8611Q10.1835 10.8611 6.04031 13.0156Q3.41581 14.3803 1.54497 16.4322Q0.615994 17.4511 -0.127155 18.6394Q-0.250058 18.8359 -0.367877 19.0371L0.0414287 19.2568L7.86333 23.4565C8.5999 22.2043 9.55744 21.2284 10.736 20.5286C11.9513 19.8289 13.2955 19.479 14.7687 19.479Q16.9232 19.479 18.249 20.4734Q19.0051 20.9875 19.3472 21.7004Q19.6301 22.2896 19.6301 23.0146C19.6301 23.788 19.3723 24.5246 18.8567 25.2243ZM13.1393 50.423Q14.6594 51.266 16.647 51.266Q18.7545 51.266 20.3305 50.3507Q20.9572 49.9867 21.4999 49.4779Q22.4907 48.5181 22.9673 47.3487Q23.4089 46.265 23.4089 45.0013Q23.4089 43.5003 22.8118 42.2951Q22.3381 41.3391 21.4886 40.5693Q21.0248 40.1489 20.4989 39.8312Q18.8703 38.847 16.647 38.847Q14.4384 38.847 12.8136 39.821Q12.2746 40.144 11.7999 40.5743Q11.0274 41.2969 10.5758 42.1831Q9.94026 43.4302 9.94026 45.0013Q9.94026 46.2526 10.3746 47.3287Q10.8521 48.5119 11.8548 49.4832Q12.4488 50.0401 13.1393 50.423ZM12.1723 49.1445C13.3508 50.2494 14.8424 50.8018 16.647 50.8018C18.4884 50.8018 19.9984 50.2494 21.1769 49.1445C22.3554 48.0028 22.9447 46.6217 22.9447 45.0013Q22.9447 43.603 22.3853 42.4843Q21.9503 41.6142 21.1769 40.9133Q20.7748 40.5489 20.3212 40.2674Q18.7808 39.3113 16.647 39.3113Q14.5131 39.3113 12.9727 40.2674Q12.5191 40.5489 12.117 40.9133Q11.4177 41.5676 11.0039 42.3692Q10.4045 43.5306 10.4045 45.0013C10.4045 46.6217 10.9938 48.0028 12.1723 49.1445Z" fill="rgb(32,32,39)" fill-rule="evenodd" transform="matrix(0.984808,0.173648,-0.174411,0.984673,183.389,-22.6509)" />
				</g>
				<g id="Frame 2043683095" customFrame="url(#clipPath_83)">
					<rect id="Frame 2043683095" width="96.603348" height="128.804474" x="0.000000" y="0.000000" rx="20.000000" fill="rgb(188,236,48)" transform="matrix(0.984808,0.173648,-0.174411,0.984673,258.704,-43.7961)" />
					<rect id="Frame 2043683095" width="96.103348" height="128.304474" x="0.250000" y="0.250000" rx="19.750000" stroke="rgb(32,32,39)" stroke-width="0.5" transform="matrix(0.984808,0.173648,-0.174411,0.984673,258.704,-43.7961)" />
					<path id="?" d="M11.7303 36.2176C11.7303 34.3762 12.1354 32.8662 12.9457 31.6877C13.7559 30.4724 14.9344 29.1465 16.4812 27.7102C17.5493 26.7159 18.3411 25.8872 18.8567 25.2243C19.3723 24.5246 19.6301 23.788 19.6301 23.0146C19.6301 21.9466 19.1697 21.0995 18.249 20.4734C17.3651 19.8105 16.205 19.479 14.7687 19.479C13.2955 19.479 11.9513 19.8289 10.736 20.5286C9.55744 21.2284 8.5999 22.2043 7.86332 23.4565L-0.367877 19.0371C1.1421 16.4591 3.27816 14.4519 6.04031 13.0156C8.80245 11.5793 12.1354 10.8611 16.0393 10.8611C20.4219 10.8611 23.939 11.7818 26.5907 13.6233C29.2792 15.4279 30.6234 17.9691 30.6234 21.2468C30.6234 22.7568 30.3656 24.101 29.85 25.2795C29.3344 26.4212 28.7083 27.3972 27.9718 28.2074C27.272 28.9808 26.3513 29.8647 25.2096 30.8591C23.9574 31.9271 23.0367 32.8478 22.4475 33.6212C21.8582 34.3578 21.5636 35.2233 21.5636 36.2176L11.7303 36.2176ZM16.647 50.8018C14.8424 50.8018 13.3508 50.2494 12.1723 49.1445C10.9938 48.0028 10.4045 46.6217 10.4045 45.0013C10.4045 43.344 10.9753 41.9813 12.117 40.9133C13.2955 39.8453 14.8055 39.3113 16.647 39.3113C18.4884 39.3113 19.9984 39.8453 21.1769 40.9133C22.3554 41.9813 22.9447 43.344 22.9447 45.0013C22.9447 46.6217 22.3554 48.0028 21.1769 49.1445C19.9984 50.2494 18.4884 50.8018 16.647 50.8018Z" fill="rgb(255,255,255)" fill-rule="nonzero" transform="matrix(0.984808,0.173648,-0.174411,0.984673,284.109,-4.89136)" />
					<path id="?" d="M12.5631 31.4247Q11.2661 33.3113 11.2661 36.2176L11.2661 36.6819L22.0278 36.6819L22.0278 36.2176Q22.0278 35.3745 22.3428 34.6727Q22.5241 34.2685 22.81 33.9112L22.8134 33.9069L22.8167 33.9026Q23.6705 32.7821 25.5145 31.2092Q27.2479 29.6995 28.3153 28.5197Q29.4695 27.25 30.2753 25.4656Q31.0877 23.6089 31.0877 21.2468Q31.0877 18.6733 30.0256 16.6655Q29.9632 16.5476 29.8972 16.4317Q28.8391 14.5734 26.8555 13.242Q22.7586 10.3969 16.0393 10.3969Q10.07 10.3969 5.82613 12.6037Q3.14242 13.9992 1.22372 16.0951Q0.0953376 17.3277 -0.768464 18.8025L-1.01197 19.2182L8.03709 24.0767L8.26347 23.6919Q9.05468 22.3468 10.1991 21.4551Q10.5653 21.1699 10.9676 20.931Q11.4927 20.6286 12.0526 20.4188Q13.3215 19.9433 14.7687 19.9433Q16.7684 19.9433 17.9705 20.8448L17.9791 20.8513L17.988 20.8573Q18.5854 21.2636 18.8769 21.7999Q18.885 21.8149 18.8929 21.8299Q19.1658 22.3507 19.1658 23.0146Q19.1658 23.1879 19.1456 23.3589Q19.0486 24.179 18.4865 24.9441Q17.7357 25.9079 16.1653 27.37Q13.805 29.5617 12.5631 31.4247ZM18.8567 25.2243C18.3411 25.8872 17.5493 26.7159 16.4812 27.7102Q14.161 29.8647 12.9457 31.6877C12.2046 32.7657 11.8024 34.1209 11.7392 35.7534C11.7333 35.9057 11.7303 36.0605 11.7303 36.2176L21.5636 36.2176C21.5636 35.2233 21.8582 34.3578 22.4475 33.6212C23.0367 32.8478 23.9574 31.9271 25.2096 30.8591C26.3513 29.8647 27.272 28.9808 27.9718 28.2074C28.7083 27.3972 29.3344 26.4212 29.85 25.2795C30.3656 24.101 30.6234 22.7568 30.6234 21.2468C30.6234 17.9691 29.2792 15.4279 26.5907 13.6233Q22.6132 10.8611 16.0393 10.8611Q10.1835 10.8611 6.04031 13.0156Q3.41581 14.3803 1.54497 16.4322Q0.615994 17.4511 -0.127155 18.6394Q-0.250058 18.8359 -0.367877 19.0371L0.0414287 19.2568L7.86333 23.4565C8.5999 22.2043 9.55744 21.2284 10.736 20.5286C11.9513 19.8289 13.2955 19.479 14.7687 19.479Q16.9232 19.479 18.249 20.4734Q19.0051 20.9875 19.3472 21.7004Q19.6301 22.2896 19.6301 23.0146C19.6301 23.788 19.3723 24.5246 18.8567 25.2243ZM13.1393 50.423Q14.6594 51.266 16.647 51.266Q18.7545 51.266 20.3305 50.3507Q20.9572 49.9867 21.4999 49.4779Q22.4907 48.5181 22.9673 47.3487Q23.4089 46.265 23.4089 45.0013Q23.4089 43.5003 22.8118 42.2951Q22.3381 41.3391 21.4886 40.5693Q21.0248 40.1489 20.4989 39.8312Q18.8703 38.847 16.647 38.847Q14.4384 38.847 12.8136 39.821Q12.2746 40.144 11.7999 40.5743Q11.0274 41.2969 10.5758 42.1831Q9.94026 43.4302 9.94026 45.0013Q9.94026 46.2526 10.3746 47.3287Q10.8521 48.5119 11.8548 49.4832Q12.4488 50.0401 13.1393 50.423ZM12.1723 49.1445C13.3508 50.2494 14.8424 50.8018 16.647 50.8018C18.4884 50.8018 19.9984 50.2494 21.1769 49.1445C22.3554 48.0028 22.9447 46.6217 22.9447 45.0013Q22.9447 43.603 22.3853 42.4843Q21.9503 41.6142 21.1769 40.9133Q20.7748 40.5489 20.3212 40.2674Q18.7808 39.3113 16.647 39.3113Q14.5131 39.3113 12.9727 40.2674Q12.5191 40.5489 12.117 40.9133Q11.4177 41.5676 11.0039 42.3692Q10.4045 43.5306 10.4045 45.0013C10.4045 46.6217 10.9938 48.0028 12.1723 49.1445Z" fill="rgb(32,32,39)" fill-rule="evenodd" transform="matrix(0.984808,0.173648,-0.174411,0.984673,284.109,-4.89136)" />
				</g>
				<g id="Frame 2043683101" customFrame="url(#clipPath_84)">
					<rect id="Frame 2043683101" width="96.603348" height="128.804474" x="0.000000" y="0.000000" rx="20.000000" fill="rgb(188,236,48)" transform="matrix(0.984808,0.173648,-0.174411,0.984673,359.424,-26.0366)" />
					<rect id="Frame 2043683101" width="96.103348" height="128.304474" x="0.250000" y="0.250000" rx="19.750000" stroke="rgb(32,32,39)" stroke-width="0.5" transform="matrix(0.984808,0.173648,-0.174411,0.984673,359.424,-26.0366)" />
					<path id="?" d="M9.65207 29.1127C9.65207 27.6271 9.9789 26.409 10.6326 25.4582C11.2862 24.4777 12.237 23.4081 13.4849 22.2494C14.3465 21.4471 14.9853 20.7786 15.4012 20.2438C15.8172 19.6793 16.0252 19.0851 16.0252 18.4611C16.0252 17.5995 15.6538 16.9161 14.911 16.411C14.1979 15.8762 13.262 15.6088 12.1033 15.6088C10.9148 15.6088 9.83034 15.8911 8.84986 16.4556C7.89909 17.0201 7.12659 17.8075 6.53236 18.8177L-0.108156 15.2523C1.11002 13.1725 2.83328 11.5532 5.06164 10.3945C7.29001 9.23572 9.9789 8.65634 13.1283 8.65634C16.664 8.65634 19.5014 9.39913 21.6407 10.8847C23.8096 12.3406 24.8941 14.3907 24.8941 17.035C24.8941 18.2532 24.6861 19.3376 24.2701 20.2884C23.8542 21.2094 23.3491 21.9968 22.7548 22.6505C22.1903 23.2744 21.4475 23.9875 20.5265 24.7897C19.5163 25.6513 18.7735 26.3941 18.2981 27.018C17.8227 27.6123 17.585 28.3105 17.585 29.1127L9.65207 29.1127ZM13.6186 40.8785C12.1627 40.8785 10.9594 40.4328 10.0086 39.5414C9.05784 38.6204 8.58246 37.5062 8.58246 36.1989C8.58246 34.8619 9.04298 33.7626 9.96404 32.9009C10.9148 32.0393 12.133 31.6085 13.6186 31.6085C15.1041 31.6085 16.3223 32.0393 17.2731 32.9009C18.2238 33.7626 18.6992 34.8619 18.6992 36.1989C18.6992 37.5062 18.2238 38.6204 17.2731 39.5414C16.3223 40.4328 15.1041 40.8785 13.6186 40.8785Z" fill="rgb(255,255,255)" fill-rule="nonzero" transform="matrix(0.984808,0.173648,-0.174411,0.984673,386.738,19.2974)" />
					<path id="?" d="M10.25 25.1952Q9.18783 26.7402 9.18783 29.1127L9.18783 29.577L18.0493 29.577L18.0493 29.1127Q18.0493 28.4482 18.2987 27.8963Q18.4397 27.5842 18.6606 27.3081L18.664 27.3038L18.6674 27.2994Q19.3503 26.403 20.8314 25.1398Q22.2338 23.9183 23.0984 22.9627Q24.0391 21.9279 24.6954 20.4745Q25.3583 18.9593 25.3583 17.035Q25.3583 14.9365 24.4911 13.2971Q24.4339 13.1891 24.3731 13.0832Q23.51 11.5804 21.9055 10.5034Q18.5772 8.1921 13.1283 8.1921Q8.2907 8.1921 4.84747 9.98258Q2.67097 11.1144 1.11382 12.8137Q0.194629 13.8168 -0.508743 15.0177L-0.752245 15.4334L6.70613 19.4379L6.93251 19.0531Q7.56747 17.9736 8.48705 17.262Q8.77073 17.0425 9.0815 16.8579Q9.49494 16.6199 9.93556 16.454Q10.9477 16.0731 12.1033 16.0731Q13.6866 16.0731 14.6325 16.7824L14.6411 16.7889L14.65 16.7949Q15.114 17.1105 15.3387 17.5241Q15.3407 17.5277 15.3427 17.5313Q15.5609 17.9376 15.5609 18.4611Q15.5609 18.5876 15.547 18.7126Q15.4751 19.3588 15.031 19.9636Q14.4298 20.7353 13.169 21.9092Q11.2571 23.6845 10.25 25.1952ZM15.4012 20.2438C14.9853 20.7786 14.3465 21.4471 13.4849 22.2494Q11.613 23.9875 10.6326 25.4582C10.0483 26.308 9.72517 27.3714 9.66313 28.6485C9.65576 28.8002 9.65207 28.9549 9.65207 29.1127L17.585 29.1127C17.585 28.3105 17.8227 27.6123 18.2981 27.018C18.7735 26.3941 19.5163 25.6513 20.5265 24.7897Q21.9081 23.5864 22.7548 22.6505C23.3491 21.9968 23.8542 21.2094 24.2701 20.2884Q24.8941 18.8622 24.8941 17.035C24.8941 14.3907 23.8096 12.3406 21.6407 10.8847Q18.4318 8.65634 13.1283 8.65634Q8.40419 8.65634 5.06164 10.3945Q2.94434 11.4955 1.43504 13.1508Q0.715408 13.9401 0.134 14.8554Q0.00976608 15.051 -0.108156 15.2523L0.301152 15.4721L6.53236 18.8177Q7.18457 17.7089 8.12312 16.9581Q8.46724 16.6828 8.84986 16.4556C9.83034 15.8911 10.9148 15.6088 12.1033 15.6088C13.262 15.6088 14.1979 15.8762 14.911 16.411C15.6538 16.9161 16.0252 17.5995 16.0252 18.4611C16.0252 19.0851 15.8172 19.6793 15.4012 20.2438ZM10.7547 40.6568Q11.9973 41.3427 13.6186 41.3427Q15.3337 41.3427 16.6208 40.6005Q17.1438 40.2989 17.5961 39.8749Q18.4091 39.0873 18.8004 38.1278Q19.1635 37.2374 19.1635 36.1989Q19.1635 34.9681 18.6744 33.9791Q18.2848 33.1913 17.5848 32.5569Q17.1986 32.2069 16.7602 31.9436Q15.4295 31.1442 13.6186 31.1442Q11.8224 31.1442 10.4956 31.9334Q10.0441 32.2019 9.64689 32.5619Q9.00958 33.1581 8.63796 33.8893Q8.11821 34.912 8.11821 36.1989Q8.11821 37.2251 8.47403 38.1079Q8.86631 39.0812 9.69109 39.8801Q10.1828 40.3411 10.7547 40.6568ZM10.0086 39.5414C10.9594 40.4328 12.1627 40.8785 13.6186 40.8785C15.1041 40.8785 16.3223 40.4328 17.2731 39.5414Q18.0154 38.8223 18.3714 37.9461Q18.6992 37.1391 18.6992 36.1989C18.6992 34.8619 18.2238 33.7626 17.2731 32.9009Q16.9487 32.6069 16.5828 32.3798Q15.34 31.6085 13.6186 31.6085Q11.8971 31.6085 10.6544 32.3798Q10.2884 32.6069 9.96404 32.9009C9.04298 33.7626 8.58246 34.8619 8.58246 36.1989Q8.58246 37.1391 8.91031 37.9461Q9.26625 38.8223 10.0086 39.5414Z" fill="rgb(32,32,39)" fill-rule="evenodd" transform="matrix(0.984808,0.173648,-0.174411,0.984673,386.738,19.2974)" />
				</g>
			</g>
			<g id="Frame 2043683113" customFrame="url(#clipPath_85)">
				<rect id="Frame 2043683113" width="505.799042" height="128.804428" x="0.000000" y="0.000000" transform="matrix(0.984808,0.173648,-0.173648,0.984808,-66.8892,35.2412)" />
				<g id="Frame 2043683104" customFrame="url(#clipPath_86)">
					<rect id="Frame 2043683104" width="96.603348" height="128.804474" x="0.000000" y="0.000000" rx="20.000000" fill="rgb(188,236,48)" transform="matrix(0.984808,0.173648,-0.174411,0.984673,-66.791,35.2585)" />
					<rect id="Frame 2043683104" width="96.103348" height="128.304474" x="0.250000" y="0.250000" rx="19.750000" stroke="rgb(32,32,39)" stroke-width="0.5" transform="matrix(0.984808,0.173648,-0.174411,0.984673,-66.791,35.2585)" />
					<path id="?" d="M9.65207 29.1127C9.65207 27.6271 9.9789 26.409 10.6326 25.4582C11.2862 24.4777 12.237 23.4081 13.4849 22.2494C14.3465 21.4471 14.9853 20.7786 15.4012 20.2438C15.8172 19.6793 16.0252 19.0851 16.0252 18.4611C16.0252 17.5995 15.6538 16.9161 14.911 16.411C14.1979 15.8762 13.262 15.6088 12.1033 15.6088C10.9148 15.6088 9.83034 15.8911 8.84986 16.4556C7.89909 17.0201 7.12659 17.8075 6.53236 18.8177L-0.108156 15.2523C1.11002 13.1725 2.83328 11.5532 5.06164 10.3945C7.29001 9.23572 9.9789 8.65634 13.1283 8.65634C16.664 8.65634 19.5014 9.39913 21.6407 10.8847C23.8096 12.3406 24.8941 14.3907 24.8941 17.035C24.8941 18.2532 24.6861 19.3376 24.2701 20.2884C23.8542 21.2094 23.3491 21.9968 22.7548 22.6505C22.1903 23.2744 21.4475 23.9875 20.5265 24.7897C19.5163 25.6513 18.7735 26.3941 18.2981 27.018C17.8227 27.6123 17.585 28.3105 17.585 29.1127L9.65207 29.1127ZM13.6186 40.8785C12.1627 40.8785 10.9594 40.4328 10.0086 39.5414C9.05784 38.6204 8.58246 37.5062 8.58246 36.1989C8.58246 34.8619 9.04298 33.7626 9.96404 32.9009C10.9148 32.0393 12.133 31.6085 13.6186 31.6085C15.1041 31.6085 16.3223 32.0393 17.2731 32.9009C18.2238 33.7626 18.6992 34.8619 18.6992 36.1989C18.6992 37.5062 18.2238 38.6204 17.2731 39.5414C16.3223 40.4328 15.1041 40.8785 13.6186 40.8785Z" fill="rgb(255,255,255)" fill-rule="nonzero" transform="matrix(0.984808,0.173648,-0.174411,0.984673,-39.4771,80.5925)" />
					<path id="?" d="M10.25 25.1952Q9.18783 26.7402 9.18783 29.1127L9.18783 29.577L18.0493 29.577L18.0493 29.1127Q18.0493 28.4482 18.2987 27.8963Q18.4397 27.5842 18.6606 27.3081L18.664 27.3038L18.6674 27.2994Q19.3503 26.403 20.8314 25.1398Q22.2338 23.9183 23.0984 22.9627Q24.0391 21.9279 24.6954 20.4745Q25.3583 18.9593 25.3583 17.035Q25.3583 14.9365 24.4911 13.2971Q24.4339 13.1891 24.3731 13.0832Q23.51 11.5804 21.9055 10.5034Q18.5772 8.1921 13.1283 8.1921Q8.2907 8.1921 4.84747 9.98258Q2.67097 11.1144 1.11382 12.8137Q0.194629 13.8168 -0.508743 15.0177L-0.752245 15.4334L6.70613 19.4379L6.93251 19.0531Q7.56747 17.9736 8.48705 17.262Q8.77073 17.0425 9.0815 16.8579Q9.49494 16.6199 9.93556 16.454Q10.9477 16.0731 12.1033 16.0731Q13.6866 16.0731 14.6325 16.7824L14.6411 16.7889L14.65 16.7949Q15.114 17.1105 15.3387 17.5241Q15.3407 17.5277 15.3427 17.5313Q15.5609 17.9376 15.5609 18.4611Q15.5609 18.5876 15.547 18.7126Q15.4751 19.3588 15.031 19.9636Q14.4298 20.7353 13.169 21.9092Q11.2571 23.6845 10.25 25.1952ZM15.4012 20.2438C14.9853 20.7786 14.3465 21.4471 13.4849 22.2494Q11.613 23.9875 10.6326 25.4582C10.0483 26.308 9.72517 27.3714 9.66313 28.6485C9.65576 28.8002 9.65207 28.9549 9.65207 29.1127L17.585 29.1127C17.585 28.3105 17.8227 27.6123 18.2981 27.018C18.7735 26.3941 19.5163 25.6513 20.5265 24.7897Q21.9081 23.5864 22.7548 22.6505C23.3491 21.9968 23.8542 21.2094 24.2701 20.2884Q24.8941 18.8622 24.8941 17.035C24.8941 14.3907 23.8096 12.3406 21.6407 10.8847Q18.4318 8.65634 13.1283 8.65634Q8.40419 8.65634 5.06164 10.3945Q2.94434 11.4955 1.43504 13.1508Q0.715408 13.9401 0.134 14.8554Q0.00976608 15.051 -0.108156 15.2523L0.301152 15.4721L6.53236 18.8177Q7.18457 17.7089 8.12312 16.9581Q8.46724 16.6828 8.84986 16.4556C9.83034 15.8911 10.9148 15.6088 12.1033 15.6088C13.262 15.6088 14.1979 15.8762 14.911 16.411C15.6538 16.9161 16.0252 17.5995 16.0252 18.4611C16.0252 19.0851 15.8172 19.6793 15.4012 20.2438ZM10.7547 40.6568Q11.9973 41.3427 13.6186 41.3427Q15.3337 41.3427 16.6208 40.6005Q17.1438 40.2989 17.5961 39.8749Q18.4091 39.0873 18.8004 38.1278Q19.1635 37.2374 19.1635 36.1989Q19.1635 34.9681 18.6744 33.9791Q18.2848 33.1913 17.5848 32.5569Q17.1986 32.2069 16.7602 31.9436Q15.4295 31.1442 13.6186 31.1442Q11.8224 31.1442 10.4956 31.9334Q10.0441 32.2019 9.64689 32.5619Q9.00958 33.1581 8.63796 33.8893Q8.11821 34.912 8.11821 36.1989Q8.11821 37.2251 8.47403 38.1079Q8.86631 39.0812 9.69109 39.8801Q10.1828 40.3411 10.7547 40.6568ZM10.0086 39.5414C10.9594 40.4328 12.1627 40.8785 13.6186 40.8785C15.1041 40.8785 16.3223 40.4328 17.2731 39.5414Q18.0154 38.8223 18.3714 37.9461Q18.6992 37.1391 18.6992 36.1989C18.6992 34.8619 18.2238 33.7626 17.2731 32.9009Q16.9487 32.6069 16.5828 32.3798Q15.34 31.6085 13.6186 31.6085Q11.8971 31.6085 10.6544 32.3798Q10.2884 32.6069 9.96404 32.9009C9.04298 33.7626 8.58246 34.8619 8.58246 36.1989Q8.58246 37.1391 8.91031 37.9461Q9.26625 38.8223 10.0086 39.5414Z" fill="rgb(32,32,39)" fill-rule="evenodd" transform="matrix(0.984808,0.173648,-0.174411,0.984673,-39.4771,80.5925)" />
				</g>
				<g id="Frame 2043683096" customFrame="url(#clipPath_87)">
					<rect id="Frame 2043683096" width="96.603348" height="128.804474" x="0.000000" y="0.000000" rx="20.000000" fill="rgb(188,236,48)" transform="matrix(0.984808,0.173648,-0.174411,0.984673,33.9297,53.0183)" />
					<rect id="Frame 2043683096" width="96.103348" height="128.304474" x="0.250000" y="0.250000" rx="19.750000" stroke="rgb(32,32,39)" stroke-width="0.5" transform="matrix(0.984808,0.173648,-0.174411,0.984673,33.9297,53.0183)" />
					<path id="?" d="M11.7303 36.2176C11.7303 34.3762 12.1354 32.8662 12.9457 31.6877C13.7559 30.4724 14.9344 29.1465 16.4812 27.7102C17.5493 26.7159 18.3411 25.8872 18.8567 25.2243C19.3723 24.5246 19.6301 23.788 19.6301 23.0146C19.6301 21.9466 19.1697 21.0995 18.249 20.4734C17.3651 19.8105 16.205 19.479 14.7687 19.479C13.2955 19.479 11.9513 19.8289 10.736 20.5286C9.55744 21.2284 8.5999 22.2043 7.86332 23.4565L-0.367877 19.0371C1.1421 16.4591 3.27816 14.4519 6.04031 13.0156C8.80245 11.5793 12.1354 10.8611 16.0393 10.8611C20.4219 10.8611 23.939 11.7818 26.5907 13.6233C29.2792 15.4279 30.6234 17.9691 30.6234 21.2468C30.6234 22.7568 30.3656 24.101 29.85 25.2795C29.3344 26.4212 28.7083 27.3972 27.9718 28.2074C27.272 28.9808 26.3513 29.8647 25.2096 30.8591C23.9574 31.9271 23.0367 32.8478 22.4475 33.6212C21.8582 34.3578 21.5636 35.2233 21.5636 36.2176L11.7303 36.2176ZM16.647 50.8018C14.8424 50.8018 13.3508 50.2494 12.1723 49.1445C10.9938 48.0028 10.4045 46.6217 10.4045 45.0013C10.4045 43.344 10.9753 41.9813 12.117 40.9133C13.2955 39.8453 14.8055 39.3113 16.647 39.3113C18.4884 39.3113 19.9984 39.8453 21.1769 40.9133C22.3554 41.9813 22.9447 43.344 22.9447 45.0013C22.9447 46.6217 22.3554 48.0028 21.1769 49.1445C19.9984 50.2494 18.4884 50.8018 16.647 50.8018Z" fill="rgb(255,255,255)" fill-rule="nonzero" transform="matrix(0.984808,0.173648,-0.174411,0.984673,59.335,91.9231)" />
					<path id="?" d="M12.5631 31.4247Q11.2661 33.3113 11.2661 36.2176L11.2661 36.6819L22.0278 36.6819L22.0278 36.2176Q22.0278 35.3745 22.3428 34.6727Q22.5241 34.2685 22.81 33.9112L22.8134 33.9069L22.8167 33.9026Q23.6705 32.7821 25.5145 31.2092Q27.2479 29.6995 28.3153 28.5197Q29.4695 27.25 30.2753 25.4656Q31.0877 23.6089 31.0877 21.2468Q31.0877 18.6733 30.0256 16.6655Q29.9632 16.5476 29.8972 16.4317Q28.8391 14.5734 26.8555 13.242Q22.7586 10.3969 16.0393 10.3969Q10.07 10.3969 5.82613 12.6037Q3.14242 13.9992 1.22372 16.0951Q0.0953376 17.3277 -0.768464 18.8025L-1.01197 19.2182L8.03709 24.0767L8.26347 23.6919Q9.05468 22.3468 10.1991 21.4551Q10.5653 21.1699 10.9676 20.931Q11.4927 20.6286 12.0526 20.4188Q13.3215 19.9433 14.7687 19.9433Q16.7684 19.9433 17.9705 20.8448L17.9791 20.8513L17.988 20.8573Q18.5854 21.2636 18.8769 21.7999Q18.885 21.8149 18.8929 21.8299Q19.1658 22.3507 19.1658 23.0146Q19.1658 23.1879 19.1456 23.3589Q19.0486 24.179 18.4865 24.9441Q17.7357 25.9079 16.1653 27.37Q13.805 29.5617 12.5631 31.4247ZM18.8567 25.2243C18.3411 25.8872 17.5493 26.7159 16.4812 27.7102Q14.161 29.8647 12.9457 31.6877C12.2046 32.7657 11.8024 34.1209 11.7392 35.7534C11.7333 35.9057 11.7303 36.0605 11.7303 36.2176L21.5636 36.2176C21.5636 35.2233 21.8582 34.3578 22.4475 33.6212C23.0367 32.8478 23.9574 31.9271 25.2096 30.8591C26.3513 29.8647 27.272 28.9808 27.9718 28.2074C28.7083 27.3972 29.3344 26.4212 29.85 25.2795C30.3656 24.101 30.6234 22.7568 30.6234 21.2468C30.6234 17.9691 29.2792 15.4279 26.5907 13.6233Q22.6132 10.8611 16.0393 10.8611Q10.1835 10.8611 6.04031 13.0156Q3.41581 14.3803 1.54497 16.4322Q0.615994 17.4511 -0.127155 18.6394Q-0.250058 18.8359 -0.367877 19.0371L0.0414287 19.2568L7.86333 23.4565C8.5999 22.2043 9.55744 21.2284 10.736 20.5286C11.9513 19.8289 13.2955 19.479 14.7687 19.479Q16.9232 19.479 18.249 20.4734Q19.0051 20.9875 19.3472 21.7004Q19.6301 22.2896 19.6301 23.0146C19.6301 23.788 19.3723 24.5246 18.8567 25.2243ZM13.1393 50.423Q14.6594 51.266 16.647 51.266Q18.7545 51.266 20.3305 50.3507Q20.9572 49.9867 21.4999 49.4779Q22.4907 48.5181 22.9673 47.3487Q23.4089 46.265 23.4089 45.0013Q23.4089 43.5003 22.8118 42.2951Q22.3381 41.3391 21.4886 40.5693Q21.0248 40.1489 20.4989 39.8312Q18.8703 38.847 16.647 38.847Q14.4384 38.847 12.8136 39.821Q12.2746 40.144 11.7999 40.5743Q11.0274 41.2969 10.5758 42.1831Q9.94026 43.4302 9.94026 45.0013Q9.94026 46.2526 10.3746 47.3287Q10.8521 48.5119 11.8548 49.4832Q12.4488 50.0401 13.1393 50.423ZM12.1723 49.1445C13.3508 50.2494 14.8424 50.8018 16.647 50.8018C18.4884 50.8018 19.9984 50.2494 21.1769 49.1445C22.3554 48.0028 22.9447 46.6217 22.9447 45.0013Q22.9447 43.603 22.3853 42.4843Q21.9503 41.6142 21.1769 40.9133Q20.7748 40.5489 20.3212 40.2674Q18.7808 39.3113 16.647 39.3113Q14.5131 39.3113 12.9727 40.2674Q12.5191 40.5489 12.117 40.9133Q11.4177 41.5676 11.0039 42.3692Q10.4045 43.5306 10.4045 45.0013C10.4045 46.6217 10.9938 48.0028 12.1723 49.1445Z" fill="rgb(32,32,39)" fill-rule="evenodd" transform="matrix(0.984808,0.173648,-0.174411,0.984673,59.335,91.9231)" />
				</g>
				<g id="Frame 2043683112" customFrame="url(#clipPath_88)">
					<rect id="Frame 2043683112" width="96.603348" height="128.804474" x="0.000000" y="0.000000" rx="20.000000" fill="rgb(188,236,48)" transform="matrix(0.984808,0.173648,-0.174411,0.984673,134.65,70.7781)" />
					<rect id="Frame 2043683112" width="96.103348" height="128.304474" x="0.250000" y="0.250000" rx="19.750000" stroke="rgb(32,32,39)" stroke-width="0.5" transform="matrix(0.984808,0.173648,-0.174411,0.984673,134.65,70.7781)" />
					<path id="?" d="M9.65207 29.1127C9.65207 27.6271 9.9789 26.409 10.6326 25.4582C11.2862 24.4777 12.237 23.4081 13.4849 22.2494C14.3465 21.4471 14.9853 20.7786 15.4012 20.2438C15.8172 19.6793 16.0252 19.0851 16.0252 18.4611C16.0252 17.5995 15.6538 16.9161 14.911 16.411C14.1979 15.8762 13.262 15.6088 12.1033 15.6088C10.9148 15.6088 9.83034 15.8911 8.84986 16.4556C7.89909 17.0201 7.12659 17.8075 6.53236 18.8177L-0.108156 15.2523C1.11002 13.1725 2.83328 11.5532 5.06164 10.3945C7.29001 9.23572 9.9789 8.65634 13.1283 8.65634C16.664 8.65634 19.5014 9.39913 21.6407 10.8847C23.8096 12.3406 24.8941 14.3907 24.8941 17.035C24.8941 18.2532 24.6861 19.3376 24.2701 20.2884C23.8542 21.2094 23.3491 21.9968 22.7548 22.6505C22.1903 23.2744 21.4475 23.9875 20.5265 24.7897C19.5163 25.6513 18.7735 26.3941 18.2981 27.018C17.8227 27.6123 17.585 28.3105 17.585 29.1127L9.65207 29.1127ZM13.6186 40.8785C12.1627 40.8785 10.9594 40.4328 10.0086 39.5414C9.05784 38.6204 8.58246 37.5062 8.58246 36.1989C8.58246 34.8619 9.04298 33.7626 9.96404 32.9009C10.9148 32.0393 12.133 31.6085 13.6186 31.6085C15.1041 31.6085 16.3223 32.0393 17.2731 32.9009C18.2238 33.7626 18.6992 34.8619 18.6992 36.1989C18.6992 37.5062 18.2238 38.6204 17.2731 39.5414C16.3223 40.4328 15.1041 40.8785 13.6186 40.8785Z" fill="rgb(255,255,255)" fill-rule="nonzero" transform="matrix(0.984808,0.173648,-0.174411,0.984673,161.963,116.112)" />
					<path id="?" d="M10.25 25.1952Q9.18783 26.7402 9.18783 29.1127L9.18783 29.577L18.0493 29.577L18.0493 29.1127Q18.0493 28.4482 18.2987 27.8963Q18.4397 27.5842 18.6606 27.3081L18.664 27.3038L18.6674 27.2994Q19.3503 26.403 20.8314 25.1398Q22.2338 23.9183 23.0984 22.9627Q24.0391 21.9279 24.6954 20.4745Q25.3583 18.9593 25.3583 17.035Q25.3583 14.9365 24.4911 13.2971Q24.4339 13.1891 24.3731 13.0832Q23.51 11.5804 21.9055 10.5034Q18.5772 8.1921 13.1283 8.1921Q8.2907 8.1921 4.84747 9.98258Q2.67097 11.1144 1.11382 12.8137Q0.194629 13.8168 -0.508743 15.0177L-0.752245 15.4334L6.70613 19.4379L6.93251 19.0531Q7.56747 17.9736 8.48705 17.262Q8.77073 17.0425 9.0815 16.8579Q9.49494 16.6199 9.93556 16.454Q10.9477 16.0731 12.1033 16.0731Q13.6866 16.0731 14.6325 16.7824L14.6411 16.7889L14.65 16.7949Q15.114 17.1105 15.3387 17.5241Q15.3407 17.5277 15.3427 17.5313Q15.5609 17.9376 15.5609 18.4611Q15.5609 18.5876 15.547 18.7126Q15.4751 19.3588 15.031 19.9636Q14.4298 20.7353 13.169 21.9092Q11.2571 23.6845 10.25 25.1952ZM15.4012 20.2438C14.9853 20.7786 14.3465 21.4471 13.4849 22.2494Q11.613 23.9875 10.6326 25.4582C10.0483 26.308 9.72517 27.3714 9.66313 28.6485C9.65576 28.8002 9.65207 28.9549 9.65207 29.1127L17.585 29.1127C17.585 28.3105 17.8227 27.6123 18.2981 27.018C18.7735 26.3941 19.5163 25.6513 20.5265 24.7897Q21.9081 23.5864 22.7548 22.6505C23.3491 21.9968 23.8542 21.2094 24.2701 20.2884Q24.8941 18.8622 24.8941 17.035C24.8941 14.3907 23.8096 12.3406 21.6407 10.8847Q18.4318 8.65634 13.1283 8.65634Q8.40419 8.65634 5.06164 10.3945Q2.94434 11.4955 1.43504 13.1508Q0.715408 13.9401 0.134 14.8554Q0.00976608 15.051 -0.108156 15.2523L0.301152 15.4721L6.53236 18.8177Q7.18457 17.7089 8.12312 16.9581Q8.46724 16.6828 8.84986 16.4556C9.83034 15.8911 10.9148 15.6088 12.1033 15.6088C13.262 15.6088 14.1979 15.8762 14.911 16.411C15.6538 16.9161 16.0252 17.5995 16.0252 18.4611C16.0252 19.0851 15.8172 19.6793 15.4012 20.2438ZM10.7547 40.6568Q11.9973 41.3427 13.6186 41.3427Q15.3337 41.3427 16.6208 40.6005Q17.1438 40.2989 17.5961 39.8749Q18.4091 39.0873 18.8004 38.1278Q19.1635 37.2374 19.1635 36.1989Q19.1635 34.9681 18.6744 33.9791Q18.2848 33.1913 17.5848 32.5569Q17.1986 32.2069 16.7602 31.9436Q15.4295 31.1442 13.6186 31.1442Q11.8224 31.1442 10.4956 31.9334Q10.0441 32.2019 9.64689 32.5619Q9.00958 33.1581 8.63796 33.8893Q8.11821 34.912 8.11821 36.1989Q8.11821 37.2251 8.47403 38.1079Q8.86631 39.0812 9.69109 39.8801Q10.1828 40.3411 10.7547 40.6568ZM10.0086 39.5414C10.9594 40.4328 12.1627 40.8785 13.6186 40.8785C15.1041 40.8785 16.3223 40.4328 17.2731 39.5414Q18.0154 38.8223 18.3714 37.9461Q18.6992 37.1391 18.6992 36.1989C18.6992 34.8619 18.2238 33.7626 17.2731 32.9009Q16.9487 32.6069 16.5828 32.3798Q15.34 31.6085 13.6186 31.6085Q11.8971 31.6085 10.6544 32.3798Q10.2884 32.6069 9.96404 32.9009C9.04298 33.7626 8.58246 34.8619 8.58246 36.1989Q8.58246 37.1391 8.91031 37.9461Q9.26625 38.8223 10.0086 39.5414Z" fill="rgb(32,32,39)" fill-rule="evenodd" transform="matrix(0.984808,0.173648,-0.174411,0.984673,161.963,116.112)" />
				</g>
				<g id="Frame 2043683098" customFrame="url(#clipPath_89)">
					<rect id="Frame 2043683098" width="96.603348" height="128.804474" x="0.000000" y="0.000000" rx="20.000000" fill="rgb(188,236,48)" transform="matrix(0.984808,0.173648,-0.174411,0.984673,235.37,88.5376)" />
					<rect id="Frame 2043683098" width="96.103348" height="128.304474" x="0.250000" y="0.250000" rx="19.750000" stroke="rgb(32,32,39)" stroke-width="0.5" transform="matrix(0.984808,0.173648,-0.174411,0.984673,235.37,88.5376)" />
					<path id="?" d="M11.7303 36.2176C11.7303 34.3762 12.1354 32.8662 12.9457 31.6877C13.7559 30.4724 14.9344 29.1465 16.4812 27.7102C17.5493 26.7159 18.3411 25.8872 18.8567 25.2243C19.3723 24.5246 19.6301 23.788 19.6301 23.0146C19.6301 21.9466 19.1697 21.0995 18.249 20.4734C17.3651 19.8105 16.205 19.479 14.7687 19.479C13.2955 19.479 11.9513 19.8289 10.736 20.5286C9.55744 21.2284 8.5999 22.2043 7.86332 23.4565L-0.367877 19.0371C1.1421 16.4591 3.27816 14.4519 6.04031 13.0156C8.80245 11.5793 12.1354 10.8611 16.0393 10.8611C20.4219 10.8611 23.939 11.7818 26.5907 13.6233C29.2792 15.4279 30.6234 17.9691 30.6234 21.2468C30.6234 22.7568 30.3656 24.101 29.85 25.2795C29.3344 26.4212 28.7083 27.3972 27.9718 28.2074C27.272 28.9808 26.3513 29.8647 25.2096 30.8591C23.9574 31.9271 23.0367 32.8478 22.4475 33.6212C21.8582 34.3578 21.5636 35.2233 21.5636 36.2176L11.7303 36.2176ZM16.647 50.8018C14.8424 50.8018 13.3508 50.2494 12.1723 49.1445C10.9938 48.0028 10.4045 46.6217 10.4045 45.0013C10.4045 43.344 10.9753 41.9813 12.117 40.9133C13.2955 39.8453 14.8055 39.3113 16.647 39.3113C18.4884 39.3113 19.9984 39.8453 21.1769 40.9133C22.3554 41.9813 22.9447 43.344 22.9447 45.0013C22.9447 46.6217 22.3554 48.0028 21.1769 49.1445C19.9984 50.2494 18.4884 50.8018 16.647 50.8018Z" fill="rgb(255,255,255)" fill-rule="nonzero" transform="matrix(0.984808,0.173648,-0.174411,0.984673,260.775,127.443)" />
					<path id="?" d="M12.5631 31.4247Q11.2661 33.3113 11.2661 36.2176L11.2661 36.6819L22.0278 36.6819L22.0278 36.2176Q22.0278 35.3745 22.3428 34.6727Q22.5241 34.2685 22.81 33.9112L22.8134 33.9069L22.8167 33.9026Q23.6705 32.7821 25.5145 31.2092Q27.2479 29.6995 28.3153 28.5197Q29.4695 27.25 30.2753 25.4656Q31.0877 23.6089 31.0877 21.2468Q31.0877 18.6733 30.0256 16.6655Q29.9632 16.5476 29.8972 16.4317Q28.8391 14.5734 26.8555 13.242Q22.7586 10.3969 16.0393 10.3969Q10.07 10.3969 5.82613 12.6037Q3.14242 13.9992 1.22372 16.0951Q0.0953376 17.3277 -0.768464 18.8025L-1.01197 19.2182L8.03709 24.0767L8.26347 23.6919Q9.05468 22.3468 10.1991 21.4551Q10.5653 21.1699 10.9676 20.931Q11.4927 20.6286 12.0526 20.4188Q13.3215 19.9433 14.7687 19.9433Q16.7684 19.9433 17.9705 20.8448L17.9791 20.8513L17.988 20.8573Q18.5854 21.2636 18.8769 21.7999Q18.885 21.8149 18.8929 21.8299Q19.1658 22.3507 19.1658 23.0146Q19.1658 23.1879 19.1456 23.3589Q19.0486 24.179 18.4865 24.9441Q17.7357 25.9079 16.1653 27.37Q13.805 29.5617 12.5631 31.4247ZM18.8567 25.2243C18.3411 25.8872 17.5493 26.7159 16.4812 27.7102Q14.161 29.8647 12.9457 31.6877C12.2046 32.7657 11.8024 34.1209 11.7392 35.7534C11.7333 35.9057 11.7303 36.0605 11.7303 36.2176L21.5636 36.2176C21.5636 35.2233 21.8582 34.3578 22.4475 33.6212C23.0367 32.8478 23.9574 31.9271 25.2096 30.8591C26.3513 29.8647 27.272 28.9808 27.9718 28.2074C28.7083 27.3972 29.3344 26.4212 29.85 25.2795C30.3656 24.101 30.6234 22.7568 30.6234 21.2468C30.6234 17.9691 29.2792 15.4279 26.5907 13.6233Q22.6132 10.8611 16.0393 10.8611Q10.1835 10.8611 6.04031 13.0156Q3.41581 14.3803 1.54497 16.4322Q0.615994 17.4511 -0.127155 18.6394Q-0.250058 18.8359 -0.367877 19.0371L0.0414287 19.2568L7.86333 23.4565C8.5999 22.2043 9.55744 21.2284 10.736 20.5286C11.9513 19.8289 13.2955 19.479 14.7687 19.479Q16.9232 19.479 18.249 20.4734Q19.0051 20.9875 19.3472 21.7004Q19.6301 22.2896 19.6301 23.0146C19.6301 23.788 19.3723 24.5246 18.8567 25.2243ZM13.1393 50.423Q14.6594 51.266 16.647 51.266Q18.7545 51.266 20.3305 50.3507Q20.9572 49.9867 21.4999 49.4779Q22.4907 48.5181 22.9673 47.3487Q23.4089 46.265 23.4089 45.0013Q23.4089 43.5003 22.8118 42.2951Q22.3381 41.3391 21.4886 40.5693Q21.0248 40.1489 20.4989 39.8312Q18.8703 38.847 16.647 38.847Q14.4384 38.847 12.8136 39.821Q12.2746 40.144 11.7999 40.5743Q11.0274 41.2969 10.5758 42.1831Q9.94026 43.4302 9.94026 45.0013Q9.94026 46.2526 10.3746 47.3287Q10.8521 48.5119 11.8548 49.4832Q12.4488 50.0401 13.1393 50.423ZM12.1723 49.1445C13.3508 50.2494 14.8424 50.8018 16.647 50.8018C18.4884 50.8018 19.9984 50.2494 21.1769 49.1445C22.3554 48.0028 22.9447 46.6217 22.9447 45.0013Q22.9447 43.603 22.3853 42.4843Q21.9503 41.6142 21.1769 40.9133Q20.7748 40.5489 20.3212 40.2674Q18.7808 39.3113 16.647 39.3113Q14.5131 39.3113 12.9727 40.2674Q12.5191 40.5489 12.117 40.9133Q11.4177 41.5676 11.0039 42.3692Q10.4045 43.5306 10.4045 45.0013C10.4045 46.6217 10.9938 48.0028 12.1723 49.1445Z" fill="rgb(32,32,39)" fill-rule="evenodd" transform="matrix(0.984808,0.173648,-0.174411,0.984673,260.775,127.443)" />
				</g>
				<g id="Frame 2043683102" customFrame="url(#clipPath_90)">
					<rect id="Frame 2043683102" width="96.603348" height="128.804474" x="0.000000" y="0.000000" rx="20.000000" fill="rgb(188,236,48)" transform="matrix(0.984808,0.173648,-0.174411,0.984673,336.09,106.297)" />
					<rect id="Frame 2043683102" width="96.103348" height="128.304474" x="0.250000" y="0.250000" rx="19.750000" stroke="rgb(32,32,39)" stroke-width="0.5" transform="matrix(0.984808,0.173648,-0.174411,0.984673,336.09,106.297)" />
					<path id="?" d="M9.65207 29.1127C9.65207 27.6271 9.9789 26.409 10.6326 25.4582C11.2862 24.4777 12.237 23.4081 13.4849 22.2494C14.3465 21.4471 14.9853 20.7786 15.4012 20.2438C15.8172 19.6793 16.0252 19.0851 16.0252 18.4611C16.0252 17.5995 15.6538 16.9161 14.911 16.411C14.1979 15.8762 13.262 15.6088 12.1033 15.6088C10.9148 15.6088 9.83034 15.8911 8.84986 16.4556C7.89909 17.0201 7.12659 17.8075 6.53236 18.8177L-0.108156 15.2523C1.11002 13.1725 2.83328 11.5532 5.06164 10.3945C7.29001 9.23572 9.9789 8.65634 13.1283 8.65634C16.664 8.65634 19.5014 9.39913 21.6407 10.8847C23.8096 12.3406 24.8941 14.3907 24.8941 17.035C24.8941 18.2532 24.6861 19.3376 24.2701 20.2884C23.8542 21.2094 23.3491 21.9968 22.7548 22.6505C22.1903 23.2744 21.4475 23.9875 20.5265 24.7897C19.5163 25.6513 18.7735 26.3941 18.2981 27.018C17.8227 27.6123 17.585 28.3105 17.585 29.1127L9.65207 29.1127ZM13.6186 40.8785C12.1627 40.8785 10.9594 40.4328 10.0086 39.5414C9.05784 38.6204 8.58246 37.5062 8.58246 36.1989C8.58246 34.8619 9.04298 33.7626 9.96404 32.9009C10.9148 32.0393 12.133 31.6085 13.6186 31.6085C15.1041 31.6085 16.3223 32.0393 17.2731 32.9009C18.2238 33.7626 18.6992 34.8619 18.6992 36.1989C18.6992 37.5062 18.2238 38.6204 17.2731 39.5414C16.3223 40.4328 15.1041 40.8785 13.6186 40.8785Z" fill="rgb(255,255,255)" fill-rule="nonzero" transform="matrix(0.984808,0.173648,-0.174411,0.984673,363.404,151.631)" />
					<path id="?" d="M10.25 25.1952Q9.18783 26.7402 9.18783 29.1127L9.18783 29.577L18.0493 29.577L18.0493 29.1127Q18.0493 28.4482 18.2987 27.8963Q18.4397 27.5842 18.6606 27.3081L18.664 27.3038L18.6674 27.2994Q19.3503 26.403 20.8314 25.1398Q22.2338 23.9183 23.0984 22.9627Q24.0391 21.9279 24.6954 20.4745Q25.3583 18.9593 25.3583 17.035Q25.3583 14.9365 24.4911 13.2971Q24.4339 13.1891 24.3731 13.0832Q23.51 11.5804 21.9055 10.5034Q18.5772 8.1921 13.1283 8.1921Q8.2907 8.1921 4.84747 9.98258Q2.67097 11.1144 1.11382 12.8137Q0.194629 13.8168 -0.508743 15.0177L-0.752245 15.4334L6.70613 19.4379L6.93251 19.0531Q7.56747 17.9736 8.48705 17.262Q8.77073 17.0425 9.0815 16.8579Q9.49494 16.6199 9.93556 16.454Q10.9477 16.0731 12.1033 16.0731Q13.6866 16.0731 14.6325 16.7824L14.6411 16.7889L14.65 16.7949Q15.114 17.1105 15.3387 17.5241Q15.3407 17.5277 15.3427 17.5313Q15.5609 17.9376 15.5609 18.4611Q15.5609 18.5876 15.547 18.7126Q15.4751 19.3588 15.031 19.9636Q14.4298 20.7353 13.169 21.9092Q11.2571 23.6845 10.25 25.1952ZM15.4012 20.2438C14.9853 20.7786 14.3465 21.4471 13.4849 22.2494Q11.613 23.9875 10.6326 25.4582C10.0483 26.308 9.72517 27.3714 9.66313 28.6485C9.65576 28.8002 9.65207 28.9549 9.65207 29.1127L17.585 29.1127C17.585 28.3105 17.8227 27.6123 18.2981 27.018C18.7735 26.3941 19.5163 25.6513 20.5265 24.7897Q21.9081 23.5864 22.7548 22.6505C23.3491 21.9968 23.8542 21.2094 24.2701 20.2884Q24.8941 18.8622 24.8941 17.035C24.8941 14.3907 23.8096 12.3406 21.6407 10.8847Q18.4318 8.65634 13.1283 8.65634Q8.40419 8.65634 5.06164 10.3945Q2.94434 11.4955 1.43504 13.1508Q0.715408 13.9401 0.134 14.8554Q0.00976608 15.051 -0.108156 15.2523L0.301152 15.4721L6.53236 18.8177Q7.18457 17.7089 8.12312 16.9581Q8.46724 16.6828 8.84986 16.4556C9.83034 15.8911 10.9148 15.6088 12.1033 15.6088C13.262 15.6088 14.1979 15.8762 14.911 16.411C15.6538 16.9161 16.0252 17.5995 16.0252 18.4611C16.0252 19.0851 15.8172 19.6793 15.4012 20.2438ZM10.7547 40.6568Q11.9973 41.3427 13.6186 41.3427Q15.3337 41.3427 16.6208 40.6005Q17.1438 40.2989 17.5961 39.8749Q18.4091 39.0873 18.8004 38.1278Q19.1635 37.2374 19.1635 36.1989Q19.1635 34.9681 18.6744 33.9791Q18.2848 33.1913 17.5848 32.5569Q17.1986 32.2069 16.7602 31.9436Q15.4295 31.1442 13.6186 31.1442Q11.8224 31.1442 10.4956 31.9334Q10.0441 32.2019 9.64689 32.5619Q9.00958 33.1581 8.63796 33.8893Q8.11821 34.912 8.11821 36.1989Q8.11821 37.2251 8.47403 38.1079Q8.86631 39.0812 9.69109 39.8801Q10.1828 40.3411 10.7547 40.6568ZM10.0086 39.5414C10.9594 40.4328 12.1627 40.8785 13.6186 40.8785C15.1041 40.8785 16.3223 40.4328 17.2731 39.5414Q18.0154 38.8223 18.3714 37.9461Q18.6992 37.1391 18.6992 36.1989C18.6992 34.8619 18.2238 33.7626 17.2731 32.9009Q16.9487 32.6069 16.5828 32.3798Q15.34 31.6085 13.6186 31.6085Q11.8971 31.6085 10.6544 32.3798Q10.2884 32.6069 9.96404 32.9009C9.04298 33.7626 8.58246 34.8619 8.58246 36.1989Q8.58246 37.1391 8.91031 37.9461Q9.26625 38.8223 10.0086 39.5414Z" fill="rgb(32,32,39)" fill-rule="evenodd" transform="matrix(0.984808,0.173648,-0.174411,0.984673,363.404,151.631)" />
				</g>
			</g>
			<g id="Frame 2043683110" customFrame="url(#clipPath_91)">
				<rect id="Frame 2043683110" width="505.799042" height="128.804428" x="0.000000" y="0.000000" transform="matrix(0.984808,0.173648,-0.173648,0.984808,-90.2231,167.575)" />
				<g id="Frame 2043683109" customFrame="url(#clipPath_92)">
					<rect id="Frame 2043683109" width="96.603348" height="128.804474" x="0.000000" y="0.000000" rx="20.000000" fill="rgb(188,236,48)" transform="matrix(0.984808,0.173648,-0.174411,0.984673,-90.125,167.593)" />
					<rect id="Frame 2043683109" width="96.103348" height="128.304474" x="0.250000" y="0.250000" rx="19.750000" stroke="rgb(32,32,39)" stroke-width="0.5" transform="matrix(0.984808,0.173648,-0.174411,0.984673,-90.125,167.593)" />
					<path id="?" d="M9.65207 29.1127C9.65207 27.6271 9.9789 26.409 10.6326 25.4582C11.2862 24.4777 12.237 23.4081 13.4849 22.2494C14.3465 21.4471 14.9853 20.7786 15.4012 20.2438C15.8172 19.6793 16.0252 19.0851 16.0252 18.4611C16.0252 17.5995 15.6538 16.9161 14.911 16.411C14.1979 15.8762 13.262 15.6088 12.1033 15.6088C10.9148 15.6088 9.83034 15.8911 8.84986 16.4556C7.89909 17.0201 7.12659 17.8075 6.53236 18.8177L-0.108156 15.2523C1.11002 13.1725 2.83328 11.5532 5.06164 10.3945C7.29001 9.23572 9.9789 8.65634 13.1283 8.65634C16.664 8.65634 19.5014 9.39913 21.6407 10.8847C23.8096 12.3406 24.8941 14.3907 24.8941 17.035C24.8941 18.2532 24.6861 19.3376 24.2701 20.2884C23.8542 21.2094 23.3491 21.9968 22.7548 22.6505C22.1903 23.2744 21.4475 23.9875 20.5265 24.7897C19.5163 25.6513 18.7735 26.3941 18.2981 27.018C17.8227 27.6123 17.585 28.3105 17.585 29.1127L9.65207 29.1127ZM13.6186 40.8785C12.1627 40.8785 10.9594 40.4328 10.0086 39.5414C9.05784 38.6204 8.58246 37.5062 8.58246 36.1989C8.58246 34.8619 9.04298 33.7626 9.96404 32.9009C10.9148 32.0393 12.133 31.6085 13.6186 31.6085C15.1041 31.6085 16.3223 32.0393 17.2731 32.9009C18.2238 33.7626 18.6992 34.8619 18.6992 36.1989C18.6992 37.5062 18.2238 38.6204 17.2731 39.5414C16.3223 40.4328 15.1041 40.8785 13.6186 40.8785Z" fill="rgb(255,255,255)" fill-rule="nonzero" transform="matrix(0.984808,0.173648,-0.174411,0.984673,-62.811,212.926)" />
					<path id="?" d="M10.25 25.1952Q9.18783 26.7402 9.18783 29.1127L9.18783 29.577L18.0493 29.577L18.0493 29.1127Q18.0493 28.4482 18.2987 27.8963Q18.4397 27.5842 18.6606 27.3081L18.664 27.3038L18.6674 27.2994Q19.3503 26.403 20.8314 25.1398Q22.2338 23.9183 23.0984 22.9627Q24.0391 21.9279 24.6954 20.4745Q25.3583 18.9593 25.3583 17.035Q25.3583 14.9365 24.4911 13.2971Q24.4339 13.1891 24.3731 13.0832Q23.51 11.5804 21.9055 10.5034Q18.5772 8.1921 13.1283 8.1921Q8.2907 8.1921 4.84747 9.98258Q2.67097 11.1144 1.11382 12.8137Q0.194629 13.8168 -0.508743 15.0177L-0.752245 15.4334L6.70613 19.4379L6.93251 19.0531Q7.56747 17.9736 8.48705 17.262Q8.77073 17.0425 9.0815 16.8579Q9.49494 16.6199 9.93556 16.454Q10.9477 16.0731 12.1033 16.0731Q13.6866 16.0731 14.6325 16.7824L14.6411 16.7889L14.65 16.7949Q15.114 17.1105 15.3387 17.5241Q15.3407 17.5277 15.3427 17.5313Q15.5609 17.9376 15.5609 18.4611Q15.5609 18.5876 15.547 18.7126Q15.4751 19.3588 15.031 19.9636Q14.4298 20.7353 13.169 21.9092Q11.2571 23.6845 10.25 25.1952ZM15.4012 20.2438C14.9853 20.7786 14.3465 21.4471 13.4849 22.2494Q11.613 23.9875 10.6326 25.4582C10.0483 26.308 9.72517 27.3714 9.66313 28.6485C9.65576 28.8002 9.65207 28.9549 9.65207 29.1127L17.585 29.1127C17.585 28.3105 17.8227 27.6123 18.2981 27.018C18.7735 26.3941 19.5163 25.6513 20.5265 24.7897Q21.9081 23.5864 22.7548 22.6505C23.3491 21.9968 23.8542 21.2094 24.2701 20.2884Q24.8941 18.8622 24.8941 17.035C24.8941 14.3907 23.8096 12.3406 21.6407 10.8847Q18.4318 8.65634 13.1283 8.65634Q8.40419 8.65634 5.06164 10.3945Q2.94434 11.4955 1.43504 13.1508Q0.715408 13.9401 0.134 14.8554Q0.00976608 15.051 -0.108156 15.2523L0.301152 15.4721L6.53236 18.8177Q7.18457 17.7089 8.12312 16.9581Q8.46724 16.6828 8.84986 16.4556C9.83034 15.8911 10.9148 15.6088 12.1033 15.6088C13.262 15.6088 14.1979 15.8762 14.911 16.411C15.6538 16.9161 16.0252 17.5995 16.0252 18.4611C16.0252 19.0851 15.8172 19.6793 15.4012 20.2438ZM10.7547 40.6568Q11.9973 41.3427 13.6186 41.3427Q15.3337 41.3427 16.6208 40.6005Q17.1438 40.2989 17.5961 39.8749Q18.4091 39.0873 18.8004 38.1278Q19.1635 37.2374 19.1635 36.1989Q19.1635 34.9681 18.6744 33.9791Q18.2848 33.1913 17.5848 32.5569Q17.1986 32.2069 16.7602 31.9436Q15.4295 31.1442 13.6186 31.1442Q11.8224 31.1442 10.4956 31.9334Q10.0441 32.2019 9.64689 32.5619Q9.00958 33.1581 8.63796 33.8893Q8.11821 34.912 8.11821 36.1989Q8.11821 37.2251 8.47403 38.1079Q8.86631 39.0812 9.69109 39.8801Q10.1828 40.3411 10.7547 40.6568ZM10.0086 39.5414C10.9594 40.4328 12.1627 40.8785 13.6186 40.8785C15.1041 40.8785 16.3223 40.4328 17.2731 39.5414Q18.0154 38.8223 18.3714 37.9461Q18.6992 37.1391 18.6992 36.1989C18.6992 34.8619 18.2238 33.7626 17.2731 32.9009Q16.9487 32.6069 16.5828 32.3798Q15.34 31.6085 13.6186 31.6085Q11.8971 31.6085 10.6544 32.3798Q10.2884 32.6069 9.96404 32.9009C9.04298 33.7626 8.58246 34.8619 8.58246 36.1989Q8.58246 37.1391 8.91031 37.9461Q9.26625 38.8223 10.0086 39.5414Z" fill="rgb(32,32,39)" fill-rule="evenodd" transform="matrix(0.984808,0.173648,-0.174411,0.984673,-62.811,212.926)" />
				</g>
				<g id="Frame 2043683105" customFrame="url(#clipPath_93)">
					<rect id="Frame 2043683105" width="96.603348" height="128.804474" x="0.000000" y="0.000000" rx="20.000000" fill="rgb(188,236,48)" transform="matrix(0.984808,0.173648,-0.174411,0.984673,10.5957,185.352)" />
					<rect id="Frame 2043683105" width="96.103348" height="128.304474" x="0.250000" y="0.250000" rx="19.750000" stroke="rgb(32,32,39)" stroke-width="0.5" transform="matrix(0.984808,0.173648,-0.174411,0.984673,10.5957,185.352)" />
					<path id="?" d="M11.7303 36.2176C11.7303 34.3762 12.1354 32.8662 12.9457 31.6877C13.7559 30.4724 14.9344 29.1465 16.4812 27.7102C17.5493 26.7159 18.3411 25.8872 18.8567 25.2243C19.3723 24.5246 19.6301 23.788 19.6301 23.0146C19.6301 21.9466 19.1697 21.0995 18.249 20.4734C17.3651 19.8105 16.205 19.479 14.7687 19.479C13.2955 19.479 11.9513 19.8289 10.736 20.5286C9.55744 21.2284 8.5999 22.2043 7.86332 23.4565L-0.367877 19.0371C1.1421 16.4591 3.27816 14.4519 6.04031 13.0156C8.80245 11.5793 12.1354 10.8611 16.0393 10.8611C20.4219 10.8611 23.939 11.7818 26.5907 13.6233C29.2792 15.4279 30.6234 17.9691 30.6234 21.2468C30.6234 22.7568 30.3656 24.101 29.85 25.2795C29.3344 26.4212 28.7083 27.3972 27.9718 28.2074C27.272 28.9808 26.3513 29.8647 25.2096 30.8591C23.9574 31.9271 23.0367 32.8478 22.4475 33.6212C21.8582 34.3578 21.5636 35.2233 21.5636 36.2176L11.7303 36.2176ZM16.647 50.8018C14.8424 50.8018 13.3508 50.2494 12.1723 49.1445C10.9938 48.0028 10.4045 46.6217 10.4045 45.0013C10.4045 43.344 10.9753 41.9813 12.117 40.9133C13.2955 39.8453 14.8055 39.3113 16.647 39.3113C18.4884 39.3113 19.9984 39.8453 21.1769 40.9133C22.3554 41.9813 22.9447 43.344 22.9447 45.0013C22.9447 46.6217 22.3554 48.0028 21.1769 49.1445C19.9984 50.2494 18.4884 50.8018 16.647 50.8018Z" fill="rgb(255,255,255)" fill-rule="nonzero" transform="matrix(0.984808,0.173648,-0.174411,0.984673,36.001,224.257)" />
					<path id="?" d="M12.5631 31.4247Q11.2661 33.3113 11.2661 36.2176L11.2661 36.6819L22.0278 36.6819L22.0278 36.2176Q22.0278 35.3745 22.3428 34.6727Q22.5241 34.2685 22.81 33.9112L22.8134 33.9069L22.8167 33.9026Q23.6705 32.7821 25.5145 31.2092Q27.2479 29.6995 28.3153 28.5197Q29.4695 27.25 30.2753 25.4656Q31.0877 23.6089 31.0877 21.2468Q31.0877 18.6733 30.0256 16.6655Q29.9632 16.5476 29.8972 16.4317Q28.8391 14.5734 26.8555 13.242Q22.7586 10.3969 16.0393 10.3969Q10.07 10.3969 5.82613 12.6037Q3.14242 13.9992 1.22372 16.0951Q0.0953376 17.3277 -0.768464 18.8025L-1.01197 19.2182L8.03709 24.0767L8.26347 23.6919Q9.05468 22.3468 10.1991 21.4551Q10.5653 21.1699 10.9676 20.931Q11.4927 20.6286 12.0526 20.4188Q13.3215 19.9433 14.7687 19.9433Q16.7684 19.9433 17.9705 20.8448L17.9791 20.8513L17.988 20.8573Q18.5854 21.2636 18.8769 21.7999Q18.885 21.8149 18.8929 21.8299Q19.1658 22.3507 19.1658 23.0146Q19.1658 23.1879 19.1456 23.3589Q19.0486 24.179 18.4865 24.9441Q17.7357 25.9079 16.1653 27.37Q13.805 29.5617 12.5631 31.4247ZM18.8567 25.2243C18.3411 25.8872 17.5493 26.7159 16.4812 27.7102Q14.161 29.8647 12.9457 31.6877C12.2046 32.7657 11.8024 34.1209 11.7392 35.7534C11.7333 35.9057 11.7303 36.0605 11.7303 36.2176L21.5636 36.2176C21.5636 35.2233 21.8582 34.3578 22.4475 33.6212C23.0367 32.8478 23.9574 31.9271 25.2096 30.8591C26.3513 29.8647 27.272 28.9808 27.9718 28.2074C28.7083 27.3972 29.3344 26.4212 29.85 25.2795C30.3656 24.101 30.6234 22.7568 30.6234 21.2468C30.6234 17.9691 29.2792 15.4279 26.5907 13.6233Q22.6132 10.8611 16.0393 10.8611Q10.1835 10.8611 6.04031 13.0156Q3.41581 14.3803 1.54497 16.4322Q0.615994 17.4511 -0.127155 18.6394Q-0.250058 18.8359 -0.367877 19.0371L0.0414287 19.2568L7.86333 23.4565C8.5999 22.2043 9.55744 21.2284 10.736 20.5286C11.9513 19.8289 13.2955 19.479 14.7687 19.479Q16.9232 19.479 18.249 20.4734Q19.0051 20.9875 19.3472 21.7004Q19.6301 22.2896 19.6301 23.0146C19.6301 23.788 19.3723 24.5246 18.8567 25.2243ZM13.1393 50.423Q14.6594 51.266 16.647 51.266Q18.7545 51.266 20.3305 50.3507Q20.9572 49.9867 21.4999 49.4779Q22.4907 48.5181 22.9673 47.3487Q23.4089 46.265 23.4089 45.0013Q23.4089 43.5003 22.8118 42.2951Q22.3381 41.3391 21.4886 40.5693Q21.0248 40.1489 20.4989 39.8312Q18.8703 38.847 16.647 38.847Q14.4384 38.847 12.8136 39.821Q12.2746 40.144 11.7999 40.5743Q11.0274 41.2969 10.5758 42.1831Q9.94026 43.4302 9.94026 45.0013Q9.94026 46.2526 10.3746 47.3287Q10.8521 48.5119 11.8548 49.4832Q12.4488 50.0401 13.1393 50.423ZM12.1723 49.1445C13.3508 50.2494 14.8424 50.8018 16.647 50.8018C18.4884 50.8018 19.9984 50.2494 21.1769 49.1445C22.3554 48.0028 22.9447 46.6217 22.9447 45.0013Q22.9447 43.603 22.3853 42.4843Q21.9503 41.6142 21.1769 40.9133Q20.7748 40.5489 20.3212 40.2674Q18.7808 39.3113 16.647 39.3113Q14.5131 39.3113 12.9727 40.2674Q12.5191 40.5489 12.117 40.9133Q11.4177 41.5676 11.0039 42.3692Q10.4045 43.5306 10.4045 45.0013C10.4045 46.6217 10.9938 48.0028 12.1723 49.1445Z" fill="rgb(32,32,39)" fill-rule="evenodd" transform="matrix(0.984808,0.173648,-0.174411,0.984673,36.001,224.257)" />
				</g>
				<g id="Frame 2043683106" customFrame="url(#clipPath_94)">
					<rect id="Frame 2043683106" width="96.603348" height="128.804474" x="0.000000" y="0.000000" rx="20.000000" fill="rgb(188,236,48)" transform="matrix(0.984808,0.173648,-0.174411,0.984673,111.315,203.112)" />
					<rect id="Frame 2043683106" width="96.103348" height="128.304474" x="0.250000" y="0.250000" rx="19.750000" stroke="rgb(32,32,39)" stroke-width="0.5" transform="matrix(0.984808,0.173648,-0.174411,0.984673,111.315,203.112)" />
					<path id="?" d="M11.7303 36.2176C11.7303 34.3762 12.1354 32.8662 12.9457 31.6877C13.7559 30.4724 14.9344 29.1465 16.4812 27.7102C17.5493 26.7159 18.3411 25.8872 18.8567 25.2243C19.3723 24.5246 19.6301 23.788 19.6301 23.0146C19.6301 21.9466 19.1697 21.0995 18.249 20.4734C17.3651 19.8105 16.205 19.479 14.7687 19.479C13.2955 19.479 11.9513 19.8289 10.736 20.5286C9.55744 21.2284 8.5999 22.2043 7.86332 23.4565L-0.367877 19.0371C1.1421 16.4591 3.27816 14.4519 6.04031 13.0156C8.80245 11.5793 12.1354 10.8611 16.0393 10.8611C20.4219 10.8611 23.939 11.7818 26.5907 13.6233C29.2792 15.4279 30.6234 17.9691 30.6234 21.2468C30.6234 22.7568 30.3656 24.101 29.85 25.2795C29.3344 26.4212 28.7083 27.3972 27.9718 28.2074C27.272 28.9808 26.3513 29.8647 25.2096 30.8591C23.9574 31.9271 23.0367 32.8478 22.4475 33.6212C21.8582 34.3578 21.5636 35.2233 21.5636 36.2176L11.7303 36.2176ZM16.647 50.8018C14.8424 50.8018 13.3508 50.2494 12.1723 49.1445C10.9938 48.0028 10.4045 46.6217 10.4045 45.0013C10.4045 43.344 10.9753 41.9813 12.117 40.9133C13.2955 39.8453 14.8055 39.3113 16.647 39.3113C18.4884 39.3113 19.9984 39.8453 21.1769 40.9133C22.3554 41.9813 22.9447 43.344 22.9447 45.0013C22.9447 46.6217 22.3554 48.0028 21.1769 49.1445C19.9984 50.2494 18.4884 50.8018 16.647 50.8018Z" fill="rgb(255,255,255)" fill-rule="nonzero" transform="matrix(0.984808,0.173648,-0.174411,0.984673,136.721,242.017)" />
					<path id="?" d="M12.5631 31.4247Q11.2661 33.3113 11.2661 36.2176L11.2661 36.6819L22.0278 36.6819L22.0278 36.2176Q22.0278 35.3745 22.3428 34.6727Q22.5241 34.2685 22.81 33.9112L22.8134 33.9069L22.8167 33.9026Q23.6705 32.7821 25.5145 31.2092Q27.2479 29.6995 28.3153 28.5197Q29.4695 27.25 30.2753 25.4656Q31.0877 23.6089 31.0877 21.2468Q31.0877 18.6733 30.0256 16.6655Q29.9632 16.5476 29.8972 16.4317Q28.8391 14.5734 26.8555 13.242Q22.7586 10.3969 16.0393 10.3969Q10.07 10.3969 5.82613 12.6037Q3.14242 13.9992 1.22372 16.0951Q0.0953376 17.3277 -0.768464 18.8025L-1.01197 19.2182L8.03709 24.0767L8.26347 23.6919Q9.05468 22.3468 10.1991 21.4551Q10.5653 21.1699 10.9676 20.931Q11.4927 20.6286 12.0526 20.4188Q13.3215 19.9433 14.7687 19.9433Q16.7684 19.9433 17.9705 20.8448L17.9791 20.8513L17.988 20.8573Q18.5854 21.2636 18.8769 21.7999Q18.885 21.8149 18.8929 21.8299Q19.1658 22.3507 19.1658 23.0146Q19.1658 23.1879 19.1456 23.3589Q19.0486 24.179 18.4865 24.9441Q17.7357 25.9079 16.1653 27.37Q13.805 29.5617 12.5631 31.4247ZM18.8567 25.2243C18.3411 25.8872 17.5493 26.7159 16.4812 27.7102Q14.161 29.8647 12.9457 31.6877C12.2046 32.7657 11.8024 34.1209 11.7392 35.7534C11.7333 35.9057 11.7303 36.0605 11.7303 36.2176L21.5636 36.2176C21.5636 35.2233 21.8582 34.3578 22.4475 33.6212C23.0367 32.8478 23.9574 31.9271 25.2096 30.8591C26.3513 29.8647 27.272 28.9808 27.9718 28.2074C28.7083 27.3972 29.3344 26.4212 29.85 25.2795C30.3656 24.101 30.6234 22.7568 30.6234 21.2468C30.6234 17.9691 29.2792 15.4279 26.5907 13.6233Q22.6132 10.8611 16.0393 10.8611Q10.1835 10.8611 6.04031 13.0156Q3.41581 14.3803 1.54497 16.4322Q0.615994 17.4511 -0.127155 18.6394Q-0.250058 18.8359 -0.367877 19.0371L0.0414287 19.2568L7.86333 23.4565C8.5999 22.2043 9.55744 21.2284 10.736 20.5286C11.9513 19.8289 13.2955 19.479 14.7687 19.479Q16.9232 19.479 18.249 20.4734Q19.0051 20.9875 19.3472 21.7004Q19.6301 22.2896 19.6301 23.0146C19.6301 23.788 19.3723 24.5246 18.8567 25.2243ZM13.1393 50.423Q14.6594 51.266 16.647 51.266Q18.7545 51.266 20.3305 50.3507Q20.9572 49.9867 21.4999 49.4779Q22.4907 48.5181 22.9673 47.3487Q23.4089 46.265 23.4089 45.0013Q23.4089 43.5003 22.8118 42.2951Q22.3381 41.3391 21.4886 40.5693Q21.0248 40.1489 20.4989 39.8312Q18.8703 38.847 16.647 38.847Q14.4384 38.847 12.8136 39.821Q12.2746 40.144 11.7999 40.5743Q11.0274 41.2969 10.5758 42.1831Q9.94026 43.4302 9.94026 45.0013Q9.94026 46.2526 10.3746 47.3287Q10.8521 48.5119 11.8548 49.4832Q12.4488 50.0401 13.1393 50.423ZM12.1723 49.1445C13.3508 50.2494 14.8424 50.8018 16.647 50.8018C18.4884 50.8018 19.9984 50.2494 21.1769 49.1445C22.3554 48.0028 22.9447 46.6217 22.9447 45.0013Q22.9447 43.603 22.3853 42.4843Q21.9503 41.6142 21.1769 40.9133Q20.7748 40.5489 20.3212 40.2674Q18.7808 39.3113 16.647 39.3113Q14.5131 39.3113 12.9727 40.2674Q12.5191 40.5489 12.117 40.9133Q11.4177 41.5676 11.0039 42.3692Q10.4045 43.5306 10.4045 45.0013C10.4045 46.6217 10.9938 48.0028 12.1723 49.1445Z" fill="rgb(32,32,39)" fill-rule="evenodd" transform="matrix(0.984808,0.173648,-0.174411,0.984673,136.721,242.017)" />
				</g>
				<g id="Frame 2043683107" customFrame="url(#clipPath_95)">
					<rect id="Frame 2043683107" width="96.603348" height="128.804474" x="0.000000" y="0.000000" rx="20.000000" fill="rgb(188,236,48)" transform="matrix(0.984808,0.173648,-0.174411,0.984673,212.036,220.872)" />
					<rect id="Frame 2043683107" width="96.103348" height="128.304474" x="0.250000" y="0.250000" rx="19.750000" stroke="rgb(32,32,39)" stroke-width="0.5" transform="matrix(0.984808,0.173648,-0.174411,0.984673,212.036,220.872)" />
					<path id="?" d="M9.65207 29.1127C9.65207 27.6271 9.9789 26.409 10.6326 25.4582C11.2862 24.4777 12.237 23.4081 13.4849 22.2494C14.3465 21.4471 14.9853 20.7786 15.4012 20.2438C15.8172 19.6793 16.0252 19.0851 16.0252 18.4611C16.0252 17.5995 15.6538 16.9161 14.911 16.411C14.1979 15.8762 13.262 15.6088 12.1033 15.6088C10.9148 15.6088 9.83034 15.8911 8.84986 16.4556C7.89909 17.0201 7.12659 17.8075 6.53236 18.8177L-0.108156 15.2523C1.11002 13.1725 2.83328 11.5532 5.06164 10.3945C7.29001 9.23572 9.9789 8.65634 13.1283 8.65634C16.664 8.65634 19.5014 9.39913 21.6407 10.8847C23.8096 12.3406 24.8941 14.3907 24.8941 17.035C24.8941 18.2532 24.6861 19.3376 24.2701 20.2884C23.8542 21.2094 23.3491 21.9968 22.7548 22.6505C22.1903 23.2744 21.4475 23.9875 20.5265 24.7897C19.5163 25.6513 18.7735 26.3941 18.2981 27.018C17.8227 27.6123 17.585 28.3105 17.585 29.1127L9.65207 29.1127ZM13.6186 40.8785C12.1627 40.8785 10.9594 40.4328 10.0086 39.5414C9.05784 38.6204 8.58246 37.5062 8.58246 36.1989C8.58246 34.8619 9.04298 33.7626 9.96404 32.9009C10.9148 32.0393 12.133 31.6085 13.6186 31.6085C15.1041 31.6085 16.3223 32.0393 17.2731 32.9009C18.2238 33.7626 18.6992 34.8619 18.6992 36.1989C18.6992 37.5062 18.2238 38.6204 17.2731 39.5414C16.3223 40.4328 15.1041 40.8785 13.6186 40.8785Z" fill="rgb(255,255,255)" fill-rule="nonzero" transform="matrix(0.984808,0.173648,-0.174411,0.984673,239.35,266.206)" />
					<path id="?" d="M10.25 25.1952Q9.18783 26.7402 9.18783 29.1127L9.18783 29.577L18.0493 29.577L18.0493 29.1127Q18.0493 28.4482 18.2987 27.8963Q18.4397 27.5842 18.6606 27.3081L18.664 27.3038L18.6674 27.2994Q19.3503 26.403 20.8314 25.1398Q22.2338 23.9183 23.0984 22.9627Q24.0391 21.9279 24.6954 20.4745Q25.3583 18.9593 25.3583 17.035Q25.3583 14.9365 24.4911 13.2971Q24.4339 13.1891 24.3731 13.0832Q23.51 11.5804 21.9055 10.5034Q18.5772 8.1921 13.1283 8.1921Q8.2907 8.1921 4.84747 9.98258Q2.67097 11.1144 1.11382 12.8137Q0.194629 13.8168 -0.508743 15.0177L-0.752245 15.4334L6.70613 19.4379L6.93251 19.0531Q7.56747 17.9736 8.48705 17.262Q8.77073 17.0425 9.0815 16.8579Q9.49494 16.6199 9.93556 16.454Q10.9477 16.0731 12.1033 16.0731Q13.6866 16.0731 14.6325 16.7824L14.6411 16.7889L14.65 16.7949Q15.114 17.1105 15.3387 17.5241Q15.3407 17.5277 15.3427 17.5313Q15.5609 17.9376 15.5609 18.4611Q15.5609 18.5876 15.547 18.7126Q15.4751 19.3588 15.031 19.9636Q14.4298 20.7353 13.169 21.9092Q11.2571 23.6845 10.25 25.1952ZM15.4012 20.2438C14.9853 20.7786 14.3465 21.4471 13.4849 22.2494Q11.613 23.9875 10.6326 25.4582C10.0483 26.308 9.72517 27.3714 9.66313 28.6485C9.65576 28.8002 9.65207 28.9549 9.65207 29.1127L17.585 29.1127C17.585 28.3105 17.8227 27.6123 18.2981 27.018C18.7735 26.3941 19.5163 25.6513 20.5265 24.7897Q21.9081 23.5864 22.7548 22.6505C23.3491 21.9968 23.8542 21.2094 24.2701 20.2884Q24.8941 18.8622 24.8941 17.035C24.8941 14.3907 23.8096 12.3406 21.6407 10.8847Q18.4318 8.65634 13.1283 8.65634Q8.40419 8.65634 5.06164 10.3945Q2.94434 11.4955 1.43504 13.1508Q0.715408 13.9401 0.134 14.8554Q0.00976608 15.051 -0.108156 15.2523L0.301152 15.4721L6.53236 18.8177Q7.18457 17.7089 8.12312 16.9581Q8.46724 16.6828 8.84986 16.4556C9.83034 15.8911 10.9148 15.6088 12.1033 15.6088C13.262 15.6088 14.1979 15.8762 14.911 16.411C15.6538 16.9161 16.0252 17.5995 16.0252 18.4611C16.0252 19.0851 15.8172 19.6793 15.4012 20.2438ZM10.7547 40.6568Q11.9973 41.3427 13.6186 41.3427Q15.3337 41.3427 16.6208 40.6005Q17.1438 40.2989 17.5961 39.8749Q18.4091 39.0873 18.8004 38.1278Q19.1635 37.2374 19.1635 36.1989Q19.1635 34.9681 18.6744 33.9791Q18.2848 33.1913 17.5848 32.5569Q17.1986 32.2069 16.7602 31.9436Q15.4295 31.1442 13.6186 31.1442Q11.8224 31.1442 10.4956 31.9334Q10.0441 32.2019 9.64689 32.5619Q9.00958 33.1581 8.63796 33.8893Q8.11821 34.912 8.11821 36.1989Q8.11821 37.2251 8.47403 38.1079Q8.86631 39.0812 9.69109 39.8801Q10.1828 40.3411 10.7547 40.6568ZM10.0086 39.5414C10.9594 40.4328 12.1627 40.8785 13.6186 40.8785C15.1041 40.8785 16.3223 40.4328 17.2731 39.5414Q18.0154 38.8223 18.3714 37.9461Q18.6992 37.1391 18.6992 36.1989C18.6992 34.8619 18.2238 33.7626 17.2731 32.9009Q16.9487 32.6069 16.5828 32.3798Q15.34 31.6085 13.6186 31.6085Q11.8971 31.6085 10.6544 32.3798Q10.2884 32.6069 9.96404 32.9009C9.04298 33.7626 8.58246 34.8619 8.58246 36.1989Q8.58246 37.1391 8.91031 37.9461Q9.26625 38.8223 10.0086 39.5414Z" fill="rgb(32,32,39)" fill-rule="evenodd" transform="matrix(0.984808,0.173648,-0.174411,0.984673,239.35,266.206)" />
				</g>
				<g id="Frame 2043683108" customFrame="url(#clipPath_96)">
					<rect id="Frame 2043683108" width="96.603348" height="128.804474" x="0.000000" y="0.000000" rx="20.000000" fill="rgb(188,236,48)" transform="matrix(0.984808,0.173648,-0.174411,0.984673,312.756,238.631)" />
					<rect id="Frame 2043683108" width="96.103348" height="128.304474" x="0.250000" y="0.250000" rx="19.750000" stroke="rgb(32,32,39)" stroke-width="0.5" transform="matrix(0.984808,0.173648,-0.174411,0.984673,312.756,238.631)" />
					<path id="?" d="M9.65207 29.1127C9.65207 27.6271 9.9789 26.409 10.6326 25.4582C11.2862 24.4777 12.237 23.4081 13.4849 22.2494C14.3465 21.4471 14.9853 20.7786 15.4012 20.2438C15.8172 19.6793 16.0252 19.0851 16.0252 18.4611C16.0252 17.5995 15.6538 16.9161 14.911 16.411C14.1979 15.8762 13.262 15.6088 12.1033 15.6088C10.9148 15.6088 9.83034 15.8911 8.84986 16.4556C7.89909 17.0201 7.12659 17.8075 6.53236 18.8177L-0.108156 15.2523C1.11002 13.1725 2.83328 11.5532 5.06164 10.3945C7.29001 9.23572 9.9789 8.65634 13.1283 8.65634C16.664 8.65634 19.5014 9.39913 21.6407 10.8847C23.8096 12.3406 24.8941 14.3907 24.8941 17.035C24.8941 18.2532 24.6861 19.3376 24.2701 20.2884C23.8542 21.2094 23.3491 21.9968 22.7548 22.6505C22.1903 23.2744 21.4475 23.9875 20.5265 24.7897C19.5163 25.6513 18.7735 26.3941 18.2981 27.018C17.8227 27.6123 17.585 28.3105 17.585 29.1127L9.65207 29.1127ZM13.6186 40.8785C12.1627 40.8785 10.9594 40.4328 10.0086 39.5414C9.05784 38.6204 8.58246 37.5062 8.58246 36.1989C8.58246 34.8619 9.04298 33.7626 9.96404 32.9009C10.9148 32.0393 12.133 31.6085 13.6186 31.6085C15.1041 31.6085 16.3223 32.0393 17.2731 32.9009C18.2238 33.7626 18.6992 34.8619 18.6992 36.1989C18.6992 37.5062 18.2238 38.6204 17.2731 39.5414C16.3223 40.4328 15.1041 40.8785 13.6186 40.8785Z" fill="rgb(255,255,255)" fill-rule="nonzero" transform="matrix(0.984808,0.173648,-0.174411,0.984673,340.07,283.965)" />
					<path id="?" d="M10.25 25.1952Q9.18783 26.7402 9.18783 29.1127L9.18783 29.577L18.0493 29.577L18.0493 29.1127Q18.0493 28.4482 18.2987 27.8963Q18.4397 27.5842 18.6606 27.3081L18.664 27.3038L18.6674 27.2994Q19.3503 26.403 20.8314 25.1398Q22.2338 23.9183 23.0984 22.9627Q24.0391 21.9279 24.6954 20.4745Q25.3583 18.9593 25.3583 17.035Q25.3583 14.9365 24.4911 13.2971Q24.4339 13.1891 24.3731 13.0832Q23.51 11.5804 21.9055 10.5034Q18.5772 8.1921 13.1283 8.1921Q8.2907 8.1921 4.84747 9.98258Q2.67097 11.1144 1.11382 12.8137Q0.194629 13.8168 -0.508743 15.0177L-0.752245 15.4334L6.70613 19.4379L6.93251 19.0531Q7.56747 17.9736 8.48705 17.262Q8.77073 17.0425 9.0815 16.8579Q9.49494 16.6199 9.93556 16.454Q10.9477 16.0731 12.1033 16.0731Q13.6866 16.0731 14.6325 16.7824L14.6411 16.7889L14.65 16.7949Q15.114 17.1105 15.3387 17.5241Q15.3407 17.5277 15.3427 17.5313Q15.5609 17.9376 15.5609 18.4611Q15.5609 18.5876 15.547 18.7126Q15.4751 19.3588 15.031 19.9636Q14.4298 20.7353 13.169 21.9092Q11.2571 23.6845 10.25 25.1952ZM15.4012 20.2438C14.9853 20.7786 14.3465 21.4471 13.4849 22.2494Q11.613 23.9875 10.6326 25.4582C10.0483 26.308 9.72517 27.3714 9.66313 28.6485C9.65576 28.8002 9.65207 28.9549 9.65207 29.1127L17.585 29.1127C17.585 28.3105 17.8227 27.6123 18.2981 27.018C18.7735 26.3941 19.5163 25.6513 20.5265 24.7897Q21.9081 23.5864 22.7548 22.6505C23.3491 21.9968 23.8542 21.2094 24.2701 20.2884Q24.8941 18.8622 24.8941 17.035C24.8941 14.3907 23.8096 12.3406 21.6407 10.8847Q18.4318 8.65634 13.1283 8.65634Q8.40419 8.65634 5.06164 10.3945Q2.94434 11.4955 1.43504 13.1508Q0.715408 13.9401 0.134 14.8554Q0.00976608 15.051 -0.108156 15.2523L0.301152 15.4721L6.53236 18.8177Q7.18457 17.7089 8.12312 16.9581Q8.46724 16.6828 8.84986 16.4556C9.83034 15.8911 10.9148 15.6088 12.1033 15.6088C13.262 15.6088 14.1979 15.8762 14.911 16.411C15.6538 16.9161 16.0252 17.5995 16.0252 18.4611C16.0252 19.0851 15.8172 19.6793 15.4012 20.2438ZM10.7547 40.6568Q11.9973 41.3427 13.6186 41.3427Q15.3337 41.3427 16.6208 40.6005Q17.1438 40.2989 17.5961 39.8749Q18.4091 39.0873 18.8004 38.1278Q19.1635 37.2374 19.1635 36.1989Q19.1635 34.9681 18.6744 33.9791Q18.2848 33.1913 17.5848 32.5569Q17.1986 32.2069 16.7602 31.9436Q15.4295 31.1442 13.6186 31.1442Q11.8224 31.1442 10.4956 31.9334Q10.0441 32.2019 9.64689 32.5619Q9.00958 33.1581 8.63796 33.8893Q8.11821 34.912 8.11821 36.1989Q8.11821 37.2251 8.47403 38.1079Q8.86631 39.0812 9.69109 39.8801Q10.1828 40.3411 10.7547 40.6568ZM10.0086 39.5414C10.9594 40.4328 12.1627 40.8785 13.6186 40.8785C15.1041 40.8785 16.3223 40.4328 17.2731 39.5414Q18.0154 38.8223 18.3714 37.9461Q18.6992 37.1391 18.6992 36.1989C18.6992 34.8619 18.2238 33.7626 17.2731 32.9009Q16.9487 32.6069 16.5828 32.3798Q15.34 31.6085 13.6186 31.6085Q11.8971 31.6085 10.6544 32.3798Q10.2884 32.6069 9.96404 32.9009C9.04298 33.7626 8.58246 34.8619 8.58246 36.1989Q8.58246 37.1391 8.91031 37.9461Q9.26625 38.8223 10.0086 39.5414Z" fill="rgb(32,32,39)" fill-rule="evenodd" transform="matrix(0.984808,0.173648,-0.174411,0.984673,340.07,283.965)" />
				</g>
			</g>
		</g>
		<g id="Group 1597880560">
			<g id="Frame 2043683065" filter="url(#filter_2)" customFrame="url(#clipPath_97)">
				<rect id="Frame 2043683065" width="125.342880" height="167.123871" x="0.000000" y="0.000000" rx="20.000000" fill="rgb(225,255,143)" transform="matrix(0.984808,0.173648,-0.174411,0.984673,123.897,49.3428)" />
				<rect id="Frame 2043683065" width="125.842880" height="167.623871" x="-0.250000" y="-0.250000" rx="20.250000" stroke="rgb(32,32,39)" stroke-width="0.5" transform="matrix(0.984808,0.173648,-0.174411,0.984673,123.897,49.3428)" />
				<rect id="Frame 2043683065" width="125.842880" height="167.623871" x="-0.250000" y="-0.250000" rx="20.250000" stroke="rgb(0,0,0)" stroke-opacity="0.200000003" stroke-width="0.5" transform="matrix(0.984808,0.173648,-0.174411,0.984673,123.897,49.3428)" />
			</g>
			<path id="?" d="M15.6404 48.1235C15.6404 45.6683 16.1806 43.655 17.2609 42.0836C18.3412 40.4632 19.9126 38.6954 21.975 36.7803C23.399 35.4545 24.4548 34.3496 25.1422 33.4657C25.8297 32.5327 26.1734 31.5506 26.1734 30.5194C26.1734 29.0954 25.5596 27.966 24.332 27.1312C23.1535 26.2473 21.6067 25.8054 19.6916 25.8054C17.7274 25.8054 15.9351 26.2719 14.3146 27.2049C12.7433 28.1378 11.4665 29.4391 10.4844 31.1087L-0.490502 25.2161C1.5228 21.7788 4.37088 19.1026 8.05374 17.1875C11.7366 15.2724 16.1806 14.3148 21.3857 14.3148C27.2292 14.3148 31.9187 15.5425 35.4543 17.9977C39.0389 20.4038 40.8312 23.7921 40.8312 28.1624C40.8312 30.1757 40.4875 31.968 39.8 33.5394C39.1126 35.0616 38.2778 36.3629 37.2957 37.4432C36.3627 38.4744 35.1351 39.6529 33.6128 40.9788C31.9433 42.4028 30.7156 43.6304 29.93 44.6616C29.1443 45.6437 28.7514 46.7977 28.7514 48.1235L15.6404 48.1235ZM22.1959 67.5691C19.7898 67.5691 17.8011 66.8325 16.2297 65.3593C14.6583 63.8371 13.8727 61.9957 13.8727 59.835C13.8727 57.6253 14.6338 55.8084 16.156 54.3844C17.7274 52.9604 19.7407 52.2483 22.1959 52.2483C24.6512 52.2483 26.6645 52.9604 28.2358 54.3844C29.8072 55.8084 30.5929 57.6253 30.5929 59.835C30.5929 61.9957 29.8072 63.8371 28.2358 65.3593C26.6645 66.8325 24.6512 67.5691 22.1959 67.5691Z" fill="rgb(255,255,255)" fill-rule="nonzero" transform="matrix(0.984808,0.173648,-0.174411,0.984673,156.3,98.7126)" />
			<path id="?" d="M16.8489 41.8004Q15.1404 44.2854 15.1404 48.1235L15.1404 48.6235L29.2514 48.6235L29.2514 48.1235Q29.2514 46.9785 29.6776 46.0238Q29.9264 45.4665 30.3204 44.974L30.3241 44.9694L30.3277 44.9647Q31.4737 43.4605 33.9412 41.3558Q36.2471 39.3475 37.6657 37.7796Q39.192 36.1006 40.2581 33.7398Q41.3312 31.2869 41.3312 28.1624Q41.3312 24.7606 39.929 22.1097Q39.8547 21.9694 39.7767 21.8313Q38.3785 19.3584 35.7395 17.587Q30.3075 13.8148 21.3857 13.8148Q13.4558 13.8148 7.82307 16.7439Q4.25988 18.5967 1.71383 21.38Q0.221135 23.0118 -0.921944 24.9634L-1.1842 25.4112L10.6716 31.7767L10.9154 31.3622Q11.9748 29.5613 13.5055 28.3622Q14.0093 27.9676 14.5641 27.6382Q15.2779 27.2272 16.039 26.943Q17.7462 26.3054 19.6916 26.3054Q22.3976 26.3054 24.032 27.5312L24.0413 27.5382L24.0508 27.5447Q24.8713 28.1026 25.2738 28.8431Q25.2907 28.8743 25.307 28.9059Q25.6734 29.6185 25.6734 30.5194Q25.6734 30.7684 25.6432 31.0135Q25.5057 32.1273 24.7435 33.164Q23.7367 34.4569 21.6347 36.4139Q18.498 39.3266 16.8489 41.8004ZM25.1422 33.4657C24.4548 34.3496 23.399 35.4545 21.975 36.7803Q18.8814 39.6529 17.2609 42.0836Q15.7518 44.2787 15.6481 47.6235Q15.6404 47.8704 15.6404 48.1235L28.7514 48.1235C28.7514 46.7977 29.1443 45.6437 29.93 44.6616C30.7156 43.6304 31.9433 42.4028 33.6128 40.9788C35.1351 39.6529 36.3627 38.4744 37.2957 37.4432C38.2778 36.3629 39.1126 35.0616 39.8 33.5394C40.4875 31.968 40.8312 30.1757 40.8312 28.1624C40.8312 23.7921 39.0389 20.4038 35.4543 17.9977C31.9187 15.5425 27.2292 14.3148 21.3857 14.3148C16.1806 14.3148 11.7366 15.2724 8.05374 17.1875Q4.55442 19.0071 2.05996 21.743Q0.781836 23.1448 -0.232474 24.7871Q-0.3637 24.9996 -0.490502 25.2161L-0.0496718 25.4528L10.4844 31.1087C11.4665 29.4391 12.7433 28.1378 14.3146 27.2049C15.9351 26.2719 17.7274 25.8054 19.6916 25.8054Q22.5642 25.8054 24.332 27.1312C25.5596 27.966 26.1734 29.0954 26.1734 30.5194C26.1734 31.5506 25.8297 32.5327 25.1422 33.4657ZM17.5638 66.9525Q19.569 68.069 22.1959 68.0691Q24.9864 68.0691 27.0668 66.8536Q27.8794 66.3788 28.5837 65.7185Q29.8868 64.4561 30.5131 62.9182Q31.0929 61.4947 31.0929 59.835Q31.0929 57.86 30.3064 56.2752Q29.6847 55.0226 28.5716 54.0139Q27.969 53.4678 27.2864 53.0533Q25.1374 51.7483 22.1959 51.7483Q19.2704 51.7483 17.1254 53.0423Q16.4288 53.4625 15.8145 54.0193Q14.8033 54.9652 14.2108 56.1251Q13.3727 57.766 13.3727 59.835Q13.3727 61.4814 13.9445 62.8967Q14.572 64.4495 15.8877 65.7241Q16.663 66.4509 17.5638 66.9525ZM16.2297 65.3593C17.8011 66.8325 19.7898 67.5691 22.1959 67.5691C24.6512 67.5691 26.6645 66.8325 28.2358 65.3593Q29.4628 64.1708 30.051 62.7227Q30.5929 61.3889 30.5929 59.835C30.5929 57.6253 29.8072 55.8084 28.2358 54.3844Q27.6997 53.8985 27.0949 53.5231Q25.0411 52.2483 22.1959 52.2483Q19.3508 52.2483 17.2969 53.5232Q16.6922 53.8985 16.156 54.3844C14.6338 55.8084 13.8727 57.6253 13.8727 59.835Q13.8727 61.3889 14.4145 62.7227Q15.0028 64.1708 16.2297 65.3593Z" fill="rgb(32,32,39)" fill-rule="evenodd" transform="matrix(0.984808,0.173648,-0.174411,0.984673,156.3,98.7126)" />
		</g>
	</g>
</svg>
