<svg width="1156.904297" height="720.037109" viewBox="0 0 1156.9 720.037" fill="none" xmlns="http://www.w3.org/2000/svg" xmlns:xlink="http://www.w3.org/1999/xlink">
	<desc>
			Created with Pixso.
	</desc>
	<defs/>
	<rect id="Frame 2043683076" rx="29.500000" width="212.000000" height="125.000000" transform="translate(94.508301 0.517090) rotate(10.000001)" fill="#B0AEFF" fill-opacity="1.000000"/>
	<path id="рыс" d="M153.31 59.12Q150.58 57.44 147.18 56.84Q141.5 55.84 137.74 58.08Q137.03 58.5 136.39 59.03L136.99 55.63L125.59 53.62L117.37 100.01L129.34 102.12L132.05 86.86Q132.69 87.8 133.48 88.58Q136.26 91.32 140.93 92.14Q144.37 92.74 147.55 92.09Q148.68 91.86 149.78 91.46Q151.28 90.92 152.63 90.11Q155.04 88.66 156.92 86.34Q159.88 82.74 160.82 77.45Q161.75 72.15 160.22 67.76Q159.23 64.92 157.45 62.73Q156.48 61.53 155.26 60.52Q154.33 59.75 153.31 59.12ZM226.86 104.96Q230.94 108.01 236.6 109.01Q242.4 110.03 247.06 108.28Q249.79 107.26 251.79 105.45Q253.22 104.15 254.28 102.45L245.86 96.08Q243.88 98.71 241.38 99.37Q239.89 99.77 238.23 99.47Q236.3 99.13 234.9 98.08Q233.98 97.38 233.29 96.37Q233.1 96.08 232.94 95.79Q231.64 93.4 232.25 89.98Q232.83 86.68 234.79 84.92Q235.08 84.65 235.4 84.43Q236.36 83.74 237.43 83.41Q239.13 82.88 241.11 83.23Q242.77 83.52 244.03 84.4Q246.15 85.88 247.11 89.03L257.21 85.92Q256.8 83.96 255.9 82.25Q254.64 79.86 252.43 77.97Q248.66 74.74 242.85 73.71Q237.19 72.72 232.32 74.17Q228.91 75.18 226.32 77.22Q225.21 78.1 224.24 79.17Q223.5 80 222.89 80.91Q220.85 83.92 220.15 87.85Q219.47 91.7 220.3 95.18Q220.58 96.32 221.01 97.42Q221.55 98.77 222.3 100Q224.02 102.82 226.86 104.96ZM196.85 80.23Q193.98 76.66 187.25 75.41L179.62 74.07L181.49 63.48L169.58 61.38L163.53 95.54L181.56 98.72Q188.74 100.05 193.25 97.52Q194.79 96.66 195.92 95.43Q198.1 93.05 198.77 89.28Q199.52 85.05 197.98 81.97Q197.52 81.05 196.85 80.23ZM217.48 69.83L205.57 67.73L199.52 101.88L211.43 103.98L217.48 69.83ZM143.6 81.99Q141.98 82.5 140.1 82.17Q138.21 81.84 136.87 80.8Q135.97 80.1 135.31 79.09Q135.17 78.88 135.05 78.66Q133.73 76.25 134.35 72.78Q134.96 69.31 137.03 67.5Q137.22 67.33 137.42 67.18Q138.38 66.45 139.47 66.11Q141.09 65.59 142.97 65.92Q144.86 66.26 146.2 67.29Q147.1 67.99 147.76 69Q147.9 69.22 148.02 69.44Q149.34 71.85 148.72 75.31Q148.11 78.78 146.04 80.6Q145.85 80.76 145.65 80.91Q144.69 81.64 143.6 81.99ZM185.65 89.72Q184.31 90.76 181.81 90.32L176.9 89.37L178.32 81.37L183.25 82.24Q185.5 82.7 186.47 83.86Q186.58 83.99 186.67 84.13Q187.4 85.23 187.08 87.01Q186.75 88.86 185.65 89.72Z" fill="#FFFFFF" fill-opacity="1.000000" fill-rule="evenodd"/>
	<path id="рыс" d="M147.18 56.84Q151.85 57.67 155.26 60.52Q158.69 63.36 160.22 67.76Q161.75 72.15 160.82 77.45Q159.88 82.74 156.92 86.34Q153.98 89.95 149.78 91.46Q145.6 92.96 140.93 92.14Q134.93 91.08 132.05 86.86L129.34 102.12L117.37 100.01L125.59 53.62L136.99 55.63L136.39 59.03Q140.43 55.65 147.18 56.84ZM140.1 82.17Q143.25 82.73 145.65 80.91Q148.05 79.1 148.72 75.31Q149.39 71.53 147.76 69Q146.13 66.48 142.97 65.92Q139.82 65.37 137.42 67.18Q135.02 68.99 134.35 72.78Q133.68 76.56 135.31 79.09Q136.94 81.61 140.1 82.17ZM187.25 75.41Q193.98 76.66 196.85 80.23Q199.74 83.79 198.77 89.28Q197.76 95 193.25 97.52Q188.74 100.05 181.56 98.72L163.53 95.54L169.58 61.38L181.49 63.48L179.62 74.07L187.25 75.41ZM205.57 67.73L217.48 69.83L211.43 103.98L199.52 101.88L205.57 67.73ZM181.81 90.32Q186.35 91.12 187.08 87.01Q187.44 85 186.47 83.86Q185.5 82.7 183.25 82.24L178.32 81.37L176.9 89.37L181.81 90.32ZM236.6 109.01Q230.94 108.01 226.86 104.96Q222.79 101.89 221.01 97.42Q219.25 92.95 220.15 87.85Q221.06 82.74 224.24 79.17Q227.44 75.61 232.32 74.17Q237.19 72.72 242.85 73.71Q248.66 74.74 252.43 77.97Q256.22 81.21 257.21 85.92L247.11 89.03Q245.58 84.02 241.11 83.23Q237.89 82.66 235.4 84.43Q232.92 86.19 232.25 89.98Q231.56 93.82 233.29 96.37Q235.01 98.91 238.23 99.47Q242.71 100.26 245.86 96.08L254.28 102.45Q251.74 106.54 247.06 108.28Q242.4 110.03 236.6 109.01Z" stroke="#202027" stroke-opacity="1.000000" stroke-width="1.000000"/>
	<rect id="Frame 2043683076" rx="29.500000" width="212.000000" height="125.000000" transform="translate(94.508301 0.517090) rotate(10.000001)" stroke="#202027" stroke-opacity="1.000000" stroke-width="1.000000"/>
	<rect id="Frame 2043683071" rx="29.500000" width="302.000000" height="125.000000" transform="translate(316.186035 39.604736) rotate(10.000001)" fill="#B0AEFF" fill-opacity="1.000000"/>
	<path id="акшок" d="M373.69 100.78Q369.9 96.12 361.39 94.62Q361.16 94.57 360.92 94.54Q357.06 93.91 353.04 94.22Q348.79 94.54 345.63 95.93L348.22 104.78Q350.23 103.69 352.9 103.35Q355.56 103.01 358.01 103.44Q362.36 104.21 363.73 106.65Q364.54 108.1 364.29 110.14L357.49 108.94Q349.74 107.57 345.54 109.59Q343.76 110.45 342.58 111.83Q340.99 113.69 340.5 116.48Q340.09 118.74 340.59 120.78Q340.75 121.46 341.02 122.12Q341.11 122.34 341.2 122.54Q342.29 124.91 344.72 126.65Q347.39 128.54 351.36 129.24Q357.01 130.24 360.37 127.92Q361.48 127.16 362.33 126.04L361.55 130.45L372.71 132.42L376.07 113.45Q377.33 106.33 374.46 101.85Q374.11 101.29 373.69 100.78ZM491.93 152.01Q495.77 154.71 500.87 155.61Q506.28 156.56 510.99 155.17Q511.11 155.14 511.23 155.1Q514.49 154.09 516.99 152.11Q518.18 151.17 519.21 150Q519.96 149.14 520.59 148.2Q522.6 145.19 523.29 141.3Q523.99 137.33 523.09 133.77Q522.83 132.75 522.44 131.75Q521.88 130.33 521.08 129.04Q519.4 126.35 516.68 124.31Q516.63 124.27 516.57 124.23Q512.59 121.28 507.12 120.31Q501.58 119.34 496.8 120.81Q493.8 121.72 491.42 123.48Q490.01 124.52 488.81 125.86Q487.9 126.88 487.18 128.02Q485.37 130.89 484.73 134.5Q484.05 138.35 484.88 141.84Q485.15 142.97 485.59 144.07Q486.18 145.58 487.03 146.92Q488.71 149.57 491.38 151.6Q491.65 151.81 491.93 152.01ZM394.02 123.63L398.06 124.34L403.85 137.91L417.96 140.4L408.89 120.48L423.26 106.11L410.59 103.88L399.97 115L395.68 114.24L397.91 101.64L385.94 99.53L379.89 133.69L391.86 135.8L394.02 123.63ZM476.08 150.65L482.13 116.49L470.28 114.4L465.93 138.97L456.73 137.35L461.08 112.78L449.15 110.68L444.8 135.25L435.54 133.61L439.89 109.04L427.98 106.94L421.93 141.1L476.08 150.65ZM539.99 149.37L544.04 150.08L549.82 163.65L563.93 166.14L554.86 146.21L569.23 131.85L556.56 129.62L545.95 140.74L541.65 139.98L543.88 127.38L531.91 125.27L525.86 159.42L537.83 161.54L539.99 149.37ZM506.06 145.9Q504.45 146.42 502.56 146.08Q500.67 145.75 499.33 144.71Q498.43 144.02 497.77 143Q497.67 142.85 497.58 142.69Q496.18 140.24 496.82 136.63Q497.44 133.15 499.52 131.36Q499.7 131.21 499.89 131.06Q500.82 130.37 501.86 130.03Q503.51 129.5 505.44 129.84Q507.37 130.17 508.73 131.24Q509.59 131.92 510.23 132.89Q510.36 133.09 510.47 133.29Q511.81 135.68 511.19 139.16Q510.55 142.77 508.4 144.59Q508.26 144.71 508.11 144.82Q507.15 145.55 506.06 145.9ZM359.38 122.09Q357.84 122.58 356.04 122.26Q353.96 121.9 352.93 120.75Q352.46 120.21 352.27 119.59Q352.04 118.86 352.19 118.01Q352.37 116.96 352.99 116.31Q354.39 114.83 358.03 115.47L363.19 116.38L362.66 119.34Q361.89 120.7 360.73 121.46Q360.33 121.72 359.88 121.91Q359.63 122.01 359.38 122.09Z" fill="#FFFFFF" fill-opacity="1.000000" fill-rule="evenodd"/>
	<path id="акшок" d="M361.39 94.62Q369.9 96.12 373.69 100.78Q377.49 105.45 376.07 113.45L372.71 132.42L361.55 130.45L362.33 126.04Q358.87 130.57 351.36 129.24Q347.39 128.54 344.72 126.65Q342.08 124.75 341.02 122.12Q339.96 119.49 340.5 116.48Q341.36 111.61 345.54 109.59Q349.74 107.57 357.49 108.94L364.29 110.14Q364.95 104.67 358.01 103.44Q355.56 103.01 352.9 103.35Q350.23 103.69 348.22 104.78L345.63 95.93Q348.79 94.54 353.04 94.22Q357.3 93.89 361.39 94.62ZM356.04 122.26Q358.13 122.63 359.88 121.91Q361.63 121.17 362.66 119.34L363.19 116.38L358.03 115.47Q352.8 114.55 352.19 118.01Q351.91 119.58 352.93 120.75Q353.96 121.9 356.04 122.26ZM398.06 124.34L394.02 123.63L391.86 135.8L379.89 133.69L385.94 99.53L397.91 101.64L395.68 114.24L399.97 115L410.59 103.88L423.26 106.11L408.89 120.48L417.96 140.4L403.85 137.91L398.06 124.34ZM482.13 116.49L476.08 150.65L421.93 141.1L427.98 106.94L439.89 109.04L435.54 133.61L444.8 135.25L449.15 110.68L461.08 112.78L456.73 137.35L465.93 138.97L470.28 114.4L482.13 116.49ZM500.87 155.61Q495.39 154.64 491.38 151.6Q487.36 148.54 485.59 144.07Q483.82 139.61 484.73 134.5Q485.62 129.45 488.81 125.86Q492.02 122.27 496.8 120.81Q501.58 119.34 507.12 120.31Q512.66 121.29 516.68 124.31Q520.7 127.32 522.44 131.75Q524.19 136.19 523.29 141.3Q522.38 146.41 519.21 150Q516.05 153.6 511.23 155.1Q506.41 156.58 500.87 155.61ZM502.56 146.08Q505.71 146.64 508.11 144.82Q510.51 143.01 511.19 139.16Q511.86 135.38 510.23 132.89Q508.59 130.39 505.44 129.84Q502.28 129.28 499.89 131.06Q497.49 132.85 496.82 136.63Q496.14 140.48 497.77 143Q499.4 145.53 502.56 146.08ZM544.04 150.08L539.99 149.37L537.83 161.54L525.86 159.42L531.91 125.27L543.88 127.38L541.65 139.98L545.95 140.74L556.56 129.62L569.23 131.85L554.86 146.21L563.93 166.14L549.82 163.65L544.04 150.08Z" stroke="#202027" stroke-opacity="1.000000" stroke-width="1.000000"/>
	<rect id="Frame 2043683071" rx="29.500000" width="302.000000" height="125.000000" transform="translate(316.186035 39.604736) rotate(10.000001)" stroke="#202027" stroke-opacity="1.000000" stroke-width="1.000000"/>
	<rect id="Frame 2043683075" rx="29.500000" width="313.000000" height="125.000000" transform="translate(626.496582 94.320801) rotate(10.000001)" fill="#B0AEFF" fill-opacity="1.000000"/>
	<path id="агудар" d="M683.75 155.45Q679.96 150.79 671.45 149.29Q671.21 149.25 670.98 149.21Q667.11 148.58 663.09 148.89Q658.85 149.21 655.68 150.6L658.27 159.45Q660.29 158.36 662.95 158.02Q665.61 157.68 668.06 158.11Q672.42 158.88 673.78 161.32Q674.59 162.77 674.35 164.81L667.55 163.61Q659.79 162.24 655.59 164.26Q653.81 165.12 652.63 166.5Q651.04 168.36 650.55 171.15Q650.15 173.41 650.64 175.45Q650.81 176.13 651.07 176.79Q651.16 177.01 651.26 177.22Q652.35 179.58 654.78 181.32Q657.44 183.21 661.41 183.91Q667.07 184.91 670.43 182.59Q671.53 181.83 672.39 180.71L671.61 185.12L682.76 187.09L686.12 168.12Q687.38 161 684.52 156.52Q684.16 155.97 683.75 155.45ZM839.11 182.85Q835.32 178.18 826.81 176.68Q826.58 176.64 826.34 176.6Q822.47 175.98 818.46 176.29Q814.21 176.6 811.04 177.99L813.63 186.84Q815.65 185.76 818.31 185.42Q820.98 185.08 823.42 185.51Q827.78 186.28 829.14 188.72Q829.95 190.17 829.71 192.2L822.91 191Q815.15 189.64 810.96 191.66Q809.17 192.52 807.99 193.9Q806.41 195.75 805.91 198.54Q805.51 200.8 806.01 202.85Q806.17 203.53 806.44 204.19Q806.52 204.4 806.62 204.61Q807.71 206.97 810.14 208.71Q812.8 210.61 816.77 211.31Q822.43 212.31 825.79 209.98Q826.9 209.22 827.75 208.1L826.97 212.52L838.13 214.49L841.49 195.52Q842.75 188.39 839.88 183.91Q839.53 183.36 839.11 182.85ZM879.08 187.09Q876.35 185.42 872.96 184.82Q867.27 183.82 863.51 186.05Q862.8 186.47 862.16 187.01L862.76 183.61L851.36 181.6L843.14 227.98L855.11 230.1L857.82 214.83Q858.46 215.77 859.25 216.55Q862.03 219.29 866.7 220.11Q870.14 220.72 873.32 220.06Q874.45 219.83 875.55 219.44Q877.06 218.89 878.4 218.08Q880.81 216.63 882.69 214.32Q885.65 210.71 886.59 205.42Q887.52 200.13 885.99 195.73Q885 192.89 883.22 190.7Q882.25 189.5 881.03 188.5Q880.1 187.72 879.08 187.09ZM706.22 165.81L722.93 168.76L724.62 159.25L695.99 154.2L689.94 188.36L701.85 190.46L706.22 165.81ZM745.04 199.5L766.09 166.56L754.67 164.55L742.53 183.92L737.85 161.58L725.56 159.41L734.05 196.59Q733.03 197.97 731.8 198.47Q730.58 198.97 728.87 198.66Q728.65 198.63 728.43 198.57Q727.22 198.29 726.11 197.62Q724.79 196.83 723.94 195.72L718.3 203.37Q719.74 205.05 722.33 206.38Q724.94 207.71 727.65 208.19Q732.76 209.09 736.78 207.4Q736.97 207.32 737.16 207.23Q741.34 205.35 745.04 199.5ZM800.32 215.1L803.27 198.46L798.53 197.62L802.88 173.05L771.31 167.48L768.77 179.31Q767.45 185.25 765.66 188.35Q764.6 190.2 763.07 190.77Q762.03 191.16 760.79 190.96L759.52 190.74L756.58 207.39L767.73 209.36L768.98 202.29L790.48 206.08L789.23 213.15L800.32 215.1ZM869.37 209.96Q867.75 210.48 865.87 210.14Q863.98 209.81 862.64 208.77Q861.74 208.08 861.08 207.06Q860.94 206.85 860.82 206.63Q859.51 204.22 860.12 200.75Q860.73 197.28 862.8 195.47Q862.99 195.31 863.19 195.15Q864.15 194.43 865.24 194.08Q866.86 193.56 868.74 193.9Q870.63 194.23 871.97 195.27Q872.88 195.96 873.53 196.98Q873.67 197.19 873.79 197.41Q875.11 199.82 874.49 203.29Q873.88 206.76 871.81 208.57Q871.62 208.73 871.42 208.89Q870.46 209.61 869.37 209.96ZM777.38 189.35Q778.39 186.66 779.38 182.09L780.09 178.84L789.23 180.45L786.56 195.51L774.71 193.42Q776.39 192.03 777.38 189.35ZM669.43 176.76Q667.89 177.25 666.09 176.93Q664.01 176.57 662.98 175.42Q662.51 174.88 662.32 174.27Q662.09 173.53 662.24 172.68Q662.43 171.63 663.04 170.98Q664.45 169.5 668.09 170.15L673.24 171.05L672.72 174.01Q671.95 175.37 670.78 176.13Q670.38 176.39 669.93 176.58Q669.69 176.68 669.43 176.76ZM824.8 204.16Q823.25 204.64 821.45 204.33Q819.38 203.96 818.34 202.81Q817.88 202.28 817.68 201.66Q817.45 200.93 817.61 200.08Q817.79 199.02 818.41 198.38Q819.81 196.9 823.45 197.54L828.61 198.45L828.08 201.4Q827.31 202.76 826.14 203.52Q825.74 203.78 825.29 203.97Q825.05 204.08 824.8 204.16Z" fill="#FFFFFF" fill-opacity="1.000000" fill-rule="evenodd"/>
	<path id="агудар" d="M671.45 149.29Q679.96 150.79 683.75 155.45Q687.54 160.12 686.12 168.12L682.76 187.09L671.61 185.12L672.39 180.71Q668.92 185.24 661.41 183.91Q657.44 183.21 654.78 181.32Q652.13 179.42 651.07 176.79Q650.02 174.16 650.55 171.15Q651.41 166.28 655.59 164.26Q659.79 162.24 667.55 163.61L674.35 164.81Q675 159.34 668.06 158.11Q665.61 157.68 662.95 158.02Q660.29 158.36 658.27 159.45L655.68 150.6Q658.85 149.21 663.09 148.89Q667.36 148.57 671.45 149.29ZM666.09 176.93Q668.18 177.3 669.93 176.58Q671.68 175.84 672.72 174.01L673.24 171.05L668.09 170.15Q662.86 169.22 662.24 172.68Q661.96 174.25 662.98 175.42Q664.01 176.57 666.09 176.93ZM722.93 168.76L706.22 165.81L701.85 190.46L689.94 188.36L695.99 154.2L724.62 159.25L722.93 168.76ZM766.09 166.56L745.04 199.5Q741.34 205.35 737.16 207.23Q733 209.13 727.65 208.19Q724.94 207.71 722.33 206.38Q719.74 205.05 718.3 203.37L723.94 195.72Q724.79 196.83 726.11 197.62Q727.43 198.41 728.87 198.66Q730.58 198.97 731.8 198.47Q733.03 197.97 734.05 196.59L725.56 159.41L737.85 161.58L742.53 183.92L754.67 164.55L766.09 166.56ZM803.27 198.46L800.32 215.1L789.23 213.15L790.48 206.08L768.98 202.29L767.73 209.36L756.58 207.39L759.52 190.74L760.79 190.96Q763.89 191.45 765.66 188.35Q767.45 185.25 768.77 179.31L771.31 167.48L802.88 173.05L798.53 197.62L803.27 198.46ZM779.38 182.09Q778.39 186.66 777.38 189.35Q776.39 192.03 774.71 193.42L786.56 195.51L789.23 180.45L780.09 178.84L779.38 182.09ZM826.81 176.68Q835.32 178.18 839.11 182.85Q842.9 187.52 841.49 195.52L838.13 214.49L826.97 212.52L827.75 208.1Q824.28 212.63 816.77 211.31Q812.8 210.61 810.14 208.71Q807.49 206.82 806.44 204.19Q805.38 201.56 805.91 198.54Q806.77 193.68 810.96 191.66Q815.15 189.64 822.91 191L829.71 192.2Q830.36 186.73 823.42 185.51Q820.98 185.08 818.31 185.42Q815.65 185.76 813.63 186.84L811.04 177.99Q814.21 176.6 818.46 176.29Q822.72 175.96 826.81 176.68ZM821.45 204.33Q823.55 204.7 825.29 203.97Q827.04 203.23 828.08 201.4L828.61 198.45L823.45 197.54Q818.22 196.62 817.61 200.08Q817.33 201.65 818.34 202.81Q819.38 203.96 821.45 204.33ZM872.96 184.82Q877.62 185.64 881.03 188.5Q884.46 191.34 885.99 195.73Q887.52 200.13 886.59 205.42Q885.65 210.71 882.69 214.32Q879.75 217.92 875.55 219.44Q871.37 220.93 866.7 220.11Q860.7 219.05 857.82 214.83L855.11 230.1L843.14 227.98L851.36 181.6L862.76 183.61L862.16 187.01Q866.2 183.63 872.96 184.82ZM865.87 210.14Q869.02 210.7 871.42 208.89Q873.82 207.07 874.49 203.29Q875.16 199.5 873.53 196.98Q871.9 194.45 868.74 193.9Q865.59 193.34 863.19 195.15Q860.79 196.97 860.12 200.75Q859.45 204.54 861.08 207.06Q862.71 209.59 865.87 210.14Z" stroke="#202027" stroke-opacity="1.000000" stroke-width="1.000000"/>
	<rect id="Frame 2043683075" rx="29.500000" width="313.000000" height="125.000000" transform="translate(626.496582 94.320801) rotate(10.000001)" stroke="#202027" stroke-opacity="1.000000" stroke-width="1.000000"/>
	<rect id="Frame 2043683073" rx="29.500000" width="212.000000" height="125.000000" transform="translate(947.640137 150.947266) rotate(10.000001)" fill="#B0AEFF" fill-opacity="1.000000"/>
	<path id="рыс" d="M1006.45 209.55Q1003.72 207.87 1000.32 207.28Q994.63 206.27 990.87 208.51Q990.16 208.93 989.52 209.46L990.12 206.06L978.72 204.05L970.5 250.44L982.47 252.55L985.18 237.29Q985.82 238.23 986.61 239.01Q989.39 241.75 994.06 242.57Q997.5 243.18 1000.68 242.52Q1001.82 242.29 1002.92 241.89Q1004.42 241.35 1005.77 240.54Q1008.17 239.09 1010.06 236.77Q1013.01 233.17 1013.95 227.88Q1014.89 222.58 1013.35 218.19Q1012.37 215.35 1010.59 213.16Q1009.61 211.96 1008.4 210.95Q1007.47 210.18 1006.45 209.55ZM1080 255.39Q1084.07 258.44 1089.74 259.44Q1095.54 260.46 1100.19 258.71Q1102.93 257.69 1104.93 255.88Q1106.36 254.58 1107.42 252.88L1099 246.51Q1097.02 249.14 1094.51 249.8Q1093.03 250.2 1091.36 249.9Q1089.43 249.56 1088.04 248.51Q1087.11 247.81 1086.42 246.8Q1086.23 246.51 1086.06 246.22Q1084.78 243.83 1085.38 240.41Q1085.97 237.11 1087.93 235.35Q1088.22 235.08 1088.54 234.86Q1089.5 234.18 1090.56 233.84Q1092.27 233.31 1094.24 233.66Q1095.91 233.95 1097.17 234.83Q1099.29 236.31 1100.24 239.46L1110.35 236.35Q1109.93 234.39 1109.04 232.68Q1107.78 230.29 1105.56 228.4Q1101.79 225.17 1095.99 224.14Q1090.32 223.15 1085.44 224.6Q1082.05 225.61 1079.46 227.65Q1078.34 228.53 1077.38 229.6Q1076.64 230.43 1076.03 231.34Q1073.98 234.35 1073.29 238.28Q1072.61 242.13 1073.43 245.62Q1073.71 246.75 1074.15 247.85Q1074.68 249.2 1075.43 250.43Q1077.16 253.25 1080 255.39ZM1049.99 230.66Q1047.11 227.09 1040.38 225.84L1032.75 224.5L1034.63 213.91L1022.72 211.81L1016.67 245.97L1034.69 249.15Q1041.88 250.48 1046.39 247.95Q1047.93 247.09 1049.06 245.86Q1051.24 243.48 1051.91 239.71Q1052.66 235.48 1051.11 232.4Q1050.65 231.48 1049.99 230.66ZM1070.62 220.26L1058.71 218.16L1052.66 252.31L1064.56 254.41L1070.62 220.26ZM996.73 232.42Q995.12 232.93 993.23 232.6Q991.34 232.27 990 231.23Q989.1 230.53 988.44 229.52Q988.31 229.31 988.19 229.09Q986.87 226.68 987.48 223.21Q988.1 219.74 990.16 217.93Q990.35 217.76 990.55 217.61Q991.52 216.88 992.6 216.54Q994.22 216.02 996.11 216.35Q997.99 216.69 999.34 217.72Q1000.24 218.42 1000.9 219.43Q1001.03 219.65 1001.15 219.87Q1002.47 222.28 1001.86 225.74Q1001.24 229.21 999.17 231.03Q998.98 231.19 998.78 231.34Q997.82 232.07 996.73 232.42ZM1038.79 240.15Q1037.44 241.19 1034.94 240.75L1030.04 239.81L1031.46 231.8L1036.38 232.67Q1038.63 233.13 1039.6 234.29Q1039.72 234.42 1039.81 234.56Q1040.53 235.66 1040.22 237.44Q1039.89 239.29 1038.79 240.15Z" fill="#FFFFFF" fill-opacity="1.000000" fill-rule="evenodd"/>
	<path id="рыс" d="M1000.32 207.28Q1004.98 208.1 1008.4 210.95Q1011.83 213.79 1013.35 218.19Q1014.89 222.58 1013.95 227.88Q1013.01 233.17 1010.06 236.77Q1007.12 240.38 1002.92 241.89Q998.73 243.39 994.06 242.57Q988.06 241.51 985.18 237.29L982.47 252.55L970.5 250.44L978.72 204.05L990.12 206.06L989.52 209.46Q993.56 206.08 1000.32 207.28ZM993.23 232.6Q996.38 233.16 998.78 231.34Q1001.19 229.53 1001.86 225.74Q1002.53 221.96 1000.9 219.43Q999.26 216.91 996.11 216.35Q992.95 215.8 990.55 217.61Q988.15 219.43 987.48 223.21Q986.81 227 988.44 229.52Q990.07 232.04 993.23 232.6ZM1040.38 225.84Q1047.11 227.09 1049.99 230.66Q1052.88 234.22 1051.91 239.71Q1050.89 245.43 1046.39 247.95Q1041.88 250.48 1034.69 249.15L1016.67 245.97L1022.72 211.81L1034.63 213.91L1032.75 224.5L1040.38 225.84ZM1058.71 218.16L1070.62 220.26L1064.56 254.41L1052.66 252.31L1058.71 218.16ZM1034.94 240.75Q1039.49 241.55 1040.22 237.44Q1040.56 235.43 1039.6 234.29Q1038.63 233.13 1036.38 232.67L1031.46 231.8L1030.04 239.81L1034.94 240.75ZM1089.74 259.44Q1084.07 258.44 1080 255.39Q1075.93 252.32 1074.15 247.85Q1072.38 243.38 1073.29 238.28Q1074.18 233.17 1077.38 229.6Q1080.57 226.04 1085.44 224.6Q1090.32 223.15 1095.99 224.14Q1101.79 225.17 1105.56 228.4Q1109.36 231.64 1110.35 236.35L1100.24 239.46Q1098.72 234.45 1094.24 233.66Q1091.03 233.09 1088.54 234.86Q1086.05 236.62 1085.38 240.41Q1084.69 244.26 1086.42 246.8Q1088.15 249.34 1091.36 249.9Q1095.84 250.69 1099 246.51L1107.42 252.88Q1104.87 256.97 1100.19 258.71Q1095.54 260.46 1089.74 259.44Z" stroke="#202027" stroke-opacity="1.000000" stroke-width="1.000000"/>
	<rect id="Frame 2043683073" rx="29.500000" width="212.000000" height="125.000000" transform="translate(947.640137 150.947266) rotate(10.000001)" stroke="#202027" stroke-opacity="1.000000" stroke-width="1.000000"/>
	<rect id="Frame 2043683076" rx="29.500000" width="196.000000" height="125.000000" transform="translate(99.366211 141.320801) rotate(10.000001)" fill="#B0AEFF" fill-opacity="1.000000"/>
	<path id="тик" d="M148.24 207.37L159.21 209.3L160.89 199.8L126.98 193.82L125.3 203.32L136.33 205.27L131.96 229.92L143.87 232.02L148.24 207.37ZM177.46 202.72L165.55 200.62L159.5 234.77L170.6 236.73L187.96 221.28L184.78 239.23L196.75 241.34L202.8 207.19L191.77 205.24L174.29 220.61L177.46 202.72ZM218.95 232.71L222.99 233.42L228.78 246.99L242.89 249.48L233.82 229.55L248.18 215.19L235.52 212.95L224.9 224.08L220.61 223.32L222.84 210.72L210.87 208.61L204.82 242.76L216.79 244.88L218.95 232.71Z" fill="#FFFFFF" fill-opacity="1.000000" fill-rule="evenodd"/>
	<path id="тик" d="M159.21 209.3L148.24 207.37L143.87 232.02L131.96 229.92L136.33 205.27L125.3 203.32L126.98 193.82L160.89 199.8L159.21 209.3ZM165.55 200.62L177.46 202.72L174.29 220.61L191.77 205.24L202.8 207.19L196.75 241.34L184.78 239.23L187.96 221.28L170.6 236.73L159.5 234.77L165.55 200.62ZM222.99 233.42L218.95 232.71L216.79 244.88L204.82 242.76L210.87 208.61L222.84 210.72L220.61 223.32L224.9 224.08L235.52 212.95L248.18 215.19L233.82 229.55L242.89 249.48L228.78 246.99L222.99 233.42Z" stroke="#202027" stroke-opacity="1.000000" stroke-width="1.000000"/>
	<rect id="Frame 2043683076" rx="29.500000" width="196.000000" height="125.000000" transform="translate(99.366211 141.320801) rotate(10.000001)" stroke="#202027" stroke-opacity="1.000000" stroke-width="1.000000"/>
	<rect id="Frame 2043683074" rx="29.500000" width="389.000000" height="125.000000" transform="translate(305.287109 177.630127) rotate(10.000001)" fill="#B0AEFF" fill-opacity="1.000000"/>
	<path id="родимоп" d="M363.76 236.18Q361.03 234.5 357.64 233.9Q351.95 232.9 348.19 235.13Q347.48 235.55 346.84 236.09L347.44 232.69L336.04 230.68L327.82 277.07L339.79 279.18L342.5 263.92Q343.14 264.85 343.93 265.63Q346.71 268.37 351.38 269.19Q354.82 269.8 358 269.15Q359.13 268.91 360.23 268.52Q361.74 267.98 363.08 267.17Q365.49 265.71 367.38 263.4Q370.33 259.79 371.27 254.5Q372.21 249.21 370.67 244.81Q369.68 241.97 367.9 239.78Q366.93 238.58 365.71 237.58Q364.78 236.8 363.76 236.18ZM381.78 272.53Q385.61 275.23 390.72 276.13Q396.12 277.08 400.84 275.69Q400.95 275.66 401.07 275.62Q404.33 274.61 406.83 272.64Q408.03 271.69 409.05 270.53Q409.81 269.67 410.44 268.73Q412.44 265.71 413.13 261.82Q413.84 257.85 412.94 254.29Q412.68 253.27 412.28 252.28Q411.72 250.85 410.93 249.57Q409.25 246.88 406.53 244.84Q406.47 244.8 406.41 244.75Q402.43 241.8 396.97 240.84Q391.43 239.86 386.64 241.33Q383.64 242.25 381.26 244Q379.85 245.04 378.66 246.38Q377.75 247.41 377.02 248.55Q375.21 251.41 374.57 255.02Q373.89 258.87 374.72 262.36Q375 263.5 375.43 264.6Q376.03 266.1 376.88 267.44Q378.56 270.09 381.22 272.12Q381.5 272.33 381.78 272.53ZM565.76 304.97Q569.59 307.67 574.69 308.57Q580.1 309.52 584.81 308.14Q584.93 308.1 585.05 308.06Q588.31 307.05 590.81 305.08Q592.01 304.13 593.03 302.97Q593.79 302.11 594.41 301.17Q596.42 298.15 597.11 294.26Q597.81 290.29 596.91 286.73Q596.65 285.71 596.26 284.72Q595.7 283.29 594.9 282.01Q593.23 279.32 590.5 277.28Q590.45 277.24 590.39 277.2Q586.41 274.24 580.94 273.28Q575.4 272.3 570.62 273.77Q567.62 274.69 565.24 276.44Q563.83 277.48 562.63 278.82Q561.73 279.85 561 280.99Q559.19 283.85 558.55 287.46Q557.87 291.31 558.7 294.8Q558.97 295.94 559.41 297.04Q560.01 298.54 560.86 299.88Q562.53 302.54 565.2 304.56Q565.47 304.77 565.76 304.97ZM454.23 294.03L457.18 277.38L452.44 276.54L456.79 251.97L425.22 246.4L422.68 258.24Q421.36 264.18 419.57 267.27Q418.51 269.12 416.98 269.7Q415.94 270.08 414.7 269.89L413.44 269.66L410.49 286.31L421.64 288.28L422.89 281.22L444.39 285.01L443.14 292.07L454.23 294.03ZM478.61 255.82L466.7 253.72L460.65 287.87L471.74 289.83L489.11 274.38L485.93 292.33L497.9 294.44L503.95 260.29L492.92 258.34L475.44 273.71L478.61 255.82ZM542.3 283.76L539.12 301.71L549.89 303.61L555.88 269.44L544.6 267.45L530.98 283.44L524.61 263.93L512.01 261.71L505.96 295.86L516.75 297.77L519.98 279.55L525.8 296.24L530.89 297.13L542.3 283.76ZM634.98 318.61L641.03 284.46L605.73 278.23L599.68 312.39L611.59 314.49L615.96 289.84L627.44 291.87L623.07 316.51L634.98 318.61ZM354.05 259.04Q352.44 259.56 350.55 259.23Q348.66 258.89 347.32 257.86Q346.42 257.16 345.76 256.15Q345.63 255.93 345.51 255.71Q344.19 253.3 344.8 249.84Q345.42 246.37 347.48 244.55Q347.67 244.39 347.87 244.24Q348.84 243.51 349.92 243.16Q351.54 242.65 353.43 242.98Q355.31 243.31 356.66 244.35Q357.56 245.05 358.21 246.06Q358.35 246.27 358.47 246.49Q359.79 248.9 359.17 252.37Q358.56 255.84 356.49 257.65Q356.3 257.82 356.1 257.97Q355.14 258.7 354.05 259.04ZM395.91 266.42Q394.29 266.94 392.4 266.61Q390.52 266.27 389.17 265.24Q388.27 264.54 387.62 263.53Q387.52 263.37 387.42 263.21Q386.03 260.76 386.67 257.15Q387.28 253.67 389.36 251.88Q389.54 251.73 389.73 251.59Q390.66 250.89 391.71 250.55Q393.35 250.02 395.28 250.36Q397.21 250.7 398.57 251.77Q399.44 252.44 400.07 253.41Q400.2 253.61 400.32 253.82Q401.66 256.21 401.04 259.69Q400.4 263.3 398.25 265.12Q398.11 265.24 397.96 265.35Q396.99 266.08 395.91 266.42ZM579.88 298.86Q578.27 299.38 576.38 299.05Q574.49 298.71 573.15 297.68Q572.25 296.98 571.59 295.97Q571.49 295.81 571.4 295.65Q570 293.2 570.64 289.59Q571.26 286.11 573.34 284.32Q573.52 284.17 573.71 284.03Q574.64 283.33 575.68 282.99Q577.33 282.46 579.26 282.8Q581.19 283.14 582.55 284.21Q583.41 284.88 584.05 285.85Q584.18 286.05 584.3 286.26Q585.63 288.65 585.02 292.13Q584.38 295.74 582.22 297.56Q582.08 297.68 581.93 297.79Q580.97 298.52 579.88 298.86ZM431.29 268.28Q432.3 265.58 433.3 261.01L434 257.76L443.14 259.37L440.47 274.43L428.62 272.34Q430.3 270.96 431.29 268.28Z" fill="#FFFFFF" fill-opacity="1.000000" fill-rule="evenodd"/>
	<path id="родимоп" d="M357.64 233.9Q362.3 234.72 365.71 237.58Q369.14 240.42 370.67 244.81Q372.21 249.21 371.27 254.5Q370.33 259.79 367.38 263.4Q364.44 267.01 360.23 268.52Q356.05 270.02 351.38 269.19Q345.38 268.14 342.5 263.92L339.79 279.18L327.82 277.07L336.04 230.68L347.44 232.69L346.84 236.09Q350.88 232.71 357.64 233.9ZM350.55 259.23Q353.7 259.78 356.1 257.97Q358.5 256.15 359.17 252.37Q359.84 248.59 358.21 246.06Q356.58 243.54 353.43 242.98Q350.27 242.42 347.87 244.24Q345.47 246.05 344.8 249.84Q344.13 253.62 345.76 256.15Q347.39 258.67 350.55 259.23ZM390.72 276.13Q385.24 275.16 381.22 272.12Q377.21 269.07 375.43 264.6Q373.67 260.13 374.57 255.02Q375.47 249.98 378.66 246.38Q381.86 242.79 386.64 241.33Q391.43 239.86 396.97 240.84Q402.51 241.81 406.53 244.84Q410.55 247.85 412.28 252.28Q414.04 256.71 413.13 261.82Q412.23 266.93 409.05 270.53Q405.89 274.13 401.07 275.62Q396.26 277.11 390.72 276.13ZM392.4 266.61Q395.56 267.16 397.96 265.35Q400.36 263.53 401.04 259.69Q401.71 255.9 400.07 253.41Q398.43 250.92 395.28 250.36Q392.13 249.8 389.73 251.59Q387.34 253.37 386.67 257.15Q385.98 261 387.62 263.53Q389.25 266.05 392.4 266.61ZM457.18 277.38L454.23 294.03L443.14 292.07L444.39 285.01L422.89 281.22L421.64 288.28L410.49 286.31L413.44 269.66L414.7 269.89Q417.8 270.37 419.57 267.27Q421.36 264.18 422.68 258.24L425.22 246.4L456.79 251.97L452.44 276.54L457.18 277.38ZM433.3 261.01Q432.3 265.58 431.29 268.28Q430.3 270.96 428.62 272.34L440.47 274.43L443.14 259.37L434 257.76L433.3 261.01ZM466.7 253.72L478.61 255.82L475.44 273.71L492.92 258.34L503.95 260.29L497.9 294.44L485.93 292.33L489.11 274.38L471.74 289.83L460.65 287.87L466.7 253.72ZM539.12 301.71L542.3 283.76L530.89 297.13L525.8 296.24L519.98 279.55L516.75 297.77L505.96 295.86L512.01 261.71L524.61 263.93L530.98 283.44L544.6 267.45L555.88 269.44L549.89 303.61L539.12 301.71ZM574.69 308.57Q569.21 307.6 565.2 304.56Q561.19 301.51 559.41 297.04Q557.64 292.57 558.55 287.46Q559.44 282.42 562.63 278.82Q565.84 275.23 570.62 273.77Q575.4 272.3 580.94 273.28Q586.48 274.25 590.5 277.28Q594.52 280.29 596.26 284.72Q598.02 289.15 597.11 294.26Q596.21 299.37 593.03 302.97Q589.87 306.57 585.05 308.06Q580.23 309.55 574.69 308.57ZM576.38 299.05Q579.53 299.6 581.93 297.79Q584.33 295.98 585.02 292.13Q585.69 288.34 584.05 285.85Q582.41 283.35 579.26 282.8Q576.1 282.24 573.71 284.03Q571.31 285.81 570.64 289.59Q569.96 293.44 571.59 295.97Q573.23 298.49 576.38 299.05ZM641.03 284.46L634.98 318.61L623.07 316.51L627.44 291.87L615.96 289.84L611.59 314.49L599.68 312.39L605.73 278.23L641.03 284.46Z" stroke="#202027" stroke-opacity="1.000000" stroke-width="1.000000"/>
	<rect id="Frame 2043683074" rx="29.500000" width="389.000000" height="125.000000" transform="translate(305.287109 177.630127) rotate(10.000001)" stroke="#202027" stroke-opacity="1.000000" stroke-width="1.000000"/>
	<rect id="Frame 2043683073" rx="29.500000" width="212.000000" height="125.000000" transform="translate(701.275879 247.453613) rotate(10.000001)" fill="#B0AEFF" fill-opacity="1.000000"/>
	<path id="рыс" d="M760.08 306.06Q757.35 304.38 753.95 303.78Q748.27 302.78 744.51 305.01Q743.8 305.43 743.15 305.97L743.76 302.57L732.35 300.56L724.14 346.95L736.11 349.06L738.81 333.8Q739.45 334.73 740.25 335.51Q743.03 338.25 747.7 339.08Q751.14 339.68 754.32 339.03Q755.45 338.79 756.55 338.4Q758.05 337.86 759.4 337.05Q761.8 335.6 763.69 333.28Q766.65 329.68 767.58 324.38Q768.52 319.09 766.98 314.69Q766 311.85 764.22 309.66Q763.24 308.46 762.03 307.46Q761.1 306.68 760.08 306.06ZM833.63 351.9Q837.71 354.95 843.37 355.95Q849.17 356.97 853.83 355.22Q856.56 354.2 858.56 352.38Q859.99 351.09 861.05 349.38L852.63 343.01Q850.65 345.64 848.14 346.31Q846.66 346.7 845 346.41Q843.07 346.07 841.67 345.02Q840.75 344.32 840.06 343.3Q839.86 343.02 839.7 342.72Q838.41 340.33 839.01 336.92Q839.6 333.62 841.56 331.85Q841.85 331.59 842.17 331.36Q843.13 330.68 844.2 330.35Q845.9 329.82 847.87 330.16Q849.54 330.46 850.8 331.34Q852.92 332.82 853.88 335.97L863.98 332.86Q863.57 330.9 862.67 329.19Q861.41 326.8 859.2 324.91Q855.42 321.67 849.62 320.65Q843.96 319.65 839.08 321.11Q835.68 322.12 833.09 324.16Q831.97 325.04 831.01 326.11Q830.27 326.94 829.66 327.84Q827.61 330.86 826.92 334.78Q826.24 338.63 827.07 342.12Q827.34 343.26 827.78 344.36Q828.32 345.71 829.06 346.94Q830.79 349.76 833.63 351.9ZM803.62 327.17Q800.74 323.6 794.02 322.35L786.38 321L788.26 310.42L776.35 308.32L770.3 342.47L788.33 345.65Q795.51 346.98 800.02 344.46Q801.56 343.6 802.69 342.36Q804.87 339.98 805.54 336.22Q806.29 331.99 804.75 328.91Q804.28 327.99 803.62 327.17ZM824.25 316.76L812.34 314.66L806.29 348.82L818.2 350.92L824.25 316.76ZM750.37 328.92Q748.75 329.44 746.86 329.11Q744.98 328.77 743.63 327.74Q742.73 327.04 742.08 326.03Q741.94 325.82 741.82 325.6Q740.5 323.19 741.12 319.72Q741.73 316.25 743.8 314.44Q743.99 314.27 744.19 314.12Q745.15 313.39 746.24 313.04Q747.85 312.53 749.74 312.86Q751.63 313.19 752.97 314.23Q753.87 314.93 754.53 315.94Q754.66 316.15 754.78 316.37Q756.1 318.78 755.49 322.25Q754.87 325.72 752.81 327.53Q752.62 327.7 752.42 327.85Q751.45 328.58 750.37 328.92ZM792.42 336.65Q791.08 337.7 788.58 337.26L783.67 336.31L785.09 328.31L790.01 329.18Q792.26 329.64 793.23 330.79Q793.35 330.93 793.44 331.07Q794.16 332.17 793.85 333.95Q793.52 335.8 792.42 336.65Z" fill="#FFFFFF" fill-opacity="1.000000" fill-rule="evenodd"/>
	<path id="рыс" d="M753.95 303.78Q758.61 304.6 762.03 307.46Q765.46 310.3 766.98 314.69Q768.52 319.09 767.58 324.38Q766.65 329.68 763.69 333.28Q760.75 336.89 756.55 338.4Q752.36 339.9 747.7 339.08Q741.7 338.02 738.81 333.8L736.11 349.06L724.14 346.95L732.35 300.56L743.76 302.57L743.15 305.97Q747.2 302.59 753.95 303.78ZM746.86 329.11Q750.02 329.66 752.42 327.85Q754.82 326.04 755.49 322.25Q756.16 318.47 754.53 315.94Q752.9 313.42 749.74 312.86Q746.59 312.3 744.19 314.12Q741.79 315.93 741.12 319.72Q740.45 323.5 742.08 326.03Q743.71 328.55 746.86 329.11ZM794.02 322.35Q800.74 323.6 803.62 327.17Q806.51 330.72 805.54 336.22Q804.53 341.94 800.02 344.46Q795.51 346.98 788.33 345.65L770.3 342.47L776.35 308.32L788.26 310.42L786.38 321L794.02 322.35ZM812.34 314.66L824.25 316.76L818.2 350.92L806.29 348.82L812.34 314.66ZM788.58 337.26Q793.12 338.06 793.85 333.95Q794.21 331.93 793.23 330.79Q792.26 329.64 790.01 329.18L785.09 328.31L783.67 336.31L788.58 337.26ZM843.37 355.95Q837.71 354.95 833.63 351.9Q829.56 348.83 827.78 344.36Q826.01 339.89 826.92 334.78Q827.82 329.67 831.01 326.11Q834.21 322.55 839.08 321.11Q843.96 319.65 849.62 320.65Q855.42 321.67 859.2 324.91Q862.99 328.15 863.98 332.86L853.88 335.97Q852.35 330.95 847.87 330.16Q844.66 329.6 842.17 331.36Q839.68 333.13 839.01 336.92Q838.33 340.76 840.06 343.3Q841.78 345.84 845 346.41Q849.47 347.2 852.63 343.01L861.05 349.38Q858.5 353.47 853.83 355.22Q849.17 356.97 843.37 355.95Z" stroke="#202027" stroke-opacity="1.000000" stroke-width="1.000000"/>
	<rect id="Frame 2043683073" rx="29.500000" width="212.000000" height="125.000000" transform="translate(701.275879 247.453613) rotate(10.000001)" stroke="#202027" stroke-opacity="1.000000" stroke-width="1.000000"/>
	<rect id="Frame 2043683075" rx="29.500000" width="196.000000" height="125.000000" transform="translate(922.953613 286.541504) rotate(10.000001)" fill="#B0AEFF" fill-opacity="1.000000"/>
	<path id="тик" d="M971.83 352.59L982.8 354.53L984.48 345.02L950.57 339.04L948.88 348.55L959.92 350.49L955.55 375.14L967.46 377.24L971.83 352.59ZM1001.05 347.94L989.14 345.84L983.09 379.99L994.18 381.95L1011.56 366.5L1008.38 384.45L1020.35 386.56L1026.4 352.41L1015.36 350.46L997.88 365.83L1001.05 347.94ZM1042.54 377.93L1046.57 378.64L1052.37 392.21L1066.48 394.7L1057.41 374.77L1071.78 360.41L1059.11 358.18L1048.49 369.3L1044.19 368.54L1046.43 355.94L1034.46 353.83L1028.41 387.99L1040.38 390.1L1042.54 377.93Z" fill="#FFFFFF" fill-opacity="1.000000" fill-rule="evenodd"/>
	<path id="тик" d="M982.8 354.53L971.83 352.59L967.46 377.24L955.55 375.14L959.92 350.49L948.88 348.55L950.57 339.04L984.48 345.02L982.8 354.53ZM989.14 345.84L1001.05 347.94L997.88 365.83L1015.36 350.46L1026.4 352.41L1020.35 386.56L1008.38 384.45L1011.56 366.5L994.18 381.95L983.09 379.99L989.14 345.84ZM1046.57 378.64L1042.54 377.93L1040.38 390.1L1028.41 387.99L1034.46 353.83L1046.43 355.94L1044.19 368.54L1048.49 369.3L1059.11 358.18L1071.78 360.41L1057.41 374.77L1066.48 394.7L1052.37 392.21L1046.57 378.64Z" stroke="#202027" stroke-opacity="1.000000" stroke-width="1.000000"/>
	<rect id="Frame 2043683075" rx="29.500000" width="196.000000" height="125.000000" transform="translate(922.953613 286.541504) rotate(10.000001)" stroke="#202027" stroke-opacity="1.000000" stroke-width="1.000000"/>
	<rect id="Frame 2043683095" rx="29.500000" width="192.000000" height="125.000000" transform="translate(102.091309 282.265137) rotate(10.000001)" fill="#B0AEFF" fill-opacity="1.000000"/>
	<path id="топ" d="M168.49 375.39Q172.33 378.09 177.43 378.99Q182.84 379.94 187.55 378.55Q187.67 378.52 187.79 378.48Q191.05 377.47 193.55 375.49Q194.74 374.55 195.77 373.38Q196.52 372.53 197.15 371.58Q199.16 368.57 199.85 364.68Q200.55 360.71 199.65 357.15Q199.39 356.13 199 355.13Q198.44 353.71 197.64 352.42Q195.97 349.73 193.24 347.69Q193.19 347.65 193.13 347.61Q189.15 344.65 183.68 343.69Q178.14 342.71 173.36 344.19Q170.36 345.1 167.98 346.86Q166.57 347.9 165.37 349.24Q164.46 350.26 163.74 351.4Q161.93 354.27 161.29 357.88Q160.61 361.73 161.44 365.22Q161.71 366.35 162.15 367.45Q162.74 368.96 163.59 370.3Q165.27 372.95 167.94 374.98Q168.21 375.19 168.49 375.39ZM150.76 348.28L161.73 350.21L163.42 340.7L129.5 334.72L127.82 344.23L138.85 346.18L134.48 370.83L146.39 372.93L150.76 348.28ZM237.72 389.03L243.77 354.87L208.47 348.65L202.42 382.81L214.33 384.91L218.7 360.26L230.18 362.28L225.81 386.93L237.72 389.03ZM182.62 369.28Q181.01 369.8 179.12 369.46Q177.23 369.13 175.89 368.09Q174.99 367.4 174.33 366.38Q174.23 366.23 174.14 366.06Q172.74 363.62 173.38 360.01Q174 356.53 176.08 354.74Q176.26 354.58 176.45 354.44Q177.38 353.75 178.42 353.41Q180.07 352.87 182 353.22Q183.93 353.56 185.29 354.62Q186.15 355.3 186.79 356.27Q186.92 356.46 187.03 356.67Q188.37 359.06 187.75 362.54Q187.11 366.15 184.96 367.97Q184.82 368.09 184.67 368.2Q183.71 368.93 182.62 369.28Z" fill="#FFFFFF" fill-opacity="1.000000" fill-rule="evenodd"/>
	<path id="топ" d="M161.73 350.21L150.76 348.28L146.39 372.93L134.48 370.83L138.85 346.18L127.82 344.23L129.5 334.72L163.42 340.7L161.73 350.21ZM177.43 378.99Q171.95 378.02 167.94 374.98Q163.92 371.92 162.15 367.45Q160.38 362.99 161.29 357.88Q162.18 352.83 165.37 349.24Q168.58 345.65 173.36 344.19Q178.14 342.71 183.68 343.69Q189.22 344.67 193.24 347.69Q197.26 350.7 199 355.13Q200.75 359.57 199.85 364.68Q198.94 369.78 195.77 373.38Q192.61 376.98 187.79 378.48Q182.97 379.96 177.43 378.99ZM179.12 369.46Q182.27 370.02 184.67 368.2Q187.07 366.39 187.75 362.54Q188.42 358.76 186.79 356.27Q185.15 353.77 182 353.22Q178.84 352.66 176.45 354.44Q174.05 356.23 173.38 360.01Q172.7 363.86 174.33 366.38Q175.96 368.91 179.12 369.46ZM243.77 354.87L237.72 389.03L225.81 386.93L230.18 362.28L218.7 360.26L214.33 384.91L202.42 382.81L208.47 348.65L243.77 354.87Z" stroke="#202027" stroke-opacity="1.000000" stroke-width="1.000000"/>
	<rect id="Frame 2043683095" rx="29.500000" width="192.000000" height="125.000000" transform="translate(102.091309 282.265137) rotate(10.000001)" stroke="#202027" stroke-opacity="1.000000" stroke-width="1.000000"/>
	<rect id="Frame 2043683072" rx="29.500000" width="601.000000" height="125.000000" transform="translate(304.073242 317.879883) rotate(10.000001)" fill="#B0AEFF" fill-opacity="1.000000"/>
	<path id="ытсиммаргорп" d="M426.41 420.56Q430.49 423.61 436.15 424.61Q441.95 425.63 446.61 423.88Q449.34 422.86 451.34 421.04Q452.77 419.75 453.83 418.04L445.41 411.67Q443.43 414.3 440.92 414.97Q439.44 415.36 437.78 415.07Q435.85 414.73 434.45 413.68Q433.52 412.98 432.84 411.96Q432.64 411.68 432.48 411.38Q431.19 408.99 431.79 405.58Q432.38 402.28 434.34 400.51Q434.63 400.25 434.95 400.02Q435.91 399.34 436.98 399.01Q438.68 398.48 440.65 398.82Q442.32 399.12 443.58 400Q445.7 401.48 446.66 404.63L456.76 401.52Q456.35 399.56 455.45 397.85Q454.19 395.46 451.98 393.57Q448.2 390.33 442.4 389.31Q436.74 388.31 431.86 389.77Q428.46 390.78 425.87 392.82Q424.75 393.7 423.79 394.77Q423.05 395.6 422.44 396.5Q420.39 399.52 419.7 403.44Q419.02 407.29 419.85 410.78Q420.12 411.92 420.56 413.02Q421.1 414.37 421.84 415.6Q423.57 418.42 426.41 420.56ZM638.93 427.96Q635.14 423.3 626.63 421.8Q626.4 421.75 626.16 421.72Q622.29 421.09 618.27 421.4Q614.03 421.72 610.86 423.11L613.45 431.96Q615.47 430.87 618.13 430.53Q620.8 430.19 623.24 430.62Q627.6 431.39 628.96 433.83Q629.77 435.28 629.53 437.32L622.73 436.12Q614.97 434.75 610.78 436.77Q608.99 437.63 607.81 439.01Q606.23 440.87 605.73 443.65Q605.33 445.92 605.83 447.96Q605.99 448.64 606.26 449.3Q606.34 449.51 606.44 449.72Q607.53 452.08 609.96 453.82Q612.62 455.72 616.59 456.42Q622.25 457.42 625.61 455.1Q626.71 454.34 627.57 453.22L626.79 457.63L637.94 459.6L641.3 440.63Q642.57 433.51 639.7 429.02Q639.35 428.47 638.93 427.96ZM678.9 432.21Q676.17 430.53 672.77 429.93Q667.09 428.93 663.33 431.16Q662.62 431.58 661.98 432.12L662.58 428.72L651.18 426.71L642.96 473.1L654.93 475.21L657.64 459.95Q658.28 460.88 659.07 461.66Q661.85 464.4 666.52 465.23Q669.96 465.83 673.14 465.18Q674.27 464.94 675.37 464.55Q676.88 464.01 678.22 463.2Q680.63 461.75 682.51 459.43Q685.47 455.83 686.41 450.53Q687.34 445.24 685.8 440.84Q684.82 438.01 683.04 435.81Q682.06 434.61 680.85 433.61Q679.92 432.83 678.9 432.21ZM728.87 474.2Q732.71 476.9 737.81 477.8Q743.21 478.75 747.93 477.36Q748.05 477.33 748.16 477.29Q751.42 476.28 753.92 474.3Q755.12 473.36 756.15 472.19Q756.9 471.34 757.53 470.39Q759.54 467.38 760.23 463.49Q760.93 459.52 760.03 455.96Q759.77 454.94 759.38 453.94Q758.82 452.52 758.02 451.23Q756.34 448.54 753.62 446.5Q753.56 446.46 753.51 446.42Q749.52 443.46 744.06 442.5Q738.52 441.52 733.74 443Q730.74 443.91 728.36 445.67Q726.94 446.71 725.75 448.05Q724.84 449.07 724.12 450.21Q722.3 453.08 721.66 456.69Q720.98 460.54 721.82 464.03Q722.09 465.16 722.52 466.26Q723.12 467.77 723.97 469.11Q725.65 471.76 728.31 473.79Q728.59 474 728.87 474.2ZM796.58 452.96Q793.84 451.28 790.45 450.68Q784.76 449.68 781 451.91Q780.29 452.33 779.65 452.87L780.25 449.47L768.85 447.46L760.63 493.85L772.6 495.96L775.31 480.7Q775.95 481.63 776.74 482.41Q779.52 485.15 784.2 485.97Q787.63 486.58 790.81 485.93Q791.94 485.69 793.04 485.3Q794.55 484.76 795.89 483.95Q798.3 482.49 800.19 480.18Q803.14 476.58 804.08 471.28Q805.02 465.99 803.48 461.59Q802.49 458.75 800.71 456.56Q799.74 455.36 798.52 454.36Q797.6 453.58 796.58 452.96ZM362.55 389.86Q359.68 386.29 352.95 385.04L345.32 383.7L347.19 373.11L335.28 371.01L329.23 405.17L347.27 408.35Q354.44 409.67 358.95 407.15Q360.49 406.29 361.62 405.06Q363.81 402.68 364.47 398.91Q365.22 394.68 363.68 391.6Q363.22 390.68 362.55 389.86ZM383.18 379.46L371.27 377.36L365.22 411.51L377.13 413.61L383.18 379.46ZM409.17 393.84L420.14 395.78L421.83 386.27L387.91 380.29L386.23 389.8L397.26 391.74L392.9 416.39L404.81 418.49L409.17 393.84ZM475.2 395.68L463.29 393.58L457.24 427.74L468.34 429.69L485.7 414.24L482.52 432.19L494.49 434.31L500.54 400.15L489.51 398.2L472.03 413.57L475.2 395.68ZM538.9 423.62L535.72 441.57L546.49 443.47L552.48 409.31L541.2 407.32L527.58 423.31L521.21 403.79L508.61 401.57L502.56 435.73L513.34 437.63L516.57 419.41L522.39 436.1L527.48 437L538.9 423.62ZM590.9 432.79L587.72 450.74L598.49 452.64L604.48 418.48L593.2 416.49L579.57 432.47L573.21 412.96L560.61 410.74L554.56 444.9L565.34 446.8L568.57 428.58L574.39 445.27L579.48 446.17L590.9 432.79ZM705.4 446.08L722.11 449.02L723.79 439.51L695.17 434.47L689.12 468.62L701.03 470.72L705.4 446.08ZM842.09 495.6L848.14 461.44L812.84 455.22L806.79 489.37L818.7 491.47L823.07 466.82L834.55 468.85L830.18 493.5L842.09 495.6ZM669.19 455.07Q667.57 455.59 665.69 455.26Q663.8 454.92 662.46 453.89Q661.56 453.19 660.9 452.18Q660.76 451.97 660.64 451.75Q659.32 449.34 659.94 445.87Q660.55 442.4 662.62 440.59Q662.81 440.42 663.01 440.27Q663.97 439.54 665.06 439.19Q666.68 438.68 668.56 439.01Q670.45 439.34 671.79 440.38Q672.69 441.08 673.35 442.09Q673.49 442.3 673.61 442.52Q674.93 444.93 674.31 448.4Q673.7 451.87 671.63 453.68Q671.44 453.85 671.24 454Q670.28 454.73 669.19 455.07ZM743 468.09Q741.38 468.6 739.5 468.27Q737.61 467.94 736.27 466.9Q735.36 466.21 734.71 465.19Q734.61 465.04 734.52 464.87Q733.12 462.43 733.76 458.82Q734.38 455.34 736.45 453.55Q736.63 453.39 736.82 453.25Q737.75 452.56 738.8 452.22Q740.44 451.68 742.37 452.02Q744.3 452.37 745.66 453.43Q746.53 454.11 747.16 455.08Q747.3 455.27 747.41 455.48Q748.75 457.87 748.13 461.35Q747.49 464.96 745.34 466.78Q745.2 466.9 745.05 467.01Q744.09 467.74 743 468.09ZM786.86 475.82Q785.25 476.34 783.36 476.01Q781.47 475.67 780.13 474.64Q779.23 473.94 778.57 472.93Q778.44 472.71 778.32 472.49Q777 470.08 777.61 466.62Q778.23 463.15 780.29 461.33Q780.48 461.17 780.68 461.02Q781.65 460.29 782.73 459.94Q784.35 459.43 786.24 459.76Q788.12 460.09 789.47 461.13Q790.37 461.83 791.02 462.84Q791.16 463.05 791.28 463.27Q792.6 465.68 791.98 469.15Q791.37 472.62 789.3 474.43Q789.11 474.6 788.91 474.75Q787.95 475.48 786.86 475.82ZM351.35 399.35Q350.01 400.39 347.52 399.95L342.61 399L344.02 391L348.95 391.87Q351.2 392.33 352.17 393.49Q352.28 393.62 352.38 393.76Q353.1 394.86 352.78 396.64Q352.46 398.49 351.35 399.35ZM624.61 449.27Q623.07 449.76 621.27 449.44Q619.2 449.08 618.16 447.92Q617.7 447.39 617.5 446.77Q617.27 446.04 617.42 445.19Q617.61 444.14 618.23 443.49Q619.63 442.01 623.27 442.65L628.42 443.56L627.9 446.52Q627.13 447.88 625.96 448.64Q625.56 448.9 625.11 449.09Q624.87 449.19 624.61 449.27Z" fill="#FFFFFF" fill-opacity="1.000000" fill-rule="evenodd"/>
	<path id="ытсиммаргорп" d="M352.95 385.04Q359.68 386.29 362.55 389.86Q365.45 393.42 364.47 398.91Q363.46 404.63 358.95 407.15Q354.44 409.67 347.27 408.35L329.23 405.17L335.28 371.01L347.19 373.11L345.32 383.7L352.95 385.04ZM371.27 377.36L383.18 379.46L377.13 413.61L365.22 411.51L371.27 377.36ZM347.52 399.95Q352.06 400.75 352.78 396.64Q353.14 394.63 352.17 393.49Q351.2 392.33 348.95 391.87L344.02 391L342.61 399L347.52 399.95ZM420.14 395.78L409.17 393.84L404.81 418.49L392.9 416.39L397.26 391.74L386.23 389.8L387.91 380.29L421.83 386.27L420.14 395.78ZM436.15 424.61Q430.49 423.61 426.41 420.56Q422.34 417.49 420.56 413.02Q418.79 408.55 419.7 403.44Q420.6 398.33 423.79 394.77Q426.99 391.21 431.86 389.77Q436.74 388.31 442.4 389.31Q448.2 390.33 451.98 393.57Q455.77 396.81 456.76 401.52L446.66 404.63Q445.13 399.61 440.65 398.82Q437.44 398.26 434.95 400.02Q432.46 401.79 431.79 405.58Q431.11 409.42 432.84 411.96Q434.56 414.5 437.78 415.07Q442.25 415.86 445.41 411.67L453.83 418.04Q451.28 422.13 446.61 423.88Q441.95 425.63 436.15 424.61ZM463.29 393.58L475.2 395.68L472.03 413.57L489.51 398.2L500.54 400.15L494.49 434.31L482.52 432.19L485.7 414.24L468.34 429.69L457.24 427.74L463.29 393.58ZM535.72 441.57L538.9 423.62L527.48 437L522.39 436.1L516.57 419.41L513.34 437.63L502.56 435.73L508.61 401.57L521.21 403.79L527.58 423.31L541.2 407.32L552.48 409.31L546.49 443.47L535.72 441.57ZM587.72 450.74L590.9 432.79L579.48 446.17L574.39 445.27L568.57 428.58L565.34 446.8L554.56 444.9L560.61 410.74L573.21 412.96L579.57 432.47L593.2 416.49L604.48 418.48L598.49 452.64L587.72 450.74ZM626.63 421.8Q635.14 423.3 638.93 427.96Q642.72 432.63 641.3 440.63L637.94 459.6L626.79 457.63L627.57 453.22Q624.1 457.75 616.59 456.42Q612.62 455.72 609.96 453.82Q607.31 451.93 606.26 449.3Q605.2 446.67 605.73 443.65Q606.59 438.79 610.78 436.77Q614.97 434.75 622.73 436.12L629.53 437.32Q630.18 431.85 623.24 430.62Q620.8 430.19 618.13 430.53Q615.47 430.87 613.45 431.96L610.86 423.11Q614.03 421.72 618.27 421.4Q622.54 421.07 626.63 421.8ZM621.27 449.44Q623.37 449.81 625.11 449.09Q626.86 448.35 627.9 446.52L628.42 443.56L623.27 442.65Q618.04 441.73 617.42 445.19Q617.15 446.76 618.16 447.92Q619.2 449.08 621.27 449.44ZM672.77 429.93Q677.44 430.75 680.85 433.61Q684.28 436.45 685.8 440.84Q687.34 445.24 686.41 450.53Q685.47 455.83 682.51 459.43Q679.57 463.04 675.37 464.55Q671.19 466.05 666.52 465.23Q660.52 464.17 657.64 459.95L654.93 475.21L642.96 473.1L651.18 426.71L662.58 428.72L661.98 432.12Q666.02 428.74 672.77 429.93ZM665.69 455.26Q668.84 455.81 671.24 454Q673.64 452.19 674.31 448.4Q674.98 444.62 673.35 442.09Q671.72 439.57 668.56 439.01Q665.41 438.45 663.01 440.27Q660.61 442.08 659.94 445.87Q659.27 449.65 660.9 452.18Q662.53 454.7 665.69 455.26ZM722.11 449.02L705.4 446.08L701.03 470.72L689.12 468.62L695.17 434.47L723.79 439.51L722.11 449.02ZM737.81 477.8Q732.33 476.83 728.31 473.79Q724.3 470.73 722.52 466.26Q720.76 461.8 721.66 456.69Q722.56 451.64 725.75 448.05Q728.96 444.46 733.74 443Q738.52 441.52 744.06 442.5Q749.6 443.48 753.62 446.5Q757.64 449.51 759.38 453.94Q761.13 458.38 760.23 463.49Q759.32 468.59 756.15 472.19Q752.98 475.79 748.16 477.29Q743.35 478.77 737.81 477.8ZM739.5 468.27Q742.65 468.83 745.05 467.01Q747.45 465.2 748.13 461.35Q748.8 457.57 747.16 455.08Q745.53 452.58 742.37 452.02Q739.22 451.47 736.82 453.25Q734.43 455.04 733.76 458.82Q733.08 462.67 734.71 465.19Q736.34 467.72 739.5 468.27ZM790.45 450.68Q795.11 451.5 798.52 454.36Q801.95 457.2 803.48 461.59Q805.02 465.99 804.08 471.28Q803.14 476.58 800.19 480.18Q797.25 483.79 793.04 485.3Q788.86 486.8 784.2 485.97Q778.19 484.92 775.31 480.7L772.6 495.96L760.63 493.85L768.85 447.46L780.25 449.47L779.65 452.87Q783.69 449.49 790.45 450.68ZM783.36 476.01Q786.51 476.56 788.91 474.75Q791.31 472.93 791.98 469.15Q792.65 465.37 791.02 462.84Q789.39 460.32 786.24 459.76Q783.08 459.2 780.68 461.02Q778.28 462.83 777.61 466.62Q776.94 470.4 778.57 472.93Q780.2 475.45 783.36 476.01ZM848.14 461.44L842.09 495.6L830.18 493.5L834.55 468.85L823.07 466.82L818.7 491.47L806.79 489.37L812.84 455.22L848.14 461.44Z" stroke="#202027" stroke-opacity="1.000000" stroke-width="1.000000"/>
	<rect id="Frame 2043683072" rx="29.500000" width="601.000000" height="125.000000" transform="translate(304.073242 317.879883) rotate(10.000001)" stroke="#202027" stroke-opacity="1.000000" stroke-width="1.000000"/>
	<rect id="Frame 2043683094" rx="29.500000" width="192.000000" height="125.000000" transform="translate(908.841309 424.516846) rotate(10.000001)" fill="#B0AEFF" fill-opacity="1.000000"/>
	<path id="топ" d="M975.24 517.64Q979.08 520.34 984.18 521.24Q989.59 522.19 994.3 520.8Q994.42 520.77 994.54 520.73Q997.8 519.72 1000.3 517.75Q1001.5 516.8 1002.52 515.63Q1003.28 514.78 1003.91 513.84Q1005.91 510.82 1006.6 506.93Q1007.31 502.96 1006.41 499.4Q1006.15 498.38 1005.75 497.39Q1005.19 495.96 1004.4 494.68Q1002.72 491.98 999.99 489.95Q999.94 489.9 999.88 489.86Q995.9 486.91 990.43 485.94Q984.89 484.97 980.11 486.44Q977.11 487.35 974.73 489.11Q973.32 490.15 972.12 491.49Q971.21 492.51 970.49 493.66Q968.68 496.52 968.04 500.13Q967.36 503.98 968.19 507.47Q968.46 508.61 968.9 509.71Q969.49 511.21 970.34 512.55Q972.02 515.2 974.69 517.23Q974.96 517.44 975.24 517.64ZM957.51 490.53L968.48 492.47L970.17 482.96L936.25 476.98L934.57 486.49L945.6 488.43L941.23 513.08L953.14 515.18L957.51 490.53ZM1044.48 531.28L1050.53 497.13L1015.23 490.9L1009.18 525.06L1021.09 527.16L1025.44 502.51L1036.93 504.53L1032.56 529.18L1044.48 531.28ZM989.37 511.53Q987.76 512.05 985.87 511.71Q983.98 511.38 982.64 510.34Q981.74 509.65 981.08 508.63Q980.98 508.48 980.89 508.32Q979.49 505.87 980.13 502.26Q980.75 498.78 982.83 496.99Q983.01 496.84 983.2 496.69Q984.13 496 985.17 495.66Q986.82 495.13 988.75 495.47Q990.68 495.81 992.04 496.87Q992.9 497.55 993.54 498.52Q993.67 498.72 993.78 498.92Q995.12 501.31 994.5 504.8Q993.86 508.41 991.71 510.22Q991.57 510.34 991.42 510.46Q990.46 511.19 989.37 511.53Z" fill="#FFFFFF" fill-opacity="1.000000" fill-rule="evenodd"/>
	<path id="топ" d="M968.48 492.47L957.51 490.53L953.14 515.18L941.23 513.08L945.6 488.43L934.57 486.49L936.25 476.98L970.17 482.96L968.48 492.47ZM984.18 521.24Q978.7 520.27 974.69 517.23Q970.67 514.18 968.9 509.71Q967.13 505.24 968.04 500.13Q968.93 495.08 972.12 491.49Q975.33 487.9 980.11 486.44Q984.89 484.97 990.43 485.94Q995.97 486.92 999.99 489.95Q1004.02 492.95 1005.75 497.39Q1007.51 501.82 1006.6 506.93Q1005.7 512.04 1002.52 515.63Q999.36 519.23 994.54 520.73Q989.72 522.21 984.18 521.24ZM985.87 511.71Q989.02 512.27 991.42 510.46Q993.82 508.64 994.5 504.8Q995.17 501.01 993.54 498.52Q991.9 496.02 988.75 495.47Q985.59 494.91 983.2 496.69Q980.8 498.48 980.13 502.26Q979.45 506.11 981.08 508.63Q982.71 511.16 985.87 511.71ZM1050.53 497.13L1044.48 531.28L1032.56 529.18L1036.93 504.53L1025.44 502.51L1021.09 527.16L1009.18 525.06L1015.23 490.9L1050.53 497.13Z" stroke="#202027" stroke-opacity="1.000000" stroke-width="1.000000"/>
	<rect id="Frame 2043683094" rx="29.500000" width="192.000000" height="125.000000" transform="translate(908.841309 424.516846) rotate(10.000001)" stroke="#202027" stroke-opacity="1.000000" stroke-width="1.000000"/>
	<rect id="Frame 2043683096" rx="29.500000" width="204.000000" height="125.000000" transform="translate(154.096680 432.242432) rotate(10.000001)" fill="#B0AEFF" fill-opacity="1.000000"/>
	<path id="гим" d="M195.24 496.93L211.95 499.88L213.64 490.37L185.02 485.32L178.97 519.48L190.88 521.58L195.24 496.93ZM230.21 493.29L218.3 491.19L212.25 525.34L223.34 527.3L240.71 511.85L237.53 529.8L249.5 531.91L255.55 497.76L244.52 495.81L227.04 511.18L230.21 493.29ZM293.9 521.23L290.72 539.18L301.5 541.08L307.48 506.92L296.2 504.93L282.58 520.91L276.22 501.4L263.61 499.18L257.56 533.34L268.35 535.24L271.58 517.02L277.4 533.71L282.49 534.61L293.9 521.23Z" fill="#FFFFFF" fill-opacity="1.000000" fill-rule="evenodd"/>
	<path id="гим" d="M211.95 499.88L195.24 496.93L190.88 521.58L178.97 519.48L185.02 485.32L213.64 490.37L211.95 499.88ZM218.3 491.19L230.21 493.29L227.04 511.18L244.52 495.81L255.55 497.76L249.5 531.91L237.53 529.8L240.71 511.85L223.34 527.3L212.25 525.34L218.3 491.19ZM290.72 539.18L293.9 521.23L282.49 534.61L277.4 533.71L271.58 517.02L268.35 535.24L257.56 533.34L263.61 499.18L276.22 501.4L282.58 520.91L296.2 504.93L307.48 506.92L301.5 541.08L290.72 539.18Z" stroke="#202027" stroke-opacity="1.000000" stroke-width="1.000000"/>
	<rect id="Frame 2043683096" rx="29.500000" width="204.000000" height="125.000000" transform="translate(154.096680 432.242432) rotate(10.000001)" stroke="#202027" stroke-opacity="1.000000" stroke-width="1.000000"/>
	<rect id="Frame 2043683093" rx="29.500000" width="335.000000" height="125.000000" transform="translate(367.895996 469.940918) rotate(10.000001)" fill="#B0AEFF" fill-opacity="1.000000"/>
	<path id="анидор" d="M425.23 531.09Q421.44 526.42 412.93 524.92Q412.7 524.88 412.46 524.84Q408.6 524.22 404.58 524.53Q400.33 524.84 397.17 526.24L399.76 535.09Q401.77 534 404.44 533.66Q407.1 533.32 409.55 533.75Q413.9 534.52 415.27 536.96Q416.08 538.41 415.83 540.44L409.03 539.24Q401.28 537.88 397.08 539.9Q395.3 540.76 394.12 542.14Q392.53 543.99 392.04 546.78Q391.64 549.04 392.13 551.09Q392.29 551.77 392.56 552.43Q392.65 552.64 392.74 552.85Q393.83 555.21 396.26 556.95Q398.93 558.85 402.9 559.55Q408.55 560.55 411.92 558.22Q413.02 557.46 413.87 556.34L413.09 560.76L424.25 562.73L427.61 543.76Q428.87 536.63 426 532.15Q425.65 531.6 425.23 531.09ZM574.36 587.76Q578.19 590.46 583.3 591.36Q588.7 592.31 593.42 590.92Q593.53 590.89 593.65 590.85Q596.91 589.84 599.41 587.87Q600.61 586.92 601.63 585.75Q602.39 584.9 603.02 583.96Q605.02 580.94 605.71 577.05Q606.42 573.08 605.52 569.52Q605.26 568.5 604.86 567.51Q604.3 566.08 603.51 564.8Q601.83 562.1 599.1 560.07Q599.05 560.02 598.99 559.98Q595.01 557.03 589.55 556.06Q584.01 555.09 579.22 556.56Q576.22 557.48 573.84 559.23Q572.43 560.27 571.24 561.61Q570.33 562.63 569.6 563.78Q567.79 566.64 567.15 570.25Q566.47 574.1 567.3 577.59Q567.58 578.73 568.01 579.83Q568.61 581.33 569.46 582.67Q571.14 585.32 573.8 587.35Q574.08 587.56 574.36 587.76ZM642.06 566.52Q639.33 564.84 635.93 564.24Q630.25 563.24 626.49 565.47Q625.78 565.9 625.14 566.43L625.74 563.03L614.34 561.02L606.12 607.41L618.09 609.52L620.8 594.26Q621.43 595.19 622.23 595.97Q625.01 598.71 629.68 599.54Q633.12 600.14 636.3 599.49Q637.43 599.25 638.53 598.86Q640.03 598.32 641.38 597.51Q643.78 596.06 645.67 593.74Q648.63 590.14 649.57 584.84Q650.5 579.55 648.96 575.16Q647.98 572.32 646.2 570.13Q645.22 568.93 644.01 567.92Q643.08 567.14 642.06 566.52ZM449.39 531.94L437.48 529.84L431.43 563.99L443.34 566.09L445.46 554.12L457.76 556.29L455.64 568.26L467.61 570.37L473.66 536.22L461.69 534.11L459.44 546.77L447.15 544.6L449.39 531.94ZM493.64 539.74L481.73 537.64L475.68 571.79L486.77 573.75L504.14 558.3L500.96 576.25L512.93 578.36L518.98 544.21L507.95 542.26L490.47 557.63L493.64 539.74ZM560.15 593.97L563.1 577.33L558.36 576.49L562.71 551.92L531.14 546.35L528.6 558.18Q527.27 564.12 525.49 567.22Q524.43 569.07 522.89 569.64Q521.86 570.03 520.61 569.83L519.35 569.61L516.4 586.26L527.56 588.23L528.81 581.16L550.31 584.95L549.06 592.02L560.15 593.97ZM588.49 581.65Q586.87 582.17 584.98 581.83Q583.09 581.5 581.75 580.46Q580.85 579.77 580.2 578.75Q580.09 578.6 580 578.44Q578.61 575.99 579.25 572.38Q579.86 568.9 581.94 567.11Q582.12 566.96 582.31 566.81Q583.24 566.12 584.28 565.78Q585.93 565.25 587.86 565.59Q589.79 565.93 591.15 566.99Q592.02 567.67 592.65 568.64Q592.78 568.84 592.9 569.04Q594.24 571.43 593.62 574.92Q592.98 578.53 590.83 580.34Q590.68 580.46 590.54 580.58Q589.57 581.31 588.49 581.65ZM632.35 589.39Q630.73 589.9 628.84 589.57Q626.96 589.24 625.62 588.2Q624.71 587.5 624.06 586.49Q623.92 586.28 623.8 586.06Q622.48 583.65 623.1 580.18Q623.71 576.71 625.78 574.9Q625.97 574.73 626.17 574.58Q627.13 573.85 628.22 573.5Q629.84 572.99 631.72 573.32Q633.61 573.65 634.95 574.69Q635.85 575.39 636.51 576.4Q636.65 576.61 636.77 576.83Q638.08 579.24 637.47 582.71Q636.86 586.18 634.79 587.99Q634.6 588.16 634.4 588.31Q633.44 589.04 632.35 589.39ZM537.21 568.22Q538.21 565.53 539.21 560.96L539.92 557.7L549.06 559.32L546.39 574.38L534.54 572.29Q536.21 570.9 537.21 568.22ZM410.92 552.4Q409.38 552.89 407.58 552.57Q405.5 552.2 404.47 551.05Q404 550.52 403.81 549.9Q403.58 549.17 403.73 548.32Q403.91 547.27 404.53 546.62Q405.93 545.14 409.57 545.78L414.73 546.69L414.2 549.64Q413.43 551.01 412.27 551.76Q411.87 552.02 411.42 552.21Q411.17 552.32 410.92 552.4Z" fill="#FFFFFF" fill-opacity="1.000000" fill-rule="evenodd"/>
	<path id="анидор" d="M412.93 524.92Q421.44 526.42 425.23 531.09Q429.03 535.76 427.61 543.76L424.25 562.73L413.09 560.76L413.87 556.34Q410.41 560.87 402.9 559.55Q398.93 558.85 396.26 556.95Q393.62 555.06 392.56 552.43Q391.5 549.8 392.04 546.78Q392.9 541.92 397.08 539.9Q401.28 537.88 409.03 539.24L415.83 540.44Q416.49 534.97 409.55 533.75Q407.1 533.32 404.44 533.66Q401.77 534 399.76 535.09L397.17 526.24Q400.33 524.84 404.58 524.53Q408.84 524.2 412.93 524.92ZM407.58 552.57Q409.67 552.94 411.42 552.21Q413.17 551.48 414.2 549.64L414.73 546.69L409.57 545.78Q404.34 544.86 403.73 548.32Q403.45 549.89 404.47 551.05Q405.5 552.2 407.58 552.57ZM437.48 529.84L449.39 531.94L447.15 544.6L459.44 546.77L461.69 534.11L473.66 536.22L467.61 570.37L455.64 568.26L457.76 556.29L445.46 554.12L443.34 566.09L431.43 563.99L437.48 529.84ZM481.73 537.64L493.64 539.74L490.47 557.63L507.95 542.26L518.98 544.21L512.93 578.36L500.96 576.25L504.14 558.3L486.77 573.75L475.68 571.79L481.73 537.64ZM563.1 577.33L560.15 593.97L549.06 592.02L550.31 584.95L528.81 581.16L527.56 588.23L516.4 586.26L519.35 569.61L520.61 569.83Q523.72 570.32 525.49 567.22Q527.27 564.12 528.6 558.18L531.14 546.35L562.71 551.92L558.36 576.49L563.1 577.33ZM539.21 560.96Q538.21 565.53 537.21 568.22Q536.21 570.9 534.54 572.29L546.39 574.38L549.06 559.32L539.92 557.7L539.21 560.96ZM583.3 591.36Q577.82 590.39 573.8 587.35Q569.79 584.3 568.01 579.83Q566.25 575.36 567.15 570.25Q568.05 565.2 571.24 561.61Q574.44 558.02 579.22 556.56Q584.01 555.09 589.55 556.06Q595.09 557.04 599.1 560.07Q603.13 563.08 604.86 567.51Q606.62 571.94 605.71 577.05Q604.81 582.16 601.63 585.75Q598.47 589.35 593.65 590.85Q588.84 592.33 583.3 591.36ZM584.98 581.83Q588.14 582.39 590.54 580.58Q592.94 578.76 593.62 574.92Q594.29 571.13 592.65 568.64Q591.01 566.14 587.86 565.59Q584.71 565.03 582.31 566.81Q579.92 568.6 579.25 572.38Q578.56 576.23 580.2 578.75Q581.83 581.28 584.98 581.83ZM635.93 564.24Q640.6 565.07 644.01 567.92Q647.44 570.76 648.96 575.16Q650.5 579.55 649.57 584.84Q648.63 590.14 645.67 593.74Q642.73 597.35 638.53 598.86Q634.34 600.36 629.68 599.54Q623.68 598.48 620.8 594.26L618.09 609.52L606.12 607.41L614.34 561.02L625.74 563.03L625.14 566.43Q629.18 563.05 635.93 564.24ZM628.84 589.57Q632 590.13 634.4 588.31Q636.8 586.5 637.47 582.71Q638.14 578.93 636.51 576.4Q634.88 573.88 631.72 573.32Q628.57 572.77 626.17 574.58Q623.77 576.39 623.1 580.18Q622.43 583.96 624.06 586.49Q625.69 589.01 628.84 589.57Z" stroke="#202027" stroke-opacity="1.000000" stroke-width="1.000000"/>
	<rect id="Frame 2043683093" rx="29.500000" width="335.000000" height="125.000000" transform="translate(367.895996 469.940918) rotate(10.000001)" stroke="#202027" stroke-opacity="1.000000" stroke-width="1.000000"/>
	<rect id="Frame 2043683095" rx="29.500000" width="204.000000" height="125.000000" transform="translate(710.705078 530.387451) rotate(10.000001)" fill="#B0AEFF" fill-opacity="1.000000"/>
	<path id="гим" d="M751.85 595.07L768.56 598.02L770.25 588.51L741.63 583.47L735.58 617.62L747.49 619.72L751.85 595.07ZM786.81 591.43L774.9 589.33L768.86 623.49L779.95 625.45L797.32 609.99L794.14 627.95L806.11 630.06L812.16 595.9L801.13 593.96L783.65 609.33L786.81 591.43ZM850.51 619.37L847.33 637.33L858.1 639.23L864.09 605.06L852.81 603.07L839.19 619.06L832.82 599.55L820.22 597.33L814.17 631.48L824.96 633.38L828.19 615.17L834 631.85L839.1 632.75L850.51 619.37Z" fill="#FFFFFF" fill-opacity="1.000000" fill-rule="evenodd"/>
	<path id="гим" d="M768.56 598.02L751.85 595.07L747.49 619.72L735.58 617.62L741.63 583.47L770.25 588.51L768.56 598.02ZM774.9 589.33L786.81 591.43L783.65 609.33L801.13 593.96L812.16 595.9L806.11 630.06L794.14 627.95L797.32 609.99L779.95 625.45L768.86 623.49L774.9 589.33ZM847.33 637.33L850.51 619.37L839.1 632.75L834 631.85L828.19 615.17L824.96 633.38L814.17 631.48L820.22 597.33L832.82 599.55L839.19 619.06L852.81 603.07L864.09 605.06L858.1 639.23L847.33 637.33Z" stroke="#202027" stroke-opacity="1.000000" stroke-width="1.000000"/>
	<rect id="Frame 2043683095" rx="29.500000" width="204.000000" height="125.000000" transform="translate(710.705078 530.387451) rotate(10.000001)" stroke="#202027" stroke-opacity="1.000000" stroke-width="1.000000"/>
</svg>
