<svg width="859.931152" height="796.660645" viewBox="0 0 859.931 796.661" fill="none" xmlns="http://www.w3.org/2000/svg" xmlns:xlink="http://www.w3.org/1999/xlink">
	<desc>
			Created with Pixso.
	</desc>
	<defs/>
	<rect id="Frame 2043683080" rx="29.500000" width="159.000000" height="158.999985" transform="translate(118.008301 0.521484) rotate(10.000000)" fill="#D9B6FF" fill-opacity="1.000000"/>
	<rect id="Frame 2043683080" rx="29.500000" width="159.000000" height="158.999985" transform="translate(118.008301 0.521484) rotate(10.000000)" stroke="#271A58" stroke-opacity="1.000000" stroke-width="1.000000"/>
	<rect id="Frame 2043683097" rx="29.500000" width="159.000000" height="158.999985" transform="translate(287.517090 30.410156) rotate(10.000000)" fill="#1FA46C" fill-opacity="1.000000"/>
	<rect id="Frame 2043683097" rx="29.500000" width="159.000000" height="158.999985" transform="translate(287.517090 30.410156) rotate(10.000000)" stroke="#271A58" stroke-opacity="1.000000" stroke-width="1.000000"/>
	<rect id="Frame 2043683096" rx="29.500000" width="159.000000" height="158.999985" transform="translate(457.025879 60.299805) rotate(10.000000)" fill="#565EEF" fill-opacity="1.000000"/>
	<rect id="Frame 2043683096" rx="29.500000" width="159.000000" height="158.999985" transform="translate(457.025879 60.299805) rotate(10.000000)" stroke="#271A58" stroke-opacity="1.000000" stroke-width="1.000000"/>
	<rect id="Frame 2043683099" rx="29.500000" width="159.000000" height="158.999985" transform="translate(626.535156 90.188477) rotate(10.000000)" fill="#00C1FF" fill-opacity="1.000000"/>
	<rect id="Frame 2043683099" rx="29.500000" width="159.000000" height="158.999985" transform="translate(626.535156 90.188477) rotate(10.000000)" stroke="#271A58" stroke-opacity="1.000000" stroke-width="1.000000"/>
	<rect id="Frame 2043683103" rx="29.500000" width="159.000000" height="158.999985" transform="translate(88.140625 169.908203) rotate(10.000000)" fill="#F25050" fill-opacity="1.000000"/>
	<rect id="Frame 2043683103" rx="29.500000" width="159.000000" height="158.999985" transform="translate(88.140625 169.908203) rotate(10.000000)" stroke="#271A58" stroke-opacity="1.000000" stroke-width="1.000000"/>
	<rect id="Frame 2043683102" rx="29.500000" width="159.000000" height="158.999985" transform="translate(257.649414 199.797363) rotate(10.000000)" fill="#FFC700" fill-opacity="1.000000"/>
	<rect id="Frame 2043683102" rx="29.500000" width="159.000000" height="158.999985" transform="translate(257.649414 199.797363) rotate(10.000000)" stroke="#271A58" stroke-opacity="1.000000" stroke-width="1.000000"/>
	<rect id="Frame 2043683105" rx="29.500000" width="159.000000" height="158.999985" transform="translate(427.158691 229.686523) rotate(10.000000)" fill="#99D100" fill-opacity="1.000000"/>
	<rect id="Frame 2043683105" rx="29.500000" width="159.000000" height="158.999985" transform="translate(427.158691 229.686523) rotate(10.000000)" stroke="#271A58" stroke-opacity="1.000000" stroke-width="1.000000"/>
	<rect id="Frame 2043683107" rx="29.500000" width="159.000000" height="158.999985" transform="translate(596.667480 259.575195) rotate(10.000000)" fill="#AD61FF" fill-opacity="1.000000"/>
	<rect id="Frame 2043683107" rx="29.500000" width="159.000000" height="158.999985" transform="translate(596.667480 259.575195) rotate(10.000000)" stroke="#271A58" stroke-opacity="1.000000" stroke-width="1.000000"/>
	<rect id="Frame 2043683108" rx="29.500000" width="159.000000" height="158.999985" transform="translate(58.273438 339.295410) rotate(10.000000)" fill="#565EEF" fill-opacity="1.000000"/>
	<rect id="Frame 2043683108" rx="29.500000" width="159.000000" height="158.999985" transform="translate(58.273438 339.295410) rotate(10.000000)" stroke="#271A58" stroke-opacity="1.000000" stroke-width="1.000000"/>
	<rect id="Frame 2043683110" rx="29.500000" width="159.000000" height="158.999985" transform="translate(227.782227 369.184570) rotate(10.000000)" fill="#00C1FF" fill-opacity="1.000000"/>
	<rect id="Frame 2043683110" rx="29.500000" width="159.000000" height="158.999985" transform="translate(227.782227 369.184570) rotate(10.000000)" stroke="#271A58" stroke-opacity="1.000000" stroke-width="1.000000"/>
	<rect id="Frame 2043683112" rx="29.500000" width="159.000000" height="158.999985" transform="translate(397.291016 399.073242) rotate(10.000000)" fill="#FF6D00" fill-opacity="1.000000"/>
	<rect id="Frame 2043683112" rx="29.500000" width="159.000000" height="158.999985" transform="translate(397.291016 399.073242) rotate(10.000000)" stroke="#271A58" stroke-opacity="1.000000" stroke-width="1.000000"/>
	<rect id="Frame 2043683111" rx="29.500000" width="159.000000" height="158.999985" transform="translate(566.799805 428.962402) rotate(10.000000)" fill="#1FA46C" fill-opacity="1.000000"/>
	<rect id="Frame 2043683111" rx="29.500000" width="159.000000" height="158.999985" transform="translate(566.799805 428.962402) rotate(10.000000)" stroke="#271A58" stroke-opacity="1.000000" stroke-width="1.000000"/>
	<rect id="Frame 2043683115" rx="29.500000" width="159.000000" height="158.999985" transform="translate(28.405762 508.682129) rotate(10.000000)" fill="#AD61FF" fill-opacity="1.000000"/>
	<rect id="Frame 2043683115" rx="29.500000" width="159.000000" height="158.999985" transform="translate(28.405762 508.682129) rotate(10.000000)" stroke="#271A58" stroke-opacity="1.000000" stroke-width="1.000000"/>
	<rect id="Frame 2043683116" rx="29.500000" width="159.000000" height="158.999985" transform="translate(197.914551 538.571289) rotate(10.000000)" fill="#99D100" fill-opacity="1.000000"/>
	<rect id="Frame 2043683116" rx="29.500000" width="159.000000" height="158.999985" transform="translate(197.914551 538.571289) rotate(10.000000)" stroke="#271A58" stroke-opacity="1.000000" stroke-width="1.000000"/>
	<rect id="Frame 2043683117" rx="29.500000" width="159.000000" height="158.999985" transform="translate(367.423828 568.459961) rotate(10.000000)" fill="#FFC700" fill-opacity="1.000000"/>
	<rect id="Frame 2043683117" rx="29.500000" width="159.000000" height="158.999985" transform="translate(367.423828 568.459961) rotate(10.000000)" stroke="#271A58" stroke-opacity="1.000000" stroke-width="1.000000"/>
	<rect id="Frame 2043683118" rx="29.500000" width="159.000000" height="158.999985" transform="translate(536.932617 598.349121) rotate(10.000000)" fill="#D9B6FF" fill-opacity="1.000000"/>
	<rect id="Frame 2043683118" rx="29.500000" width="159.000000" height="158.999985" transform="translate(536.932617 598.349121) rotate(10.000000)" stroke="#271A58" stroke-opacity="1.000000" stroke-width="1.000000"/>
</svg>
