<svg width="985.580566" height="832.997559" viewBox="0 0 985.581 832.998" fill="none" xmlns="http://www.w3.org/2000/svg" xmlns:xlink="http://www.w3.org/1999/xlink">
	<desc>
			Created with Pixso.
	</desc>
	<defs/>
	<rect id="Frame 2043683103" rx="29.500000" width="166.875168" height="222.833557" transform="translate(120.638184 0.530273) rotate(10.000000)" fill="#565EEF" fill-opacity="1.000000"/>
	<path id="?" d="M178.11 125.28Q175.99 127.46 175.32 131.28L188.89 133.67Q189.11 132.45 189.72 131.49Q190.15 130.81 190.77 130.26Q192.27 128.91 195.25 127.15Q197.98 125.52 199.74 124.14Q201.52 122.75 203.01 120.53Q204.52 118.32 205.07 115.21Q205.69 111.7 204.69 108.74Q203.76 105.96 201.41 103.66Q196.55 98.91 187.48 97.31Q179.4 95.88 173.14 97.85Q169.2 99.09 166.12 101.46Q164.32 102.84 162.82 104.61L173.12 112.71Q174.47 111.13 176.16 110.16Q176.96 109.7 177.84 109.37Q178.6 109.09 179.38 108.93Q181.42 108.51 183.62 108.9Q186.58 109.42 188.21 111.09Q189.11 112.01 189.4 113.09Q189.64 113.98 189.46 114.98Q189.39 115.37 189.25 115.75Q188.85 116.88 187.85 117.8Q186.54 119.01 183.97 120.69Q180.25 123.09 178.11 125.28ZM174.23 150.71Q175.98 152.15 178.55 152.6Q181.29 153.09 183.54 152.24Q184.42 151.91 185.22 151.38Q186.67 150.41 187.54 149.07Q188.37 147.78 188.66 146.13Q189.01 144.16 188.49 142.46Q188.1 141.18 187.22 140.06Q186.76 139.46 186.2 138.96Q184.31 137.26 181.36 136.74Q178.38 136.22 176.02 137.19Q175.36 137.47 174.75 137.86Q173.59 138.59 172.81 139.61Q171.71 141.06 171.35 143.08Q171.06 144.72 171.4 146.22Q171.75 147.78 172.78 149.19Q173.42 150.05 174.23 150.71Z" fill="#FFFFFF" fill-opacity="1.000000" fill-rule="evenodd"/>
	<path id="?" d="M175.32 131.28Q175.99 127.46 178.11 125.28Q180.25 123.09 183.97 120.69Q186.54 119.01 187.85 117.8Q189.18 116.58 189.46 114.98Q189.85 112.76 188.21 111.09Q186.58 109.42 183.62 108.9Q180.57 108.36 177.84 109.37Q175.1 110.39 173.12 112.71L162.82 104.61Q166.89 99.82 173.14 97.85Q179.4 95.88 187.48 97.31Q196.55 98.91 201.41 103.66Q206.27 108.42 205.07 115.21Q204.52 118.32 203.01 120.53Q201.52 122.75 199.74 124.14Q197.98 125.52 195.25 127.15Q192.27 128.91 190.77 130.26Q189.26 131.61 188.89 133.67L175.32 131.28ZM178.55 152.6Q174.81 151.94 172.78 149.19Q170.75 146.43 171.35 143.08Q171.96 139.63 174.75 137.86Q177.54 136.07 181.36 136.74Q185.18 137.41 187.22 140.06Q189.27 142.69 188.66 146.13Q188.07 149.48 185.22 151.38Q182.37 153.28 178.55 152.6Z" stroke="#271A58" stroke-opacity="1.000000" stroke-width="0.806750"/>
	<rect id="Frame 2043683103" rx="29.500000" width="166.875168" height="222.833557" transform="translate(120.638184 0.530273) rotate(10.000000)" stroke="#271A58" stroke-opacity="1.000000" stroke-width="1.000000"/>
	<rect id="Frame 2043683100" rx="29.500000" width="166.875168" height="222.833557" transform="translate(295.667480 31.392578) rotate(10.000000)" fill="#009EE4" fill-opacity="1.000000"/>
	<path id="?" d="M353.14 156.14Q351.02 158.32 350.35 162.14L363.92 164.54Q364.14 163.32 364.75 162.35Q365.18 161.67 365.8 161.12Q367.3 159.77 370.28 158.01Q373.01 156.38 374.77 155Q376.55 153.61 378.04 151.39Q379.55 149.18 380.1 146.08Q380.72 142.56 379.72 139.6Q378.79 136.82 376.44 134.52Q371.58 129.77 362.51 128.17Q354.43 126.75 348.17 128.71Q344.23 129.96 341.15 132.32Q339.35 133.71 337.85 135.48L348.15 143.57Q349.5 141.99 351.19 141.02Q351.99 140.56 352.87 140.24Q353.63 139.95 354.41 139.79Q356.45 139.37 358.65 139.76Q361.61 140.28 363.24 141.95Q364.14 142.87 364.43 143.95Q364.67 144.84 364.49 145.84Q364.42 146.24 364.28 146.61Q363.88 147.74 362.87 148.66Q361.57 149.87 359 151.55Q355.28 153.95 353.14 156.14ZM349.26 181.58Q351.01 183.01 353.58 183.47Q356.32 183.95 358.57 183.11Q359.45 182.78 360.25 182.24Q361.7 181.28 362.57 179.93Q363.4 178.64 363.69 176.99Q364.04 175.02 363.52 173.32Q363.13 172.05 362.25 170.92Q361.79 170.32 361.23 169.82Q359.34 168.12 356.39 167.6Q353.41 167.08 351.05 168.06Q350.39 168.33 349.78 168.72Q348.62 169.46 347.84 170.47Q346.73 171.92 346.38 173.94Q346.09 175.58 346.43 177.08Q346.78 178.64 347.81 180.05Q348.45 180.92 349.26 181.58Z" fill="#FFFFFF" fill-opacity="1.000000" fill-rule="evenodd"/>
	<path id="?" d="M350.35 162.14Q351.02 158.32 353.14 156.14Q355.28 153.95 359 151.55Q361.57 149.87 362.87 148.66Q364.21 147.44 364.49 145.84Q364.88 143.62 363.24 141.95Q361.61 140.28 358.65 139.76Q355.6 139.22 352.87 140.24Q350.13 141.25 348.15 143.57L337.85 135.48Q341.92 130.68 348.17 128.71Q354.43 126.75 362.51 128.17Q371.58 129.77 376.44 134.52Q381.3 139.28 380.1 146.08Q379.55 149.18 378.04 151.39Q376.55 153.61 374.77 155Q373.01 156.38 370.28 158.01Q367.3 159.77 365.8 161.12Q364.29 162.47 363.92 164.54L350.35 162.14ZM353.58 183.47Q349.84 182.81 347.81 180.05Q345.78 177.29 346.38 173.94Q346.99 170.5 349.78 168.72Q352.57 166.93 356.39 167.6Q360.21 168.28 362.25 170.92Q364.3 173.55 363.69 176.99Q363.1 180.35 360.25 182.24Q357.4 184.14 353.58 183.47Z" stroke="#271A58" stroke-opacity="1.000000" stroke-width="0.806750"/>
	<rect id="Frame 2043683100" rx="29.500000" width="166.875168" height="222.833557" transform="translate(295.667480 31.392578) rotate(10.000000)" stroke="#271A58" stroke-opacity="1.000000" stroke-width="1.000000"/>
	<rect id="Frame 2043683094" rx="29.500000" width="166.875168" height="222.833557" transform="translate(470.696777 62.254883) rotate(10.000000)" fill="#AD61FF" fill-opacity="1.000000"/>
	<path id="?" d="M526.95 187.04Q524.33 189.74 523.49 194.47L540.31 197.44Q540.58 195.93 541.34 194.73Q541.87 193.89 542.63 193.2Q544.5 191.53 548.2 189.35Q551.58 187.33 553.76 185.62Q555.97 183.89 557.81 181.15Q559.68 178.41 560.36 174.55Q561.13 170.2 559.9 166.53Q558.74 163.09 555.83 160.24Q549.8 154.34 538.56 152.36Q528.54 150.6 520.78 153.03Q515.9 154.57 512.09 157.5Q509.86 159.22 507.99 161.42L520.76 171.45Q522.43 169.5 524.53 168.29Q525.52 167.72 526.61 167.32Q527.55 166.97 528.52 166.77Q531.05 166.24 533.78 166.73Q537.45 167.37 539.46 169.44Q540.58 170.58 540.94 171.92Q541.23 173.02 541.01 174.26Q540.93 174.75 540.76 175.22Q540.25 176.62 539.01 177.76Q537.39 179.26 534.21 181.34Q529.59 184.31 526.95 187.04ZM522.13 218.56Q524.31 220.34 527.49 220.9Q530.89 221.5 533.68 220.46Q534.77 220.05 535.76 219.39Q537.56 218.19 538.63 216.52Q539.67 214.92 540.03 212.88Q540.46 210.44 539.81 208.32Q539.33 206.75 538.24 205.35Q537.67 204.61 536.98 203.99Q534.63 201.88 530.98 201.24Q527.28 200.59 524.35 201.8Q523.54 202.14 522.78 202.63Q521.35 203.54 520.38 204.8Q519.01 206.59 518.56 209.09Q518.2 211.13 518.62 212.99Q519.06 214.92 520.34 216.67Q521.13 217.74 522.13 218.56Z" fill="#FFFFFF" fill-opacity="1.000000" fill-rule="evenodd"/>
	<path id="?" d="M523.49 194.47Q524.33 189.74 526.95 187.04Q529.59 184.31 534.21 181.34Q537.39 179.26 539.01 177.76Q540.66 176.25 541.01 174.26Q541.5 171.51 539.46 169.44Q537.45 167.37 533.78 166.73Q530 166.06 526.61 167.32Q523.22 168.58 520.76 171.45L507.99 161.42Q513.04 155.48 520.78 153.03Q528.54 150.6 538.56 152.36Q549.8 154.34 555.83 160.24Q561.85 166.13 560.36 174.55Q559.68 178.41 557.81 181.15Q555.97 183.89 553.76 185.62Q551.58 187.33 548.2 189.35Q544.5 191.53 542.63 193.2Q540.77 194.87 540.31 197.44L523.49 194.47ZM527.49 220.9Q522.85 220.08 520.34 216.67Q517.83 213.25 518.56 209.09Q519.32 204.82 522.78 202.63Q526.24 200.41 530.98 201.24Q535.71 202.07 538.24 205.35Q540.79 208.61 540.03 212.88Q539.29 217.03 535.76 219.39Q532.22 221.74 527.49 220.9Z" stroke="#271A58" stroke-opacity="1.000000" stroke-width="0.806750"/>
	<rect id="Frame 2043683094" rx="29.500000" width="166.875168" height="222.833557" transform="translate(470.696777 62.254883) rotate(10.000000)" stroke="#271A58" stroke-opacity="1.000000" stroke-width="1.000000"/>
	<rect id="Frame 2043683095" rx="29.500000" width="166.875168" height="222.833557" transform="translate(645.726074 93.117188) rotate(10.000000)" fill="#F25050" fill-opacity="1.000000"/>
	<path id="?" d="M701.98 217.9Q699.35 220.6 698.52 225.33L715.34 228.3Q715.61 226.79 716.37 225.59Q716.9 224.75 717.66 224.07Q719.53 222.4 723.22 220.22Q726.61 218.19 728.79 216.49Q731 214.76 732.84 212.01Q734.71 209.27 735.39 205.42Q736.16 201.06 734.93 197.39Q733.77 193.95 730.86 191.1Q724.83 185.21 713.59 183.22Q703.57 181.46 695.81 183.9Q690.93 185.44 687.12 188.37Q684.89 190.08 683.02 192.28L695.79 202.31Q697.46 200.36 699.56 199.15Q700.55 198.58 701.64 198.18Q702.58 197.83 703.55 197.63Q706.08 197.11 708.81 197.59Q712.48 198.24 714.49 200.3Q715.61 201.44 715.97 202.78Q716.26 203.89 716.04 205.12Q715.96 205.62 715.79 206.08Q715.28 207.48 714.04 208.63Q712.42 210.12 709.24 212.21Q704.62 215.18 701.98 217.9ZM697.16 249.42Q699.34 251.2 702.52 251.76Q705.92 252.36 708.71 251.32Q709.79 250.91 710.79 250.25Q712.59 249.05 713.66 247.38Q714.7 245.78 715.06 243.74Q715.49 241.3 714.84 239.19Q714.36 237.61 713.27 236.22Q712.7 235.47 712.01 234.85Q709.66 232.75 706 232.1Q702.31 231.45 699.38 232.66Q698.57 233 697.81 233.49Q696.38 234.4 695.41 235.66Q694.04 237.45 693.59 239.96Q693.23 241.99 693.65 243.85Q694.09 245.79 695.37 247.53Q696.16 248.6 697.16 249.42Z" fill="#FFFFFF" fill-opacity="1.000000" fill-rule="evenodd"/>
	<path id="?" d="M698.52 225.33Q699.35 220.6 701.98 217.9Q704.62 215.18 709.24 212.21Q712.42 210.12 714.04 208.63Q715.69 207.11 716.04 205.12Q716.53 202.38 714.49 200.3Q712.48 198.24 708.81 197.59Q705.02 196.92 701.64 198.18Q698.25 199.44 695.79 202.31L683.02 192.28Q688.07 186.34 695.81 183.9Q703.57 181.46 713.59 183.22Q724.83 185.21 730.86 191.1Q736.88 196.99 735.39 205.42Q734.71 209.27 732.84 212.01Q731 214.76 728.79 216.49Q726.61 218.19 723.22 220.22Q719.53 222.4 717.66 224.07Q715.8 225.74 715.34 228.3L698.52 225.33ZM702.52 251.76Q697.88 250.95 695.37 247.53Q692.86 244.11 693.59 239.96Q694.35 235.69 697.81 233.49Q701.27 231.27 706 232.1Q710.74 232.94 713.27 236.22Q715.81 239.47 715.06 243.74Q714.32 247.9 710.79 250.25Q707.25 252.6 702.52 251.76Z" stroke="#271A58" stroke-opacity="1.000000" stroke-width="0.806750"/>
	<rect id="Frame 2043683095" rx="29.500000" width="166.875168" height="222.833557" transform="translate(645.726074 93.117188) rotate(10.000000)" stroke="#271A58" stroke-opacity="1.000000" stroke-width="1.000000"/>
	<rect id="Frame 2043683101" rx="29.500000" width="166.875168" height="222.833557" transform="translate(820.755371 123.979492) rotate(10.000000)" fill="#009EE4" fill-opacity="1.000000"/>
	<path id="?" d="M878.23 248.73Q876.11 250.91 875.44 254.73L889.01 257.12Q889.23 255.9 889.84 254.94Q890.26 254.26 890.88 253.71Q892.39 252.36 895.37 250.6Q898.1 248.97 899.86 247.59Q901.64 246.2 903.13 243.98Q904.63 241.77 905.19 238.66Q905.81 235.15 904.81 232.19Q903.88 229.41 901.53 227.11Q896.67 222.36 887.6 220.76Q879.52 219.33 873.25 221.3Q869.32 222.54 866.24 224.91Q864.44 226.29 862.93 228.06L873.23 236.16Q874.58 234.58 876.28 233.61Q877.08 233.15 877.95 232.82Q878.71 232.54 879.5 232.38Q881.54 231.96 883.74 232.35Q886.7 232.87 888.33 234.54Q889.23 235.46 889.52 236.54Q889.75 237.43 889.58 238.43Q889.51 238.82 889.37 239.2Q888.96 240.33 887.96 241.25Q886.65 242.46 884.09 244.14Q880.36 246.53 878.23 248.73ZM874.34 274.16Q876.1 275.6 878.67 276.05Q881.41 276.54 883.66 275.69Q884.54 275.36 885.34 274.83Q886.79 273.86 887.66 272.52Q888.49 271.22 888.78 269.58Q889.13 267.61 888.61 265.9Q888.22 264.63 887.34 263.51Q886.88 262.91 886.32 262.41Q884.43 260.71 881.48 260.19Q878.49 259.66 876.14 260.64Q875.48 260.92 874.87 261.31Q873.71 262.04 872.93 263.06Q871.82 264.51 871.46 266.53Q871.17 268.17 871.51 269.67Q871.87 271.23 872.9 272.64Q873.54 273.5 874.34 274.16Z" fill="#FFFFFF" fill-opacity="1.000000" fill-rule="evenodd"/>
	<path id="?" d="M875.44 254.73Q876.11 250.91 878.23 248.73Q880.36 246.53 884.09 244.14Q886.65 242.46 887.96 241.25Q889.29 240.03 889.58 238.43Q889.97 236.21 888.33 234.54Q886.7 232.87 883.74 232.35Q880.69 231.81 877.95 232.82Q875.22 233.84 873.23 236.16L862.93 228.06Q867.01 223.27 873.25 221.3Q879.52 219.33 887.6 220.76Q896.67 222.36 901.53 227.11Q906.39 231.87 905.19 238.66Q904.63 241.77 903.13 243.98Q901.64 246.2 899.86 247.59Q898.1 248.97 895.37 250.6Q892.39 252.36 890.88 253.71Q889.38 255.06 889.01 257.12L875.44 254.73ZM878.67 276.05Q874.93 275.39 872.9 272.64Q870.87 269.88 871.46 266.53Q872.07 263.08 874.87 261.31Q877.66 259.52 881.48 260.19Q885.3 260.86 887.34 263.51Q889.39 266.14 888.78 269.58Q888.19 272.93 885.34 274.83Q882.49 276.73 878.67 276.05Z" stroke="#271A58" stroke-opacity="1.000000" stroke-width="0.806750"/>
	<rect id="Frame 2043683101" rx="29.500000" width="166.875168" height="222.833557" transform="translate(820.755371 123.979492) rotate(10.000000)" stroke="#271A58" stroke-opacity="1.000000" stroke-width="1.000000"/>
	<rect id="Frame 2043683104" rx="29.500000" width="166.875168" height="222.833557" transform="translate(80.088379 230.497070) rotate(10.000000)" fill="#1FA46C" fill-opacity="1.000000"/>
	<path id="?" d="M137.56 355.25Q135.45 357.43 134.77 361.25L148.34 363.64Q148.56 362.42 149.17 361.45Q149.6 360.78 150.22 360.23Q151.72 358.88 154.7 357.12Q157.43 355.49 159.19 354.11Q160.98 352.71 162.46 350.5Q163.97 348.29 164.52 345.18Q165.14 341.67 164.14 338.7Q163.21 335.93 160.86 333.63Q156 328.87 146.93 327.28Q138.85 325.85 132.59 327.82Q128.65 329.06 125.57 331.43Q123.77 332.81 122.27 334.58L132.57 342.68Q133.92 341.1 135.61 340.13Q136.41 339.67 137.29 339.34Q138.05 339.06 138.83 338.9Q140.87 338.48 143.07 338.86Q146.03 339.39 147.66 341.05Q148.56 341.97 148.85 343.06Q149.09 343.94 148.91 344.94Q148.84 345.34 148.7 345.71Q148.3 346.85 147.3 347.77Q145.99 348.98 143.42 350.66Q139.7 353.05 137.56 355.25ZM133.68 380.68Q135.44 382.12 138 382.57Q140.75 383.05 142.99 382.21Q143.87 381.88 144.67 381.35Q146.12 380.38 146.99 379.04Q147.82 377.74 148.12 376.1Q148.46 374.13 147.94 372.42Q147.55 371.15 146.67 370.03Q146.21 369.43 145.65 368.93Q143.76 367.23 140.81 366.71Q137.83 366.18 135.47 367.16Q134.81 367.44 134.2 367.83Q133.05 368.56 132.26 369.58Q131.16 371.02 130.8 373.04Q130.51 374.69 130.85 376.19Q131.2 377.75 132.23 379.15Q132.87 380.02 133.68 380.68Z" fill="#FFFFFF" fill-opacity="1.000000" fill-rule="evenodd"/>
	<path id="?" d="M134.77 361.25Q135.45 357.43 137.56 355.25Q139.7 353.05 143.42 350.66Q145.99 348.98 147.3 347.77Q148.63 346.54 148.91 344.94Q149.3 342.73 147.66 341.05Q146.03 339.39 143.07 338.86Q140.02 338.33 137.29 339.34Q134.55 340.36 132.57 342.68L122.27 334.58Q126.34 329.79 132.59 327.82Q138.85 325.85 146.93 327.28Q156 328.87 160.86 333.63Q165.72 338.38 164.52 345.18Q163.97 348.29 162.46 350.5Q160.98 352.71 159.19 354.11Q157.43 355.49 154.7 357.12Q151.72 358.88 150.22 360.23Q148.71 361.57 148.34 363.64L134.77 361.25ZM138 382.57Q134.26 381.91 132.23 379.15Q130.2 376.4 130.8 373.04Q131.41 369.6 134.2 367.83Q136.99 366.03 140.81 366.71Q144.63 367.38 146.67 370.03Q148.73 372.65 148.12 376.1Q147.52 379.45 144.67 381.35Q141.82 383.24 138 382.57Z" stroke="#271A58" stroke-opacity="1.000000" stroke-width="0.806750"/>
	<rect id="Frame 2043683104" rx="29.500000" width="166.875168" height="222.833557" transform="translate(80.088379 230.497070) rotate(10.000000)" stroke="#271A58" stroke-opacity="1.000000" stroke-width="1.000000"/>
	<rect id="Frame 2043683096" rx="29.500000" width="166.875168" height="222.833557" transform="translate(255.117676 261.359375) rotate(10.000000)" fill="#F25050" fill-opacity="1.000000"/>
	<path id="?" d="M311.37 386.14Q308.75 388.84 307.91 393.57L324.73 396.54Q325 395.03 325.76 393.83Q326.29 392.99 327.06 392.31Q328.92 390.64 332.62 388.46Q336 386.44 338.18 384.73Q340.39 383 342.23 380.25Q344.1 377.51 344.78 373.66Q345.55 369.31 344.32 365.63Q343.16 362.19 340.25 359.34Q334.22 353.45 322.98 351.47Q312.97 349.7 305.2 352.14Q300.32 353.68 296.51 356.61Q294.28 358.33 292.41 360.52L305.18 370.55Q306.85 368.6 308.95 367.39Q309.94 366.82 311.03 366.42Q311.97 366.07 312.94 365.87Q315.47 365.35 318.2 365.83Q321.87 366.48 323.89 368.55Q325 369.68 325.36 371.03Q325.66 372.13 325.44 373.37Q325.35 373.86 325.18 374.32Q324.67 375.73 323.43 376.87Q321.81 378.37 318.64 380.45Q314.01 383.42 311.37 386.14ZM306.55 417.66Q308.73 419.45 311.91 420.01Q315.32 420.61 318.1 419.56Q319.19 419.15 320.18 418.49Q321.98 417.29 323.06 415.63Q324.09 414.02 324.45 411.98Q324.88 409.54 324.24 407.43Q323.75 405.85 322.67 404.46Q322.09 403.71 321.4 403.09Q319.05 400.99 315.4 400.34Q311.7 399.69 308.78 400.91Q307.96 401.25 307.2 401.73Q305.77 402.64 304.8 403.9Q303.43 405.69 302.99 408.2Q302.62 410.24 303.04 412.1Q303.48 414.03 304.76 415.77Q305.55 416.85 306.55 417.66Z" fill="#FFFFFF" fill-opacity="1.000000" fill-rule="evenodd"/>
	<path id="?" d="M307.91 393.57Q308.75 388.84 311.37 386.14Q314.01 383.42 318.64 380.45Q321.81 378.37 323.43 376.87Q325.08 375.35 325.44 373.37Q325.92 370.62 323.89 368.55Q321.87 366.48 318.2 365.83Q314.42 365.16 311.03 366.42Q307.64 367.68 305.18 370.55L292.41 360.52Q297.46 354.58 305.2 352.14Q312.97 349.7 322.98 351.47Q334.22 353.45 340.25 359.34Q346.27 365.24 344.78 373.66Q344.1 377.51 342.23 380.25Q340.39 383 338.18 384.73Q336 386.44 332.62 388.46Q328.92 390.64 327.06 392.31Q325.19 393.98 324.73 396.54L307.91 393.57ZM311.91 420.01Q307.27 419.19 304.76 415.77Q302.25 412.35 302.99 408.2Q303.74 403.93 307.2 401.73Q310.67 399.51 315.4 400.34Q320.13 401.18 322.67 404.46Q325.21 407.71 324.45 411.98Q323.71 416.14 320.18 418.49Q316.65 420.84 311.91 420.01Z" stroke="#271A58" stroke-opacity="1.000000" stroke-width="0.806750"/>
	<rect id="Frame 2043683096" rx="29.500000" width="166.875168" height="222.833557" transform="translate(255.117676 261.359375) rotate(10.000000)" stroke="#271A58" stroke-opacity="1.000000" stroke-width="1.000000"/>
	<rect id="Frame 2043683112" rx="29.500000" width="166.875168" height="222.833557" transform="translate(430.147461 292.221680) rotate(10.000000)" fill="#009EE4" fill-opacity="1.000000"/>
	<path id="?" d="M487.62 416.97Q485.5 419.15 484.83 422.97L498.4 425.36Q498.62 424.15 499.23 423.18Q499.66 422.5 500.27 421.95Q501.78 420.6 504.76 418.84Q507.49 417.21 509.25 415.83Q511.03 414.44 512.52 412.22Q514.03 410.01 514.58 406.9Q515.2 403.39 514.2 400.43Q513.27 397.65 510.92 395.35Q506.06 390.6 496.99 389Q488.91 387.58 482.65 389.54Q478.71 390.79 475.63 393.15Q473.83 394.54 472.33 396.31L482.63 404.4Q483.97 402.82 485.67 401.85Q486.47 401.39 487.34 401.07Q488.11 400.78 488.89 400.62Q490.93 400.2 493.13 400.59Q496.09 401.11 497.72 402.78Q498.62 403.7 498.91 404.78Q499.15 405.67 498.97 406.67Q498.9 407.06 498.76 407.44Q498.35 408.57 497.35 409.49Q496.05 410.7 493.48 412.38Q489.76 414.78 487.62 416.97ZM483.73 442.41Q485.49 443.84 488.06 444.3Q490.8 444.78 493.05 443.93Q493.93 443.6 494.73 443.07Q496.18 442.1 497.05 440.76Q497.88 439.47 498.17 437.82Q498.52 435.85 498 434.15Q497.61 432.87 496.73 431.75Q496.27 431.15 495.71 430.65Q493.82 428.95 490.87 428.43Q487.89 427.91 485.53 428.89Q484.87 429.16 484.26 429.55Q483.1 430.28 482.32 431.3Q481.21 432.75 480.86 434.77Q480.57 436.41 480.9 437.91Q481.26 439.47 482.29 440.88Q482.93 441.75 483.73 442.41Z" fill="#FFFFFF" fill-opacity="1.000000" fill-rule="evenodd"/>
	<path id="?" d="M484.83 422.97Q485.5 419.15 487.62 416.97Q489.76 414.78 493.48 412.38Q496.05 410.7 497.35 409.49Q498.68 408.27 498.97 406.67Q499.36 404.45 497.72 402.78Q496.09 401.11 493.13 400.59Q490.08 400.05 487.34 401.07Q484.61 402.08 482.63 404.4L472.33 396.31Q476.4 391.51 482.65 389.54Q488.91 387.58 496.99 389Q506.06 390.6 510.92 395.35Q515.78 400.11 514.58 406.9Q514.03 410.01 512.52 412.22Q511.03 414.44 509.25 415.83Q507.49 417.21 504.76 418.84Q501.78 420.6 500.27 421.95Q498.77 423.3 498.4 425.36L484.83 422.97ZM488.06 444.3Q484.32 443.64 482.29 440.88Q480.26 438.12 480.86 434.77Q481.47 431.33 484.26 429.55Q487.05 427.76 490.87 428.43Q494.69 429.11 496.73 431.75Q498.78 434.38 498.17 437.82Q497.58 441.17 494.73 443.07Q491.88 444.97 488.06 444.3Z" stroke="#271A58" stroke-opacity="1.000000" stroke-width="0.806750"/>
	<rect id="Frame 2043683112" rx="29.500000" width="166.875168" height="222.833557" transform="translate(430.147461 292.221680) rotate(10.000000)" stroke="#271A58" stroke-opacity="1.000000" stroke-width="1.000000"/>
	<rect id="Frame 2043683098" rx="29.500000" width="166.875168" height="222.833557" transform="translate(605.176758 323.083984) rotate(10.000000)" fill="#99D100" fill-opacity="1.000000"/>
	<path id="?" d="M661.43 447.86Q658.81 450.57 657.97 455.3L674.79 458.27Q675.06 456.76 675.82 455.56Q676.35 454.72 677.11 454.03Q678.98 452.36 682.68 450.18Q686.06 448.16 688.24 446.45Q690.45 444.72 692.29 441.98Q694.16 439.24 694.84 435.38Q695.61 431.03 694.38 427.35Q693.22 423.92 690.31 421.07Q684.28 415.17 673.04 413.19Q663.02 411.42 655.26 413.86Q650.38 415.4 646.57 418.33Q644.34 420.05 642.47 422.25L655.24 432.28Q656.91 430.33 659.01 429.12Q660 428.55 661.09 428.15Q662.03 427.8 663 427.59Q665.53 427.07 668.26 427.56Q671.93 428.2 673.94 430.27Q675.06 431.41 675.42 432.75Q675.71 433.85 675.49 435.09Q675.41 435.58 675.24 436.05Q674.73 437.45 673.49 438.59Q671.87 440.09 668.69 442.17Q664.07 445.14 661.43 447.86ZM656.61 479.39Q658.79 481.17 661.97 481.73Q665.37 482.33 668.16 481.28Q669.25 480.88 670.24 480.21Q672.04 479.02 673.11 477.35Q674.15 475.75 674.51 473.71Q674.94 471.26 674.29 469.15Q673.81 467.57 672.72 466.18Q672.15 465.44 671.46 464.82Q669.11 462.71 665.46 462.07Q661.76 461.42 658.83 462.63Q658.02 462.97 657.26 463.46Q655.83 464.36 654.86 465.63Q653.49 467.42 653.04 469.92Q652.68 471.96 653.1 473.82Q653.54 475.75 654.82 477.5Q655.61 478.57 656.61 479.39Z" fill="#FFFFFF" fill-opacity="1.000000" fill-rule="evenodd"/>
	<path id="?" d="M657.97 455.3Q658.81 450.57 661.43 447.86Q664.07 445.14 668.69 442.17Q671.87 440.09 673.49 438.59Q675.14 437.07 675.49 435.09Q675.98 432.34 673.94 430.27Q671.93 428.2 668.26 427.56Q664.48 426.89 661.09 428.15Q657.7 429.41 655.24 432.28L642.47 422.25Q647.52 416.31 655.26 413.86Q663.02 411.42 673.04 413.19Q684.28 415.17 690.31 421.07Q696.33 426.96 694.84 435.38Q694.16 439.24 692.29 441.98Q690.45 444.72 688.24 446.45Q686.06 448.16 682.68 450.18Q678.98 452.36 677.11 454.03Q675.25 455.7 674.79 458.27L657.97 455.3ZM661.97 481.73Q657.33 480.91 654.82 477.5Q652.31 474.08 653.04 469.92Q653.8 465.65 657.26 463.46Q660.72 461.23 665.46 462.07Q670.19 462.9 672.72 466.18Q675.27 469.44 674.51 473.71Q673.77 477.86 670.24 480.21Q666.7 482.57 661.97 481.73Z" stroke="#271A58" stroke-opacity="1.000000" stroke-width="0.806750"/>
	<rect id="Frame 2043683098" rx="29.500000" width="166.875168" height="222.833557" transform="translate(605.176758 323.083984) rotate(10.000000)" stroke="#271A58" stroke-opacity="1.000000" stroke-width="1.000000"/>
	<rect id="Frame 2043683102" rx="29.500000" width="166.875168" height="222.833557" transform="translate(780.206055 353.946777) rotate(10.000000)" fill="#FFC700" fill-opacity="1.000000"/>
	<path id="?" d="M837.68 478.7Q835.56 480.88 834.89 484.7L848.46 487.09Q848.68 485.87 849.29 484.9Q849.72 484.23 850.33 483.68Q851.84 482.33 854.82 480.57Q857.55 478.94 859.31 477.56Q861.09 476.16 862.58 473.95Q864.08 471.74 864.64 468.63Q865.26 465.12 864.26 462.15Q863.33 459.38 860.98 457.08Q856.12 452.32 847.05 450.73Q838.97 449.3 832.7 451.27Q828.77 452.51 825.69 454.88Q823.89 456.26 822.39 458.03L832.68 466.13Q834.03 464.55 835.73 463.58Q836.53 463.12 837.4 462.79Q838.16 462.51 838.95 462.35Q840.99 461.93 843.19 462.31Q846.15 462.84 847.78 464.5Q848.68 465.42 848.97 466.51Q849.2 467.39 849.03 468.39Q848.96 468.79 848.82 469.16Q848.41 470.3 847.41 471.22Q846.1 472.43 843.54 474.11Q839.81 476.5 837.68 478.7ZM833.79 504.13Q835.55 505.57 838.12 506.02Q840.86 506.5 843.11 505.66Q843.99 505.33 844.79 504.8Q846.24 503.83 847.11 502.49Q847.94 501.19 848.23 499.55Q848.58 497.58 848.06 495.87Q847.67 494.6 846.79 493.48Q846.33 492.87 845.77 492.37Q843.88 490.68 840.93 490.16Q837.95 489.63 835.59 490.61Q834.93 490.89 834.32 491.28Q833.16 492.01 832.38 493.03Q831.27 494.47 830.92 496.49Q830.62 498.14 830.96 499.64Q831.32 501.2 832.35 502.6Q832.99 503.47 833.79 504.13Z" fill="#FFFFFF" fill-opacity="1.000000" fill-rule="evenodd"/>
	<path id="?" d="M834.89 484.7Q835.56 480.88 837.68 478.7Q839.81 476.5 843.54 474.11Q846.1 472.43 847.41 471.22Q848.74 469.99 849.03 468.39Q849.42 466.18 847.78 464.5Q846.15 462.84 843.19 462.31Q840.14 461.78 837.4 462.79Q834.67 463.81 832.68 466.13L822.39 458.03Q826.46 453.24 832.7 451.27Q838.97 449.3 847.05 450.73Q856.12 452.32 860.98 457.08Q865.84 461.83 864.64 468.63Q864.08 471.74 862.58 473.95Q861.09 476.16 859.31 477.56Q857.55 478.94 854.82 480.57Q851.84 482.33 850.33 483.68Q848.83 485.02 848.46 487.09L834.89 484.7ZM838.12 506.02Q834.38 505.36 832.35 502.6Q830.32 499.85 830.92 496.49Q831.53 493.05 834.32 491.28Q837.11 489.48 840.93 490.16Q844.75 490.83 846.79 493.48Q848.84 496.1 848.23 499.55Q847.64 502.9 844.79 504.8Q841.94 506.69 838.12 506.02Z" stroke="#271A58" stroke-opacity="1.000000" stroke-width="0.806750"/>
	<rect id="Frame 2043683102" rx="29.500000" width="166.875168" height="222.833557" transform="translate(780.206055 353.946777) rotate(10.000000)" stroke="#271A58" stroke-opacity="1.000000" stroke-width="1.000000"/>
	<rect id="Frame 2043683109" rx="29.500000" width="166.875168" height="222.833557" transform="translate(39.539062 460.463867) rotate(10.000000)" fill="#009EE4" fill-opacity="1.000000"/>
	<path id="?" d="M97.01 585.21Q94.9 587.4 94.22 591.21L107.79 593.61Q108.01 592.39 108.62 591.42Q109.05 590.75 109.67 590.19Q111.17 588.84 114.15 587.09Q116.88 585.46 118.64 584.08Q120.43 582.68 121.91 580.47Q123.42 578.26 123.97 575.15Q124.59 571.64 123.59 568.67Q122.66 565.89 120.31 563.59Q115.45 558.84 106.38 557.24Q98.3 555.82 92.04 557.78Q88.1 559.03 85.03 561.39Q83.22 562.78 81.72 564.55L92.02 572.64Q93.37 571.07 95.06 570.09Q95.86 569.63 96.74 569.31Q97.5 569.03 98.28 568.86Q100.32 568.44 102.52 568.83Q105.49 569.35 107.11 571.02Q108.01 571.94 108.3 573.02Q108.54 573.91 108.36 574.91Q108.29 575.31 108.16 575.68Q107.75 576.81 106.75 577.74Q105.44 578.94 102.87 580.62Q99.15 583.02 97.01 585.21ZM93.13 610.65Q94.89 612.09 97.45 612.54Q100.2 613.02 102.44 612.18Q103.32 611.85 104.12 611.31Q105.57 610.35 106.44 609Q107.27 607.71 107.57 606.07Q107.92 604.09 107.39 602.39Q107 601.12 106.13 599.99Q105.66 599.39 105.1 598.89Q103.21 597.19 100.26 596.67Q97.28 596.15 94.92 597.13Q94.26 597.4 93.65 597.79Q92.5 598.53 91.71 599.55Q90.61 600.99 90.25 603.01Q89.96 604.65 90.3 606.16Q90.65 607.71 91.68 609.12Q92.32 609.99 93.13 610.65Z" fill="#FFFFFF" fill-opacity="1.000000" fill-rule="evenodd"/>
	<path id="?" d="M94.22 591.21Q94.9 587.4 97.01 585.21Q99.15 583.02 102.87 580.62Q105.44 578.94 106.75 577.74Q108.08 576.51 108.36 574.91Q108.75 572.69 107.11 571.02Q105.49 569.35 102.52 568.83Q99.47 568.29 96.74 569.31Q94 570.32 92.02 572.64L81.72 564.55Q85.79 559.76 92.04 557.78Q98.3 555.82 106.38 557.24Q115.45 558.84 120.31 563.59Q125.17 568.35 123.97 575.15Q123.42 578.26 121.91 580.47Q120.43 582.68 118.64 584.08Q116.88 585.46 114.15 587.09Q111.17 588.84 109.67 590.19Q108.16 591.54 107.79 593.61L94.22 591.21ZM97.45 612.54Q93.71 611.88 91.68 609.12Q89.65 606.36 90.25 603.01Q90.86 599.57 93.65 597.79Q96.44 596 100.26 596.67Q104.08 597.35 106.13 599.99Q108.18 602.62 107.57 606.07Q106.97 609.42 104.12 611.31Q101.27 613.21 97.45 612.54Z" stroke="#271A58" stroke-opacity="1.000000" stroke-width="0.806750"/>
	<rect id="Frame 2043683109" rx="29.500000" width="166.875168" height="222.833557" transform="translate(39.539062 460.463867) rotate(10.000000)" stroke="#271A58" stroke-opacity="1.000000" stroke-width="1.000000"/>
	<rect id="Frame 2043683105" rx="29.500000" width="166.875168" height="222.833557" transform="translate(214.568848 491.326172) rotate(10.000000)" fill="#99D100" fill-opacity="1.000000"/>
	<path id="?" d="M270.82 616.11Q268.2 618.81 267.36 623.54L284.19 626.51Q284.45 625 285.21 623.8Q285.74 622.96 286.51 622.28Q288.37 620.61 292.07 618.43Q295.45 616.4 297.63 614.69Q299.84 612.96 301.68 610.22Q303.55 607.48 304.23 603.63Q305 599.27 303.77 595.6Q302.61 592.16 299.7 589.31Q293.67 583.41 282.43 581.43Q272.42 579.67 264.65 582.11Q259.77 583.65 255.96 586.58Q253.73 588.29 251.86 590.49L264.63 600.52Q266.3 598.57 268.4 597.36Q269.39 596.79 270.48 596.39Q271.42 596.04 272.4 595.84Q274.92 595.32 277.65 595.8Q281.32 596.44 283.34 598.51Q284.45 599.65 284.81 600.99Q285.1 602.09 284.89 603.33Q284.8 603.82 284.63 604.29Q284.13 605.69 282.89 606.83Q281.26 608.33 278.09 610.41Q273.47 613.38 270.82 616.11ZM266 647.63Q268.18 649.41 271.36 649.97Q274.77 650.57 277.55 649.53Q278.64 649.12 279.63 648.46Q281.43 647.26 282.51 645.59Q283.54 643.99 283.9 641.95Q284.33 639.51 283.69 637.39Q283.2 635.82 282.12 634.42Q281.54 633.68 280.85 633.06Q278.5 630.96 274.85 630.31Q271.15 629.66 268.23 630.87Q267.41 631.21 266.65 631.7Q265.22 632.61 264.25 633.87Q262.88 635.66 262.44 638.17Q262.07 640.2 262.5 642.06Q262.93 644 264.21 645.74Q265 646.81 266 647.63Z" fill="#FFFFFF" fill-opacity="1.000000" fill-rule="evenodd"/>
	<path id="?" d="M267.36 623.54Q268.2 618.81 270.82 616.11Q273.47 613.38 278.09 610.41Q281.26 608.33 282.89 606.83Q284.53 605.32 284.89 603.33Q285.37 600.59 283.34 598.51Q281.32 596.44 277.65 595.8Q273.87 595.13 270.48 596.39Q267.09 597.65 264.63 600.52L251.86 590.49Q256.91 584.55 264.65 582.11Q272.42 579.67 282.43 581.43Q293.67 583.41 299.7 589.31Q305.73 595.2 304.23 603.63Q303.55 607.48 301.68 610.22Q299.84 612.96 297.63 614.69Q295.45 616.4 292.07 618.43Q288.37 620.61 286.51 622.28Q284.64 623.95 284.19 626.51L267.36 623.54ZM271.36 649.97Q266.73 649.15 264.21 645.74Q261.7 642.32 262.44 638.17Q263.19 633.9 266.65 631.7Q270.12 629.48 274.85 630.31Q279.58 631.15 282.12 634.42Q284.66 637.68 283.9 641.95Q283.17 646.1 279.63 648.46Q276.1 650.81 271.36 649.97Z" stroke="#271A58" stroke-opacity="1.000000" stroke-width="0.806750"/>
	<rect id="Frame 2043683105" rx="29.500000" width="166.875168" height="222.833557" transform="translate(214.568848 491.326172) rotate(10.000000)" stroke="#271A58" stroke-opacity="1.000000" stroke-width="1.000000"/>
	<rect id="Frame 2043683106" rx="29.500000" width="166.875168" height="222.833557" transform="translate(389.598145 522.188477) rotate(10.000000)" fill="#009EE4" fill-opacity="1.000000"/>
	<path id="?" d="M445.85 646.97Q443.23 649.67 442.39 654.4L459.21 657.37Q459.48 655.86 460.24 654.66Q460.77 653.82 461.53 653.14Q463.4 651.47 467.1 649.29Q470.48 647.27 472.66 645.56Q474.87 643.83 476.71 641.08Q478.58 638.34 479.26 634.49Q480.03 630.14 478.8 626.46Q477.64 623.02 474.73 620.17Q468.7 614.28 457.46 612.3Q447.45 610.53 439.68 612.97Q434.8 614.51 430.99 617.44Q428.76 619.16 426.89 621.35L439.66 631.38Q441.33 629.43 443.43 628.22Q444.42 627.65 445.51 627.25Q446.45 626.9 447.42 626.7Q449.95 626.18 452.68 626.66Q456.35 627.31 458.37 629.38Q459.48 630.51 459.84 631.86Q460.13 632.96 459.92 634.19Q459.83 634.69 459.66 635.15Q459.15 636.56 457.91 637.7Q456.29 639.2 453.12 641.28Q448.5 644.25 445.85 646.97ZM441.03 678.49Q443.21 680.28 446.39 680.84Q449.8 681.44 452.58 680.39Q453.67 679.98 454.66 679.32Q456.46 678.12 457.54 676.45Q458.57 674.85 458.93 672.81Q459.36 670.37 458.72 668.26Q458.23 666.68 457.15 665.29Q456.57 664.54 455.88 663.92Q453.53 661.82 449.88 661.17Q446.18 660.52 443.26 661.74Q442.44 662.07 441.68 662.56Q440.25 663.47 439.28 664.73Q437.91 666.52 437.47 669.03Q437.1 671.07 437.52 672.93Q437.96 674.86 439.24 676.6Q440.03 677.68 441.03 678.49Z" fill="#FFFFFF" fill-opacity="1.000000" fill-rule="evenodd"/>
	<path id="?" d="M442.39 654.4Q443.23 649.67 445.85 646.97Q448.5 644.25 453.12 641.28Q456.29 639.2 457.91 637.7Q459.56 636.18 459.92 634.19Q460.4 631.45 458.37 629.38Q456.35 627.31 452.68 626.66Q448.9 625.99 445.51 627.25Q442.12 628.51 439.66 631.38L426.89 621.35Q431.94 615.41 439.68 612.97Q447.45 610.53 457.46 612.3Q468.7 614.28 474.73 620.17Q480.75 626.06 479.26 634.49Q478.58 638.34 476.71 641.08Q474.87 643.83 472.66 645.56Q470.48 647.27 467.1 649.29Q463.4 651.47 461.53 653.14Q459.67 654.81 459.21 657.37L442.39 654.4ZM446.39 680.84Q441.75 680.02 439.24 676.6Q436.73 673.18 437.47 669.03Q438.22 664.76 441.68 662.56Q445.15 660.34 449.88 661.17Q454.61 662.01 457.15 665.29Q459.69 668.54 458.93 672.81Q458.19 676.97 454.66 679.32Q451.13 681.67 446.39 680.84Z" stroke="#271A58" stroke-opacity="1.000000" stroke-width="0.806750"/>
	<rect id="Frame 2043683106" rx="29.500000" width="166.875168" height="222.833557" transform="translate(389.598145 522.188477) rotate(10.000000)" stroke="#271A58" stroke-opacity="1.000000" stroke-width="1.000000"/>
	<rect id="Frame 2043683107" rx="29.500000" width="166.875168" height="222.833557" transform="translate(564.627441 553.050781) rotate(10.000000)" fill="#AD61FF" fill-opacity="1.000000"/>
	<path id="?" d="M622.1 677.8Q619.98 679.98 619.31 683.8L632.88 686.19Q633.1 684.98 633.71 684.01Q634.14 683.33 634.76 682.78Q636.26 681.43 639.24 679.67Q641.97 678.04 643.73 676.66Q645.51 675.27 647 673.05Q648.51 670.84 649.06 667.73Q649.68 664.22 648.68 661.26Q647.75 658.48 645.4 656.18Q640.54 651.43 631.47 649.83Q623.39 648.4 617.13 650.37Q613.19 651.62 610.11 653.98Q608.31 655.36 606.81 657.14L617.11 665.23Q618.46 663.65 620.15 662.68Q620.95 662.22 621.83 661.9Q622.59 661.61 623.37 661.45Q625.41 661.03 627.61 661.42Q630.57 661.94 632.2 663.61Q633.1 664.53 633.39 665.61Q633.63 666.5 633.45 667.5Q633.38 667.89 633.24 668.27Q632.84 669.4 631.83 670.32Q630.53 671.53 627.96 673.21Q624.24 675.61 622.1 677.8ZM618.21 703.23Q619.97 704.67 622.54 705.13Q625.28 705.61 627.53 704.76Q628.41 704.43 629.21 703.9Q630.66 702.93 631.53 701.59Q632.36 700.3 632.65 698.65Q633 696.68 632.48 694.98Q632.09 693.7 631.21 692.58Q630.75 691.98 630.19 691.48Q628.3 689.78 625.35 689.26Q622.37 688.74 620.01 689.72Q619.35 689.99 618.74 690.38Q617.58 691.11 616.8 692.13Q615.69 693.58 615.34 695.6Q615.05 697.24 615.39 698.74Q615.74 700.3 616.77 701.71Q617.41 702.57 618.21 703.23Z" fill="#FFFFFF" fill-opacity="1.000000" fill-rule="evenodd"/>
	<path id="?" d="M619.31 683.8Q619.98 679.98 622.1 677.8Q624.24 675.61 627.96 673.21Q630.53 671.53 631.83 670.32Q633.17 669.1 633.45 667.5Q633.84 665.28 632.2 663.61Q630.57 661.94 627.61 661.42Q624.56 660.88 621.83 661.9Q619.09 662.91 617.11 665.23L606.81 657.14Q610.88 652.34 617.13 650.37Q623.39 648.4 631.47 649.83Q640.54 651.43 645.4 656.18Q650.26 660.94 649.06 667.73Q648.51 670.84 647 673.05Q645.51 675.27 643.73 676.66Q641.97 678.04 639.24 679.67Q636.26 681.43 634.76 682.78Q633.25 684.13 632.88 686.19L619.31 683.8ZM622.54 705.13Q618.8 704.47 616.77 701.71Q614.74 698.95 615.34 695.6Q615.95 692.15 618.74 690.38Q621.53 688.59 625.35 689.26Q629.17 689.94 631.21 692.58Q633.26 695.21 632.65 698.65Q632.06 702 629.21 703.9Q626.36 705.8 622.54 705.13Z" stroke="#271A58" stroke-opacity="1.000000" stroke-width="0.806750"/>
	<rect id="Frame 2043683107" rx="29.500000" width="166.875168" height="222.833557" transform="translate(564.627441 553.050781) rotate(10.000000)" stroke="#271A58" stroke-opacity="1.000000" stroke-width="1.000000"/>
	<rect id="Frame 2043683108" rx="29.500000" width="166.875168" height="222.833557" transform="translate(739.656738 583.913574) rotate(10.000000)" fill="#565EEF" fill-opacity="1.000000"/>
	<path id="?" d="M797.13 708.66Q795.01 710.85 794.34 714.66L807.91 717.06Q808.13 715.84 808.74 714.87Q809.17 714.2 809.78 713.64Q811.29 712.29 814.27 710.54Q817 708.9 818.76 707.53Q820.54 706.13 822.03 703.92Q823.54 701.71 824.09 698.6Q824.71 695.09 823.71 692.12Q822.78 689.34 820.43 687.05Q815.57 682.29 806.5 680.69Q798.42 679.27 792.16 681.23Q788.22 682.48 785.14 684.84Q783.34 686.23 781.84 688L792.14 696.09Q793.48 694.52 795.18 693.54Q795.98 693.08 796.85 692.76Q797.62 692.47 798.4 692.31Q800.44 691.89 802.64 692.28Q805.6 692.8 807.23 694.47Q808.13 695.39 808.42 696.47Q808.66 697.36 808.48 698.36Q808.41 698.76 808.27 699.13Q807.86 700.26 806.86 701.18Q805.56 702.39 802.99 704.07Q799.26 706.47 797.13 708.66ZM793.24 734.1Q795 735.53 797.57 735.99Q800.31 736.47 802.56 735.63Q803.44 735.3 804.24 734.76Q805.69 733.8 806.56 732.45Q807.39 731.16 807.68 729.51Q808.03 727.54 807.51 725.84Q807.12 724.57 806.24 723.44Q805.78 722.84 805.22 722.34Q803.33 720.64 800.38 720.12Q797.4 719.6 795.04 720.58Q794.38 720.85 793.77 721.24Q792.61 721.98 791.83 723Q790.72 724.44 790.37 726.46Q790.08 728.1 790.41 729.61Q790.77 731.16 791.8 732.57Q792.44 733.44 793.24 734.1Z" fill="#FFFFFF" fill-opacity="1.000000" fill-rule="evenodd"/>
	<path id="?" d="M794.34 714.66Q795.01 710.85 797.13 708.66Q799.26 706.47 802.99 704.07Q805.56 702.39 806.86 701.18Q808.19 699.96 808.48 698.36Q808.87 696.14 807.23 694.47Q805.6 692.8 802.64 692.28Q799.59 691.74 796.85 692.76Q794.12 693.77 792.14 696.09L781.84 688Q785.91 683.21 792.16 681.23Q798.42 679.27 806.5 680.69Q815.57 682.29 820.43 687.05Q825.29 691.8 824.09 698.6Q823.54 701.71 822.03 703.92Q820.54 706.13 818.76 707.53Q817 708.9 814.27 710.54Q811.29 712.29 809.78 713.64Q808.28 714.99 807.91 717.06L794.34 714.66ZM797.57 735.99Q793.83 735.33 791.8 732.57Q789.77 729.81 790.37 726.46Q790.98 723.02 793.77 721.24Q796.56 719.45 800.38 720.12Q804.2 720.8 806.24 723.44Q808.29 726.07 807.68 729.51Q807.09 732.87 804.24 734.76Q801.39 736.66 797.57 735.99Z" stroke="#271A58" stroke-opacity="1.000000" stroke-width="0.806750"/>
	<rect id="Frame 2043683108" rx="29.500000" width="166.875168" height="222.833557" transform="translate(739.656738 583.913574) rotate(10.000000)" stroke="#271A58" stroke-opacity="1.000000" stroke-width="1.000000"/>
</svg>
