<svg width="983.355469" height="982.543945" viewBox="0 0 983.355 982.544" fill="none" xmlns="http://www.w3.org/2000/svg" xmlns:xlink="http://www.w3.org/1999/xlink">
	<desc>
			Created with Pixso.
	</desc>
	<defs/>
	<rect id="Frame 2043683072" rx="29.500000" width="159.000000" height="158.999985" transform="translate(147.875488 0.521484) rotate(10.000000)" fill="#D9B6FF" fill-opacity="1.000000"/>
	<path id="44" d="M202.76 105.66L209.32 106.82L211.07 96.92L204.51 95.77L205.84 88.28L194.05 86.2L192.73 93.69L183.77 92.11L206.29 69.51L193.38 67.23L168.72 91.28L167.28 99.4L190.59 103.52L189.09 111.96L201.26 114.11L202.76 105.66ZM246.88 113.44L253.43 114.6L255.19 104.7L248.63 103.55L249.96 96.06L238.17 93.98L236.84 101.47L227.89 99.89L250.41 77.29L237.5 75.01L212.83 99.06L211.4 107.18L234.71 111.3L233.21 119.74L245.38 121.89L246.88 113.44Z" fill="#FFFFFF" fill-opacity="1.000000" fill-rule="evenodd"/>
	<path id="44" d="M209.32 106.82L202.76 105.66L201.26 114.11L189.09 111.96L190.59 103.52L167.28 99.4L168.72 91.28L193.38 67.23L206.29 69.51L183.77 92.11L192.73 93.69L194.05 86.2L205.84 88.28L204.51 95.77L211.07 96.92L209.32 106.82ZM253.43 114.6L246.88 113.44L245.38 121.89L233.21 119.74L234.71 111.3L211.4 107.18L212.83 99.06L237.5 75.01L250.41 77.29L227.89 99.89L236.84 101.47L238.17 93.98L249.96 96.06L248.63 103.55L255.19 104.7L253.43 114.6Z" stroke="#202027" stroke-opacity="1.000000" stroke-width="1.000000"/>
	<rect id="Frame 2043683072" rx="29.500000" width="159.000000" height="158.999985" transform="translate(147.875488 0.521484) rotate(10.000000)" stroke="#202027" stroke-opacity="1.000000" stroke-width="1.000000"/>
	<rect id="Frame 2043683060" rx="29.500000" width="159.000000" height="158.999985" transform="translate(317.384766 30.410400) rotate(10.000000)" fill="#D9B6FF" fill-opacity="1.000000"/>
	<path id="6" d="M393.09 120.15Q390.35 118.46 386.94 117.86Q381.37 116.88 377.28 118.89Q376.83 119.12 376.39 119.38Q377.57 115.02 380.42 112.85Q380.77 112.59 381.14 112.36Q381.68 112.03 382.25 111.77Q385.32 110.37 389.36 111.08Q394.29 111.95 397.1 114.78L403.23 106.63Q401.1 104.64 397.85 103.22Q394.59 101.79 390.81 101.12Q383.81 99.89 378.01 101.8Q375.68 102.56 373.66 103.82Q370.64 105.69 368.31 108.64Q364.42 113.57 363.08 121.13Q361.3 131.18 365.31 137.63Q365.5 137.94 365.7 138.23Q366.63 139.58 367.76 140.72Q372.14 145.14 379.65 146.47Q384.51 147.32 388.78 146.17Q391.72 145.37 394.01 143.68Q395.05 142.92 395.95 141.98Q396.76 141.14 397.41 140.18Q399.09 137.7 399.66 134.46Q400.2 131.43 399.52 128.7Q399.29 127.74 398.9 126.82Q398.29 125.36 397.39 124.1Q396.11 122.31 394.25 120.94Q393.68 120.52 393.09 120.15ZM384.26 137.12Q382.6 137.83 380.47 137.46Q377.97 137.02 376.58 135.53Q376.4 135.34 376.23 135.12Q375.71 134.43 375.45 133.64Q375.01 132.35 375.28 130.81Q375.57 129.21 376.47 128.13Q376.98 127.51 377.69 127.07Q378.1 126.81 378.54 126.62Q380.24 125.91 382.38 126.29Q384.66 126.69 386.01 128.03Q386.26 128.28 386.49 128.57Q386.96 129.17 387.22 129.85Q387.75 131.21 387.45 132.9Q387.13 134.7 386.09 135.84Q385.64 136.34 385.04 136.71Q384.67 136.95 384.26 137.12Z" fill="#FFFFFF" fill-opacity="1.000000" fill-rule="evenodd"/>
	<path id="6" d="M386.94 117.86Q391.09 118.59 394.25 120.94Q397.42 123.28 398.9 126.82Q400.39 130.37 399.66 134.46Q398.87 138.94 395.95 141.98Q393.05 145.01 388.78 146.17Q384.51 147.32 379.65 146.47Q370.2 144.8 365.7 138.23Q361.22 131.65 363.08 121.13Q364.42 113.57 368.31 108.64Q372.21 103.7 378.01 101.8Q383.81 99.89 390.81 101.12Q394.59 101.79 397.85 103.22Q401.1 104.64 403.23 106.63L397.1 114.78Q394.29 111.95 389.36 111.08Q384.58 110.24 381.14 112.36Q377.71 114.49 376.39 119.38Q380.75 116.77 386.94 117.86ZM380.47 137.46Q383.12 137.92 385.04 136.71Q386.99 135.48 387.45 132.9Q387.9 130.37 386.49 128.57Q385.09 126.77 382.38 126.29Q379.68 125.81 377.69 127.07Q375.73 128.31 375.28 130.81Q374.85 133.28 376.23 135.12Q377.64 136.96 380.47 137.46Z" stroke="#202027" stroke-opacity="1.000000" stroke-width="1.000000"/>
	<rect id="Frame 2043683060" rx="29.500000" width="159.000000" height="158.999985" transform="translate(317.384766 30.410400) rotate(10.000000)" stroke="#202027" stroke-opacity="1.000000" stroke-width="1.000000"/>
	<rect id="Frame 2043683061" rx="29.500000" width="159.000000" height="158.999985" transform="translate(486.893555 60.299561) rotate(10.000000)" fill="#D9B6FF" fill-opacity="1.000000"/>
	<path id="11" d="M542.73 174.32L550.55 130.21L529.88 126.56L528.17 136.2L536.36 137.64L530.25 172.12L542.73 174.32ZM568.26 178.82L576.07 134.71L555.41 131.07L553.7 140.7L561.89 142.14L555.78 176.62L568.26 178.82Z" fill="#FFFFFF" fill-opacity="1.000000" fill-rule="evenodd"/>
	<path id="11" d="M550.55 130.21L542.73 174.32L530.25 172.12L536.36 137.64L528.17 136.2L529.88 126.56L550.55 130.21ZM576.07 134.71L568.26 178.82L555.78 176.62L561.89 142.14L553.7 140.7L555.41 131.07L576.07 134.71Z" stroke="#202027" stroke-opacity="1.000000" stroke-width="1.000000"/>
	<rect id="Frame 2043683061" rx="29.500000" width="159.000000" height="158.999985" transform="translate(486.893555 60.299561) rotate(10.000000)" stroke="#202027" stroke-opacity="1.000000" stroke-width="1.000000"/>
	<rect id="Frame 2043683123" rx="29.500000" width="159.000000" height="158.999985" transform="translate(656.402344 90.188477) rotate(10.000000)" fill="#D9B6FF" fill-opacity="1.000000"/>
	<path id="48" d="M759.92 193.12Q758.75 190.24 756.04 187.96Q758.15 186.98 759.63 185.41Q759.94 185.08 760.22 184.73Q760.58 184.27 760.89 183.77Q761.96 182.05 762.34 179.9Q762.76 177.53 762.28 175.36Q761.98 174.01 761.32 172.74Q761.3 172.7 761.28 172.65Q759.6 169.38 755.92 167.14Q752.2 164.85 747.03 163.93Q741.86 163.02 737.58 163.9Q733.36 164.75 730.64 167.24Q730.6 167.28 730.56 167.31Q729.54 168.27 728.81 169.41Q727.59 171.3 727.17 173.7Q726.78 175.84 727.2 177.83Q727.32 178.4 727.5 178.96Q727.65 179.39 727.82 179.8Q728.67 181.78 730.31 183.42Q726.99 184.64 724.88 186.94Q724.42 187.44 724.04 188Q722.66 189.97 722.2 192.57Q721.74 195.2 722.29 197.59Q722.62 199 723.29 200.32Q725.14 203.88 729.17 206.35Q733.23 208.81 738.91 209.81Q744.58 210.81 749.22 209.89Q753.88 208.95 756.82 206.23Q757.94 205.2 758.73 203.97Q760.06 201.93 760.52 199.33Q760.97 196.77 760.38 194.48Q760.2 193.78 759.92 193.12ZM711.95 195.45L718.5 196.6L720.26 186.71L713.7 185.55L715.03 178.06L703.24 175.98L701.91 183.47L692.96 181.9L715.48 159.29L702.57 157.01L677.9 181.07L676.46 189.19L699.78 193.3L698.28 201.75L710.45 203.89L711.95 195.45ZM741.86 173.06Q743.42 172.34 745.48 172.7Q747.74 173.1 748.97 174.45Q749.04 174.53 749.11 174.61Q749.47 175.05 749.69 175.56Q750.22 176.75 749.95 178.3Q749.69 179.72 748.87 180.63Q748.46 181.09 747.9 181.41Q747.81 181.47 747.71 181.52Q746.1 182.37 743.84 181.97Q741.55 181.56 740.36 180.2Q740.3 180.13 740.24 180.06Q739.86 179.6 739.64 179.07Q739.16 177.91 739.42 176.44Q739.7 174.9 740.6 173.95Q740.98 173.56 741.47 173.27Q741.67 173.16 741.86 173.06ZM745.53 200.43Q743.49 201.59 740.46 201.06Q737.42 200.52 735.89 198.73Q735.28 198.01 734.99 197.19Q734.54 195.93 734.81 194.42Q735.09 192.86 735.97 191.82Q736.52 191.18 737.3 190.73Q737.31 190.73 737.32 190.72Q739.38 189.56 742.4 190.09Q745.43 190.62 746.95 192.43L746.95 192.43Q747.55 193.13 747.85 193.95Q748.31 195.21 748.04 196.75Q747.78 198.24 746.94 199.27Q746.37 199.96 745.53 200.43Z" fill="#FFFFFF" fill-opacity="1.000000" fill-rule="evenodd"/>
	<path id="48" d="M718.5 196.6L711.95 195.45L710.45 203.89L698.28 201.75L699.78 193.3L676.46 189.19L677.9 181.07L702.57 157.01L715.48 159.29L692.96 181.9L701.91 183.47L703.24 175.98L715.03 178.06L713.7 185.55L720.26 186.71L718.5 196.6ZM756.04 187.96Q758.75 190.24 759.92 193.12Q761.11 195.99 760.52 199.33Q759.78 203.5 756.82 206.23Q753.88 208.95 749.22 209.89Q744.58 210.81 738.91 209.81Q733.23 208.81 729.17 206.35Q725.14 203.88 723.29 200.32Q721.46 196.74 722.2 192.57Q722.79 189.23 724.88 186.94Q726.99 184.64 730.31 183.42Q728.33 181.44 727.5 178.96Q726.67 176.46 727.17 173.7Q727.85 169.85 730.56 167.31Q733.3 164.77 737.58 163.9Q741.86 163.02 747.03 163.93Q752.2 164.85 755.92 167.14Q759.64 169.41 761.32 172.74Q763.02 176.05 762.34 179.9Q761.85 182.67 760.22 184.73Q758.59 186.77 756.04 187.96ZM745.48 172.7Q743.15 172.29 741.47 173.27Q739.81 174.24 739.42 176.44Q739.04 178.58 740.24 180.06Q741.44 181.54 743.84 181.97Q746.24 182.39 747.9 181.41Q749.57 180.44 749.95 178.3Q750.34 176.1 749.11 174.61Q747.88 173.13 745.48 172.7ZM740.46 201.06Q743.49 201.59 745.53 200.43Q747.6 199.26 748.04 196.75Q748.49 194.23 746.95 192.43Q745.43 190.62 742.4 190.09Q739.37 189.55 737.3 190.73Q735.26 191.89 734.81 194.42Q734.37 196.92 735.89 198.73Q737.42 200.52 740.46 201.06Z" stroke="#202027" stroke-opacity="1.000000" stroke-width="1.000000"/>
	<rect id="Frame 2043683123" rx="29.500000" width="159.000000" height="158.999985" transform="translate(656.402344 90.188477) rotate(10.000000)" stroke="#202027" stroke-opacity="1.000000" stroke-width="1.000000"/>
	<rect id="Frame 2043683063" rx="29.500000" width="159.000000" height="158.999985" transform="translate(825.911621 120.077393) rotate(10.000000)" fill="#D9B6FF" fill-opacity="1.000000"/>
	<path id="48" d="M929.43 223Q928.26 220.13 925.55 217.85Q927.66 216.87 929.14 215.3Q929.44 214.97 929.73 214.62Q930.09 214.15 930.4 213.66Q931.47 211.94 931.85 209.79Q932.27 207.42 931.79 205.25Q931.49 203.9 930.83 202.63Q930.81 202.58 930.79 202.54Q929.11 199.27 925.43 197.02Q921.71 194.73 916.54 193.82Q911.37 192.91 907.09 193.79Q902.87 194.64 900.15 197.13Q900.11 197.17 900.07 197.2Q899.05 198.16 898.32 199.3Q897.1 201.18 896.67 203.58Q896.29 205.73 896.71 207.72Q896.83 208.29 897.01 208.85Q897.15 209.28 897.33 209.69Q898.18 211.67 899.82 213.31Q896.5 214.53 894.39 216.83Q893.93 217.33 893.54 217.89Q892.17 219.86 891.71 222.46Q891.25 225.09 891.8 227.48Q892.12 228.88 892.8 230.21Q894.64 233.77 898.68 236.24Q902.74 238.7 908.41 239.7Q914.09 240.7 918.73 239.78Q923.39 238.84 926.33 236.12Q927.44 235.09 928.24 233.86Q929.57 231.82 930.03 229.22Q930.48 226.66 929.89 224.37Q929.71 223.67 929.43 223ZM881.46 225.33L888.01 226.49L889.76 216.6L883.21 215.44L884.54 207.95L872.75 205.87L871.42 213.36L862.47 211.78L884.99 189.18L872.08 186.9L847.41 210.95L845.97 219.08L869.29 223.19L867.79 231.64L879.96 233.78L881.46 225.33ZM911.37 202.95Q912.93 202.23 914.99 202.59Q917.25 202.99 918.48 204.34Q918.55 204.42 918.62 204.5Q918.98 204.94 919.2 205.45Q919.73 206.64 919.45 208.19Q919.2 209.61 918.38 210.52Q917.97 210.98 917.41 211.3Q917.32 211.36 917.22 211.41Q915.61 212.25 913.35 211.85Q911.06 211.45 909.87 210.09Q909.81 210.02 909.75 209.95Q909.37 209.49 909.15 208.96Q908.67 207.8 908.93 206.33Q909.2 204.78 910.11 203.84Q910.49 203.45 910.98 203.16Q911.17 203.05 911.37 202.95ZM915.04 230.32Q913 231.48 909.96 230.95Q906.93 230.41 905.39 228.62Q904.79 227.9 904.5 227.08Q904.05 225.82 904.32 224.3Q904.59 222.75 905.48 221.71Q906.03 221.06 906.81 220.62Q906.82 220.62 906.82 220.61Q908.89 219.45 911.91 219.98Q914.94 220.51 916.46 222.32L916.46 222.32Q917.06 223.02 917.36 223.83Q917.82 225.1 917.55 226.64Q917.29 228.13 916.45 229.15Q915.88 229.85 915.04 230.32Z" fill="#FFFFFF" fill-opacity="1.000000" fill-rule="evenodd"/>
	<path id="48" d="M888.01 226.49L881.46 225.33L879.96 233.78L867.79 231.64L869.29 223.19L845.97 219.08L847.41 210.95L872.08 186.9L884.99 189.18L862.47 211.78L871.42 213.36L872.75 205.87L884.54 207.95L883.21 215.44L889.76 216.6L888.01 226.49ZM925.55 217.85Q928.26 220.13 929.43 223Q930.62 225.88 930.03 229.22Q929.29 233.39 926.33 236.12Q923.39 238.84 918.73 239.78Q914.09 240.7 908.41 239.7Q902.74 238.7 898.68 236.24Q894.64 233.77 892.8 230.21Q890.97 226.63 891.71 222.46Q892.3 219.12 894.39 216.83Q896.5 214.53 899.82 213.31Q897.84 211.33 897.01 208.85Q896.18 206.35 896.67 203.58Q897.36 199.74 900.07 197.2Q902.81 194.65 907.09 193.79Q911.37 192.91 916.54 193.82Q921.71 194.73 925.43 197.02Q929.15 199.3 930.83 202.63Q932.53 205.94 931.85 209.79Q931.36 212.56 929.73 214.62Q928.09 216.66 925.55 217.85ZM914.99 202.59Q912.66 202.18 910.98 203.16Q909.32 204.13 908.93 206.33Q908.55 208.47 909.75 209.95Q910.95 211.43 913.35 211.85Q915.75 212.28 917.41 211.3Q919.08 210.33 919.45 208.19Q919.84 205.99 918.62 204.5Q917.39 203.02 914.99 202.59ZM909.96 230.95Q913 231.48 915.04 230.32Q917.11 229.15 917.55 226.64Q918 224.11 916.46 222.32Q914.94 220.51 911.91 219.98Q908.88 219.44 906.81 220.62Q904.77 221.78 904.32 224.3Q903.87 226.81 905.39 228.62Q906.93 230.41 909.96 230.95Z" stroke="#202027" stroke-opacity="1.000000" stroke-width="1.000000"/>
	<rect id="Frame 2043683063" rx="29.500000" width="159.000000" height="158.999985" transform="translate(825.911621 120.077393) rotate(10.000000)" stroke="#202027" stroke-opacity="1.000000" stroke-width="1.000000"/>
	<rect id="Frame 2043683124" rx="29.500000" width="159.000000" height="158.999985" transform="translate(118.008301 169.908447) rotate(10.000000)" fill="#D9B6FF" fill-opacity="1.000000"/>
	<path id="44" d="M172.89 275.05L179.45 276.2L181.2 266.31L174.64 265.16L175.97 257.66L164.19 255.58L162.86 263.08L153.9 261.5L176.42 238.89L163.51 236.62L138.85 260.67L137.41 268.79L160.72 272.9L159.22 281.35L171.4 283.5L172.89 275.05ZM217.01 282.83L223.57 283.98L225.32 274.09L218.76 272.94L220.09 265.44L208.3 263.36L206.98 270.86L198.02 269.28L220.54 246.67L207.63 244.4L182.97 268.45L181.53 276.57L204.84 280.68L203.34 289.13L215.52 291.28L217.01 282.83Z" fill="#FFFFFF" fill-opacity="1.000000" fill-rule="evenodd"/>
	<path id="44" d="M179.45 276.2L172.89 275.05L171.4 283.5L159.22 281.35L160.72 272.9L137.41 268.79L138.85 260.67L163.51 236.62L176.42 238.89L153.9 261.5L162.86 263.08L164.19 255.58L175.97 257.66L174.64 265.16L181.2 266.31L179.45 276.2ZM223.57 283.98L217.01 282.83L215.52 291.28L203.34 289.13L204.84 280.68L181.53 276.57L182.97 268.45L207.63 244.4L220.54 246.67L198.02 269.28L206.98 270.86L208.3 263.36L220.09 265.44L218.76 272.94L225.32 274.09L223.57 283.98Z" stroke="#202027" stroke-opacity="1.000000" stroke-width="1.000000"/>
	<rect id="Frame 2043683124" rx="29.500000" width="159.000000" height="158.999985" transform="translate(118.008301 169.908447) rotate(10.000000)" stroke="#202027" stroke-opacity="1.000000" stroke-width="1.000000"/>
	<rect id="Frame 2043683125" rx="29.500000" width="159.000000" height="158.999985" transform="translate(287.517090 199.797363) rotate(10.000000)" fill="#D9B6FF" fill-opacity="1.000000"/>
	<path id="6" d="M363.22 289.54Q360.48 287.85 357.07 287.25Q351.51 286.27 347.41 288.28Q346.96 288.5 346.52 288.77Q347.7 284.4 350.56 282.24Q350.9 281.98 351.27 281.75Q351.81 281.42 352.38 281.16Q355.46 279.76 359.49 280.47Q364.42 281.34 367.23 284.17L373.36 276.01Q371.24 274.02 367.98 272.61Q364.73 271.18 360.94 270.51Q353.94 269.27 348.14 271.19Q345.81 271.95 343.79 273.21Q340.78 275.07 338.44 278.03Q334.55 282.96 333.21 290.51Q331.43 300.56 335.44 307.02Q335.63 307.32 335.83 307.62Q336.76 308.97 337.89 310.11Q342.27 314.53 349.78 315.85Q354.65 316.71 358.91 315.56Q361.85 314.76 364.14 313.07Q365.18 312.31 366.08 311.37Q366.89 310.52 367.54 309.57Q369.22 307.08 369.79 303.85Q370.33 300.82 369.65 298.08Q369.42 297.13 369.04 296.21Q368.42 294.75 367.52 293.49Q366.24 291.7 364.38 290.33Q363.82 289.91 363.22 289.54ZM354.39 306.51Q352.73 307.22 350.6 306.84Q348.1 306.4 346.71 304.92Q346.53 304.72 346.37 304.51Q345.84 303.81 345.58 303.03Q345.14 301.74 345.42 300.2Q345.7 298.6 346.6 297.51Q347.12 296.9 347.82 296.45Q348.24 296.19 348.68 296.01Q350.37 295.3 352.52 295.68Q354.79 296.08 356.14 297.42Q356.4 297.67 356.62 297.96Q357.09 298.56 357.35 299.24Q357.88 300.6 357.58 302.28Q357.26 304.08 356.22 305.23Q355.77 305.72 355.18 306.1Q354.8 306.33 354.39 306.51Z" fill="#FFFFFF" fill-opacity="1.000000" fill-rule="evenodd"/>
	<path id="6" d="M357.07 287.25Q361.23 287.98 364.38 290.33Q367.55 292.67 369.04 296.21Q370.52 299.76 369.79 303.85Q369 308.33 366.08 311.37Q363.18 314.39 358.91 315.56Q354.65 316.71 349.78 315.85Q340.34 314.19 335.83 307.62Q331.35 301.04 333.21 290.51Q334.55 282.96 338.44 278.03Q342.35 273.09 348.14 271.19Q353.94 269.27 360.94 270.51Q364.73 271.18 367.98 272.61Q371.24 274.02 373.36 276.01L367.23 284.17Q364.42 281.34 359.49 280.47Q354.71 279.63 351.27 281.75Q347.85 283.88 346.52 288.77Q350.89 286.16 357.07 287.25ZM350.6 306.84Q353.25 307.31 355.18 306.1Q357.12 304.87 357.58 302.28Q358.03 299.76 356.62 297.96Q355.22 296.16 352.52 295.68Q349.81 295.2 347.82 296.45Q345.86 297.69 345.42 300.2Q344.98 302.66 346.37 304.51Q347.77 306.34 350.6 306.84Z" stroke="#202027" stroke-opacity="1.000000" stroke-width="1.000000"/>
	<rect id="Frame 2043683125" rx="29.500000" width="159.000000" height="158.999985" transform="translate(287.517090 199.797363) rotate(10.000000)" stroke="#202027" stroke-opacity="1.000000" stroke-width="1.000000"/>
	<rect id="Frame 2043683126" rx="29.500000" width="159.000000" height="158.999985" transform="translate(457.026367 229.686279) rotate(10.000000)" fill="#D9B6FF" fill-opacity="1.000000"/>
	<path id="11" d="M512.87 343.71L520.68 299.6L500.01 295.95L498.31 305.58L506.49 307.03L500.39 341.51L512.87 343.71ZM538.39 348.21L546.21 304.1L525.54 300.45L523.83 310.08L532.02 311.53L525.91 346.01L538.39 348.21Z" fill="#FFFFFF" fill-opacity="1.000000" fill-rule="evenodd"/>
	<path id="11" d="M520.68 299.6L512.87 343.71L500.39 341.51L506.49 307.03L498.31 305.58L500.01 295.95L520.68 299.6ZM546.21 304.1L538.39 348.21L525.91 346.01L532.02 311.53L523.83 310.08L525.54 300.45L546.21 304.1Z" stroke="#202027" stroke-opacity="1.000000" stroke-width="1.000000"/>
	<rect id="Frame 2043683126" rx="29.500000" width="159.000000" height="158.999985" transform="translate(457.026367 229.686279) rotate(10.000000)" stroke="#202027" stroke-opacity="1.000000" stroke-width="1.000000"/>
	<rect id="Frame 2043683127" rx="29.500000" width="159.000000" height="158.999985" transform="translate(626.535156 259.575439) rotate(10.000000)" fill="#D9B6FF" fill-opacity="1.000000"/>
	<path id="48" d="M730.05 362.5Q728.88 359.63 726.18 357.34Q728.28 356.36 729.76 354.79Q730.07 354.47 730.35 354.11Q730.72 353.65 731.02 353.15Q732.09 351.43 732.47 349.28Q732.89 346.91 732.41 344.75Q732.11 343.4 731.46 342.12Q731.44 342.08 731.42 342.04Q729.73 338.77 726.05 336.52Q722.33 334.23 717.16 333.32Q711.99 332.41 707.71 333.29Q703.49 334.14 700.77 336.63Q700.74 336.67 700.7 336.7Q699.67 337.65 698.94 338.79Q697.72 340.68 697.3 343.08Q696.92 345.23 697.33 347.21Q697.45 347.79 697.64 348.35Q697.78 348.77 697.96 349.19Q698.81 351.17 700.45 352.81Q697.12 354.03 695.02 356.32Q694.56 356.83 694.17 357.39Q692.8 359.36 692.34 361.96Q691.87 364.59 692.42 366.98Q692.75 368.38 693.42 369.7Q695.27 373.27 699.31 375.74Q703.36 378.2 709.04 379.2Q714.72 380.2 719.36 379.27Q724.01 378.33 726.95 375.62Q728.07 374.59 728.87 373.36Q730.19 371.32 730.65 368.72Q731.11 366.15 730.51 363.86Q730.33 363.17 730.05 362.5ZM682.08 364.83L688.64 365.99L690.39 356.1L683.83 354.94L685.16 347.45L673.37 345.37L672.05 352.86L663.09 351.28L685.61 328.68L672.7 326.4L648.04 350.45L646.6 358.58L669.91 362.69L668.41 371.13L680.59 373.28L682.08 364.83ZM712 342.45Q713.55 341.73 715.61 342.09Q717.88 342.49 719.1 343.84Q719.17 343.92 719.24 344Q719.6 344.44 719.83 344.94Q720.35 346.14 720.08 347.69Q719.83 349.11 719 350.02Q718.59 350.47 718.04 350.8Q717.94 350.85 717.85 350.9Q716.24 351.75 713.97 351.35Q711.69 350.95 710.49 349.59Q710.43 349.52 710.37 349.45Q710 348.99 709.78 348.46Q709.29 347.3 709.55 345.83Q709.83 344.28 710.73 343.34Q711.11 342.94 711.61 342.65Q711.8 342.54 712 342.45ZM715.67 369.82Q713.62 370.98 710.59 370.45Q707.56 369.91 706.02 368.12Q705.42 367.4 705.12 366.58Q704.67 365.32 704.94 363.8Q705.22 362.25 706.1 361.21Q706.65 360.56 707.44 360.12Q707.44 360.11 707.45 360.11Q709.51 358.94 712.53 359.48Q715.56 360.01 717.08 361.82L717.08 361.82Q717.69 362.52 717.98 363.33Q718.45 364.6 718.18 366.14Q717.91 367.63 717.07 368.65Q716.5 369.34 715.67 369.82Z" fill="#FFFFFF" fill-opacity="1.000000" fill-rule="evenodd"/>
	<path id="48" d="M688.64 365.99L682.08 364.83L680.59 373.28L668.41 371.13L669.91 362.69L646.6 358.58L648.04 350.45L672.7 326.4L685.61 328.68L663.09 351.28L672.05 352.86L673.37 345.37L685.16 347.45L683.83 354.94L690.39 356.1L688.64 365.99ZM726.18 357.34Q728.88 359.63 730.05 362.5Q731.24 365.38 730.65 368.72Q729.91 372.89 726.95 375.62Q724.01 378.33 719.36 379.27Q714.72 380.2 709.04 379.2Q703.36 378.2 699.31 375.74Q695.27 373.27 693.42 369.7Q691.6 366.13 692.34 361.96Q692.93 358.62 695.02 356.32Q697.12 354.03 700.45 352.81Q698.47 350.82 697.64 348.35Q696.81 345.85 697.3 343.08Q697.98 339.24 700.7 336.7Q703.43 334.15 707.71 333.29Q711.99 332.41 717.16 333.32Q722.33 334.23 726.05 336.52Q729.78 338.8 731.46 342.12Q733.16 345.44 732.47 349.28Q731.98 352.05 730.35 354.11Q728.72 356.16 726.18 357.34ZM715.61 342.09Q713.29 341.68 711.61 342.65Q709.94 343.63 709.55 345.83Q709.17 347.97 710.37 349.45Q711.57 350.93 713.97 351.35Q716.37 351.78 718.04 350.8Q719.7 349.82 720.08 347.69Q720.47 345.49 719.24 344Q718.01 342.51 715.61 342.09ZM710.59 370.45Q713.62 370.98 715.67 369.82Q717.73 368.64 718.18 366.14Q718.62 363.61 717.08 361.82Q715.56 360.01 712.53 359.48Q709.5 358.94 707.44 360.12Q705.39 361.28 704.94 363.8Q704.5 366.31 706.02 368.12Q707.56 369.91 710.59 370.45Z" stroke="#202027" stroke-opacity="1.000000" stroke-width="1.000000"/>
	<rect id="Frame 2043683127" rx="29.500000" width="159.000000" height="158.999985" transform="translate(626.535156 259.575439) rotate(10.000000)" stroke="#202027" stroke-opacity="1.000000" stroke-width="1.000000"/>
	<rect id="Frame 2043683128" rx="29.500000" width="159.000000" height="158.999985" transform="translate(796.043945 289.464355) rotate(10.000000)" fill="#D9B6FF" fill-opacity="1.000000"/>
	<path id="48" d="M899.56 392.39Q898.39 389.52 895.68 387.23Q897.79 386.25 899.27 384.68Q899.58 384.36 899.86 384Q900.22 383.54 900.53 383.04Q901.6 381.32 901.98 379.17Q902.4 376.8 901.92 374.63Q901.62 373.28 900.97 372.01Q900.95 371.97 900.92 371.93Q899.24 368.66 895.56 366.41Q891.84 364.12 886.67 363.21Q881.5 362.3 877.22 363.18Q873 364.03 870.28 366.52Q870.24 366.55 870.21 366.59Q869.18 367.54 868.45 368.68Q867.23 370.57 866.81 372.97Q866.43 375.12 866.84 377.1Q866.96 377.68 867.14 378.23Q867.29 378.66 867.46 379.07Q868.32 381.06 869.96 382.7Q866.63 383.92 864.52 386.21Q864.06 386.72 863.68 387.28Q862.31 389.25 861.84 391.85Q861.38 394.48 861.93 396.87Q862.26 398.27 862.93 399.59Q864.78 403.16 868.81 405.63Q872.87 408.09 878.55 409.09Q884.22 410.09 888.86 409.16Q893.52 408.22 896.46 405.51Q897.58 404.48 898.38 403.24Q899.7 401.2 900.16 398.61Q900.61 396.04 900.02 393.75Q899.84 393.06 899.56 392.39ZM851.59 394.72L858.15 395.88L859.9 385.98L853.34 384.83L854.67 377.34L842.88 375.26L841.56 382.75L832.6 381.17L855.12 358.57L842.21 356.29L817.55 380.34L816.11 388.46L839.42 392.58L837.92 401.02L850.09 403.17L851.59 394.72ZM881.51 372.34Q883.06 371.62 885.12 371.98Q887.39 372.38 888.61 373.73Q888.68 373.81 888.75 373.89Q889.11 374.33 889.33 374.83Q889.86 376.03 889.59 377.57Q889.34 379 888.51 379.91Q888.1 380.36 887.54 380.69Q887.45 380.74 887.36 380.79Q885.75 381.64 883.48 381.24Q881.2 380.84 880 379.48Q879.94 379.41 879.88 379.34Q879.51 378.87 879.29 378.35Q878.8 377.19 879.06 375.72Q879.34 374.17 880.24 373.23Q880.62 372.83 881.12 372.54Q881.31 372.43 881.51 372.34ZM885.18 399.71Q883.13 400.87 880.1 400.34Q877.07 399.8 875.53 398.01Q874.93 397.29 874.63 396.47Q874.18 395.21 874.45 393.69Q874.73 392.13 875.61 391.1Q876.16 390.45 876.94 390.01Q876.95 390 876.96 390Q879.02 388.83 882.04 389.37Q885.07 389.9 886.59 391.7L886.59 391.71Q887.19 392.41 887.49 393.22Q887.96 394.49 887.68 396.02Q887.42 397.52 886.58 398.54Q886.01 399.23 885.18 399.71Z" fill="#FFFFFF" fill-opacity="1.000000" fill-rule="evenodd"/>
	<path id="48" d="M858.15 395.88L851.59 394.72L850.09 403.17L837.92 401.02L839.42 392.58L816.11 388.46L817.55 380.34L842.21 356.29L855.12 358.57L832.6 381.17L841.56 382.75L842.88 375.26L854.67 377.34L853.34 384.83L859.9 385.98L858.15 395.88ZM895.68 387.23Q898.39 389.52 899.56 392.39Q900.75 395.27 900.16 398.61Q899.42 402.77 896.46 405.51Q893.52 408.22 888.86 409.16Q884.22 410.09 878.55 409.09Q872.87 408.09 868.81 405.63Q864.78 403.16 862.93 399.59Q861.11 396.02 861.84 391.85Q862.44 388.51 864.52 386.21Q866.63 383.92 869.96 382.7Q867.97 380.71 867.14 378.23Q866.32 375.74 866.81 372.97Q867.49 369.12 870.21 366.59Q872.94 364.04 877.22 363.18Q881.5 362.3 886.67 363.21Q891.84 364.12 895.56 366.41Q899.29 368.69 900.97 372.01Q902.66 375.33 901.98 379.17Q901.49 381.94 899.86 384Q898.23 386.05 895.68 387.23ZM885.12 371.98Q882.8 371.57 881.12 372.54Q879.45 373.52 879.06 375.72Q878.68 377.86 879.88 379.34Q881.08 380.82 883.48 381.24Q885.88 381.67 887.54 380.69Q889.21 379.71 889.59 377.57Q889.98 375.37 888.75 373.89Q887.52 372.4 885.12 371.98ZM880.1 400.34Q883.13 400.87 885.18 399.71Q887.24 398.53 887.68 396.02Q888.13 393.5 886.59 391.71Q885.07 389.9 882.04 389.37Q879.01 388.83 876.94 390.01Q874.9 391.17 874.45 393.69Q874.01 396.2 875.53 398.01Q877.07 399.8 880.1 400.34Z" stroke="#202027" stroke-opacity="1.000000" stroke-width="1.000000"/>
	<rect id="Frame 2043683128" rx="29.500000" width="159.000000" height="158.999985" transform="translate(796.043945 289.464355) rotate(10.000000)" stroke="#202027" stroke-opacity="1.000000" stroke-width="1.000000"/>
	<rect id="Frame 2043683073" rx="29.500000" width="159.000000" height="158.999985" transform="translate(88.140625 339.295166) rotate(10.000000)" fill="#D9B6FF" fill-opacity="1.000000"/>
	<path id="66" d="M143.39 425.43Q140.66 423.74 137.24 423.14Q131.68 422.16 127.59 424.17Q127.13 424.4 126.69 424.66Q127.87 420.29 130.73 418.13Q131.07 417.87 131.44 417.64Q131.98 417.31 132.55 417.05Q135.63 415.65 139.66 416.36Q144.59 417.23 147.4 420.06L153.53 411.91Q151.41 409.91 148.15 408.5Q144.9 407.07 141.11 406.4Q134.11 405.17 128.31 407.08Q125.98 407.84 123.96 409.1Q120.95 410.96 118.61 413.92Q114.72 418.85 113.39 426.41Q111.61 436.45 115.61 442.91Q115.8 443.21 116 443.51Q116.93 444.86 118.06 446Q122.45 450.42 129.95 451.75Q134.82 452.6 139.08 451.45Q142.02 450.65 144.31 448.96Q145.35 448.2 146.25 447.26Q147.06 446.41 147.71 445.46Q149.39 442.98 149.96 439.74Q150.5 436.71 149.83 433.97Q149.59 433.02 149.21 432.1Q148.59 430.64 147.69 429.38Q146.41 427.59 144.55 426.22Q143.99 425.8 143.39 425.43ZM184.3 432.65Q181.56 430.95 178.15 430.35Q172.58 429.37 168.49 431.38Q168.03 431.61 167.6 431.87Q168.78 427.51 171.63 425.35Q171.98 425.08 172.35 424.85Q172.88 424.52 173.46 424.26Q176.53 422.86 180.57 423.58Q185.49 424.44 188.31 427.27L194.43 419.12Q192.31 417.13 189.06 415.71Q185.8 414.28 182.02 413.61Q175.02 412.38 169.22 414.29Q166.89 415.05 164.86 416.31Q161.85 418.18 159.52 421.13Q155.63 426.06 154.29 433.62Q152.51 443.67 156.52 450.12Q156.71 450.43 156.91 450.72Q157.83 452.07 158.97 453.21Q163.35 457.63 170.86 458.96Q175.72 459.82 179.99 458.66Q182.93 457.86 185.22 456.17Q186.25 455.41 187.16 454.47Q187.97 453.63 188.61 452.67Q190.3 450.19 190.87 446.95Q191.41 443.92 190.73 441.19Q190.5 440.23 190.11 439.32Q189.5 437.85 188.6 436.59Q187.32 434.81 185.46 433.43Q184.89 433.01 184.3 432.65ZM134.56 442.4Q132.9 443.11 130.77 442.74Q128.27 442.29 126.88 440.81Q126.7 440.62 126.54 440.4Q126.01 439.71 125.75 438.92Q125.31 437.63 125.59 436.09Q125.87 434.49 126.78 433.41Q127.29 432.79 128 432.35Q128.41 432.09 128.85 431.9Q130.54 431.19 132.69 431.57Q134.97 431.97 136.31 433.31Q136.57 433.56 136.79 433.85Q137.26 434.45 137.52 435.13Q138.05 436.49 137.75 438.18Q137.43 439.98 136.39 441.12Q135.94 441.61 135.35 441.99Q134.97 442.23 134.56 442.4ZM175.47 449.61Q173.8 450.32 171.68 449.95Q169.18 449.51 167.79 448.02Q167.61 447.83 167.44 447.61Q166.92 446.92 166.66 446.14Q166.22 444.84 166.49 443.31Q166.78 441.7 167.68 440.62Q168.19 440.01 168.9 439.56Q169.31 439.3 169.75 439.11Q171.44 438.4 173.59 438.78Q175.87 439.18 177.22 440.52Q177.47 440.78 177.69 441.06Q178.17 441.66 178.43 442.34Q178.96 443.71 178.66 445.39Q178.34 447.19 177.3 448.33Q176.84 448.83 176.25 449.2Q175.87 449.44 175.47 449.61Z" fill="#FFFFFF" fill-opacity="1.000000" fill-rule="evenodd"/>
	<path id="66" d="M137.24 423.14Q141.4 423.87 144.55 426.22Q147.72 428.56 149.21 432.1Q150.69 435.65 149.96 439.74Q149.17 444.22 146.25 447.26Q143.35 450.28 139.08 451.45Q134.82 452.6 129.95 451.75Q120.51 450.08 116 443.51Q111.52 436.93 113.39 426.41Q114.72 418.85 118.61 413.92Q122.52 408.98 128.31 407.08Q134.11 405.17 141.11 406.4Q144.9 407.07 148.15 408.5Q151.41 409.91 153.53 411.91L147.4 420.06Q144.59 417.23 139.66 416.36Q134.88 415.52 131.44 417.64Q128.02 419.77 126.69 424.66Q131.06 422.05 137.24 423.14ZM130.77 442.74Q133.42 443.2 135.35 441.99Q137.3 440.76 137.75 438.18Q138.2 435.65 136.79 433.85Q135.39 432.05 132.69 431.57Q129.98 431.09 128 432.35Q126.03 433.59 125.59 436.09Q125.15 438.55 126.54 440.4Q127.94 442.24 130.77 442.74ZM178.15 430.35Q182.3 431.08 185.46 433.43Q188.63 435.77 190.11 439.32Q191.59 442.86 190.87 446.95Q190.08 451.43 187.16 454.47Q184.26 457.5 179.99 458.66Q175.72 459.82 170.86 458.96Q161.41 457.29 156.91 450.72Q152.43 444.14 154.29 433.62Q155.63 426.06 159.52 421.13Q163.42 416.19 169.22 414.29Q175.02 412.38 182.02 413.61Q185.8 414.28 189.06 415.71Q192.31 417.13 194.43 419.12L188.31 427.27Q185.49 424.44 180.57 423.58Q175.78 422.73 172.35 424.85Q168.92 426.98 167.6 431.87Q171.96 429.26 178.15 430.35ZM171.68 449.95Q174.32 450.41 176.25 449.2Q178.2 447.97 178.66 445.39Q179.11 442.86 177.69 441.06Q176.3 439.26 173.59 438.78Q170.88 438.31 168.9 439.56Q166.94 440.8 166.49 443.31Q166.06 445.77 167.44 447.61Q168.85 449.45 171.68 449.95Z" stroke="#202027" stroke-opacity="1.000000" stroke-width="1.000000"/>
	<rect id="Frame 2043683073" rx="29.500000" width="159.000000" height="158.999985" transform="translate(88.140625 339.295166) rotate(10.000000)" stroke="#202027" stroke-opacity="1.000000" stroke-width="1.000000"/>
	<rect id="Frame 2043683064" rx="29.500000" width="159.000000" height="158.999985" transform="translate(257.649414 369.184326) rotate(10.000000)" fill="#D9B6FF" fill-opacity="1.000000"/>
	<path id="2" d="M335.33 487.05L337.08 477.16L320.06 474.16L329.75 467.94Q334.88 464.68 336.98 461.77Q337.89 460.51 338.52 459.12Q339.36 457.31 339.72 455.27Q340.21 452.48 339.58 449.97Q339.31 448.86 338.8 447.8Q338.58 447.33 338.33 446.88Q336.69 444.04 333.59 442.04Q330 439.71 324.96 438.82Q318.6 437.7 313.49 439.33Q309.99 440.46 307.32 442.6Q306.1 443.59 305.04 444.79L313.41 451.6Q314.64 450.26 316.17 449.5Q316.73 449.22 317.34 449.02Q317.94 448.82 318.56 448.71Q320.25 448.39 322.04 448.71Q324.81 449.2 326.05 450.66Q326.43 451.1 326.66 451.62Q327.17 452.77 326.9 454.25Q326.89 454.31 326.88 454.37Q326.57 455.94 325.51 457.35Q324.41 458.81 321.61 460.66L302.37 473.18L300.98 481L335.33 487.05Z" fill="#FFFFFF" fill-opacity="1.000000" fill-rule="evenodd"/>
	<path id="2" d="M337.08 477.16L335.33 487.05L300.98 481L302.37 473.18L321.61 460.66Q324.41 458.81 325.51 457.35Q326.61 455.88 326.9 454.25Q327.28 452.1 326.05 450.66Q324.81 449.2 322.04 448.71Q319.58 448.28 317.34 449.02Q315.1 449.76 313.41 451.6L305.04 444.79Q308.39 440.97 313.49 439.33Q318.6 437.7 324.96 438.82Q330 439.71 333.59 442.04Q337.18 444.35 338.8 447.8Q340.43 451.24 339.72 455.27Q339.08 458.86 336.98 461.77Q334.88 464.68 329.75 467.94L320.06 474.16L337.08 477.16Z" stroke="#202027" stroke-opacity="1.000000" stroke-width="1.000000"/>
	<rect id="Frame 2043683064" rx="29.500000" width="159.000000" height="158.999985" transform="translate(257.649414 369.184326) rotate(10.000000)" stroke="#202027" stroke-opacity="1.000000" stroke-width="1.000000"/>
	<rect id="Frame 2043683075" rx="29.500000" width="159.000000" height="158.999985" transform="translate(427.158691 399.073242) rotate(10.000000)" fill="#D9B6FF" fill-opacity="1.000000"/>
	<path id="11" d="M483 513.09L490.81 468.98L470.15 465.34L468.44 474.97L476.63 476.41L470.52 510.89L483 513.09ZM508.52 517.59L516.34 473.48L495.67 469.84L493.97 479.47L502.15 480.91L496.05 515.39L508.52 517.59Z" fill="#FFFFFF" fill-opacity="1.000000" fill-rule="evenodd"/>
	<path id="11" d="M490.81 468.98L483 513.09L470.52 510.89L476.63 476.41L468.44 474.97L470.15 465.34L490.81 468.98ZM516.34 473.48L508.52 517.59L496.05 515.39L502.15 480.91L493.97 479.47L495.67 469.84L516.34 473.48Z" stroke="#202027" stroke-opacity="1.000000" stroke-width="1.000000"/>
	<rect id="Frame 2043683075" rx="29.500000" width="159.000000" height="158.999985" transform="translate(427.158691 399.073242) rotate(10.000000)" stroke="#202027" stroke-opacity="1.000000" stroke-width="1.000000"/>
	<rect id="Frame 2043683066" rx="29.500000" width="159.000000" height="158.999985" transform="translate(596.667480 428.962158) rotate(10.000000)" fill="#D9B6FF" fill-opacity="1.000000"/>
	<path id="8" d="M677.81 527.94Q676.64 525.07 673.93 522.78Q676.04 521.8 677.52 520.24Q677.83 519.91 678.11 519.56Q678.47 519.09 678.78 518.6Q679.85 516.87 680.23 514.73Q680.65 512.36 680.17 510.19Q679.87 508.84 679.21 507.57Q679.19 507.52 679.17 507.48Q677.49 504.21 673.81 501.96Q670.09 499.67 664.92 498.76Q659.75 497.85 655.47 498.73Q651.25 499.58 648.53 502.07Q648.49 502.11 648.46 502.14Q647.43 503.1 646.7 504.24Q645.48 506.12 645.06 508.52Q644.67 510.67 645.09 512.65Q645.21 513.23 645.39 513.79Q645.53 514.21 645.71 514.63Q646.56 516.61 648.2 518.25Q644.88 519.47 642.77 521.77Q642.31 522.27 641.93 522.83Q640.55 524.8 640.09 527.4Q639.63 530.03 640.18 532.42Q640.51 533.82 641.18 535.15Q643.03 538.71 647.06 541.18Q651.12 543.64 656.8 544.64Q662.47 545.64 667.11 544.72Q671.77 543.78 674.71 541.06Q675.83 540.03 676.62 538.8Q677.95 536.76 678.41 534.16Q678.86 531.59 678.27 529.3Q678.09 528.61 677.81 527.94ZM659.75 507.89Q661.31 507.17 663.37 507.53Q665.63 507.93 666.86 509.28Q666.93 509.36 667 509.44Q667.36 509.88 667.58 510.39Q668.11 511.58 667.84 513.13Q667.58 514.55 666.76 515.46Q666.35 515.92 665.79 516.24Q665.7 516.3 665.6 516.35Q663.99 517.19 661.73 516.79Q659.44 516.39 658.25 515.03Q658.19 514.96 658.13 514.89Q657.75 514.43 657.53 513.9Q657.05 512.74 657.31 511.27Q657.59 509.72 658.49 508.78Q658.87 508.38 659.37 508.1Q659.56 507.99 659.75 507.89ZM663.42 535.26Q661.38 536.42 658.35 535.89Q655.31 535.35 653.78 533.56Q653.17 532.84 652.88 532.02Q652.43 530.76 652.7 529.24Q652.98 527.69 653.86 526.65Q654.41 526 655.19 525.56Q655.2 525.55 655.21 525.55Q657.27 524.39 660.29 524.92Q663.32 525.45 664.84 527.26L664.84 527.26Q665.44 527.96 665.74 528.77Q666.2 530.04 665.93 531.58Q665.67 533.07 664.83 534.09Q664.26 534.78 663.42 535.26Z" fill="#FFFFFF" fill-opacity="1.000000" fill-rule="evenodd"/>
	<path id="8" d="M673.93 522.78Q676.64 525.07 677.81 527.94Q679 530.82 678.41 534.16Q677.67 538.33 674.71 541.06Q671.77 543.78 667.11 544.72Q662.47 545.64 656.8 544.64Q651.12 543.64 647.06 541.18Q643.03 538.71 641.18 535.15Q639.35 531.57 640.09 527.4Q640.68 524.06 642.77 521.77Q644.88 519.47 648.2 518.25Q646.22 516.27 645.39 513.79Q644.57 511.29 645.06 508.52Q645.74 504.68 648.46 502.14Q651.19 499.59 655.47 498.73Q659.75 497.85 664.92 498.76Q670.09 499.67 673.81 501.96Q677.53 504.24 679.21 507.57Q680.91 510.88 680.23 514.73Q679.74 517.5 678.11 519.56Q676.48 521.6 673.93 522.78ZM663.37 507.53Q661.04 507.12 659.37 508.1Q657.7 509.07 657.31 511.27Q656.93 513.41 658.13 514.89Q659.33 516.37 661.73 516.79Q664.13 517.22 665.79 516.24Q667.46 515.27 667.84 513.13Q668.23 510.93 667 509.44Q665.77 507.96 663.37 507.53ZM658.35 535.89Q661.38 536.42 663.42 535.26Q665.49 534.09 665.93 531.58Q666.38 529.05 664.84 527.26Q663.32 525.45 660.29 524.92Q657.26 524.38 655.19 525.56Q653.15 526.72 652.7 529.24Q652.26 531.75 653.78 533.56Q655.31 535.35 658.35 535.89Z" stroke="#202027" stroke-opacity="1.000000" stroke-width="1.000000"/>
	<rect id="Frame 2043683066" rx="29.500000" width="159.000000" height="158.999985" transform="translate(596.667480 428.962158) rotate(10.000000)" stroke="#202027" stroke-opacity="1.000000" stroke-width="1.000000"/>
	<rect id="Frame 2043683067" rx="29.500000" width="159.000000" height="158.999985" transform="translate(766.176758 458.851318) rotate(10.000000)" fill="#D9B6FF" fill-opacity="1.000000"/>
	<path id="36" d="M860.88 551.95Q858.15 550.25 854.73 549.65Q849.17 548.67 845.08 550.68Q844.62 550.91 844.18 551.17Q845.37 546.81 848.22 544.65Q848.56 544.38 848.93 544.15Q849.47 543.82 850.04 543.56Q853.12 542.16 857.16 542.88Q862.08 543.74 864.9 546.57L871.02 538.42Q868.9 536.43 865.64 535.01Q862.39 533.58 858.6 532.91Q851.6 531.68 845.8 533.59Q843.47 534.36 841.45 535.61Q838.44 537.48 836.1 540.43Q832.22 545.36 830.88 552.92Q829.1 562.97 833.1 569.42Q833.29 569.73 833.5 570.02Q834.42 571.37 835.55 572.51Q839.94 576.93 847.45 578.26Q852.31 579.12 856.57 577.96Q859.51 577.16 861.81 575.47Q862.84 574.71 863.74 573.77Q864.55 572.93 865.2 571.97Q866.88 569.49 867.46 566.25Q867.99 563.22 867.32 560.49Q867.08 559.53 866.7 558.62Q866.09 557.15 865.19 555.89Q863.91 554.11 862.04 552.73Q861.48 552.31 860.88 551.95ZM824.03 550.47Q821.69 546.66 816.5 544.61L827.38 536.39L828.76 528.57L796.87 522.95L795.16 532.58L812.56 535.65L803.18 542.77L801.78 550.64L807.01 551.57Q811.81 552.41 812.81 554.83Q813.21 555.81 812.99 557.05Q812.81 558.1 812.22 558.85Q811.59 559.66 810.5 560.11Q808.39 560.98 805.18 560.41Q802.02 559.86 798.94 558.35Q795.86 556.82 793.61 554.6L787.4 563.2Q790.38 565.86 794.74 567.81Q797.63 569.08 800.65 569.87Q802.2 570.28 803.78 570.56Q810.13 571.68 814.82 570.4Q819.51 569.11 822.2 566.14Q823.64 564.56 824.51 562.71Q825.27 561.09 825.6 559.27Q826.14 556.22 825.38 553.54Q824.95 552.01 824.1 550.6Q824.06 550.53 824.03 550.47ZM852.05 568.91Q850.39 569.62 848.26 569.25Q845.76 568.81 844.38 567.33Q844.19 567.13 844.03 566.91Q843.51 566.22 843.24 565.44Q842.81 564.14 843.08 562.61Q843.36 561 844.27 559.92Q844.78 559.31 845.49 558.86Q845.9 558.6 846.34 558.41Q848.03 557.7 850.18 558.08Q852.46 558.48 853.81 559.82Q854.06 560.08 854.28 560.36Q854.75 560.96 855.02 561.64Q855.54 563.01 855.24 564.69Q854.93 566.49 853.88 567.63Q853.43 568.13 852.84 568.5Q852.46 568.74 852.05 568.91Z" fill="#FFFFFF" fill-opacity="1.000000" fill-rule="evenodd"/>
	<path id="36" d="M816.5 544.61Q821.78 546.7 824.1 550.6Q826.44 554.49 825.6 559.27Q824.9 563.18 822.2 566.14Q819.51 569.11 814.82 570.4Q810.13 571.68 803.78 570.56Q799.11 569.74 794.74 567.81Q790.38 565.86 787.4 563.2L793.61 554.6Q795.86 556.82 798.94 558.35Q802.02 559.86 805.18 560.41Q808.39 560.98 810.5 560.11Q812.6 559.25 812.99 557.05Q813.75 552.76 807.01 551.57L801.78 550.64L803.18 542.77L812.56 535.65L795.16 532.58L796.87 522.95L828.76 528.57L827.38 536.39L816.5 544.61ZM854.73 549.65Q858.89 550.38 862.04 552.73Q865.22 555.07 866.7 558.62Q868.18 562.16 867.46 566.25Q866.66 570.73 863.74 573.77Q860.84 576.8 856.57 577.96Q852.31 579.12 847.45 578.26Q838 576.59 833.5 570.02Q829.01 563.44 830.88 552.92Q832.22 545.36 836.1 540.43Q840.01 535.49 845.8 533.59Q851.6 531.68 858.6 532.91Q862.39 533.58 865.64 535.01Q868.9 536.43 871.02 538.42L864.9 546.57Q862.08 543.74 857.16 542.88Q852.37 542.03 848.93 544.15Q845.51 546.28 844.18 551.17Q848.55 548.56 854.73 549.65ZM848.26 569.25Q850.91 569.71 852.84 568.5Q854.79 567.27 855.24 564.69Q855.69 562.16 854.28 560.36Q852.89 558.56 850.18 558.08Q847.47 557.61 845.49 558.86Q843.52 560.1 843.08 562.61Q842.64 565.07 844.03 566.91Q845.43 568.75 848.26 569.25Z" stroke="#202027" stroke-opacity="1.000000" stroke-width="1.000000"/>
	<rect id="Frame 2043683067" rx="29.500000" width="159.000000" height="158.999985" transform="translate(766.176758 458.851318) rotate(10.000000)" stroke="#202027" stroke-opacity="1.000000" stroke-width="1.000000"/>
	<rect id="Frame 2043683074" rx="29.500000" width="159.000000" height="158.999985" transform="translate(58.273438 508.682129) rotate(10.000000)" fill="#D9B6FF" fill-opacity="1.000000"/>
	<path id="9" d="M136.41 583.95Q132.02 579.45 124.39 578.11Q119.75 577.29 115.61 578.36Q115.47 578.39 115.33 578.43Q112.47 579.21 110.21 580.84Q109.1 581.64 108.15 582.63Q107.36 583.46 106.72 584.39Q105.03 586.88 104.46 590.12Q103.91 593.21 104.61 595.99Q104.84 596.9 105.21 597.78Q105.81 599.21 106.68 600.44Q107.97 602.26 109.85 603.66Q110.36 604.04 110.9 604.38Q113.68 606.12 117.17 606.74Q122.68 607.71 126.76 605.74Q127.21 605.52 127.64 605.27Q126.37 609.73 123.42 611.87Q123.14 612.07 122.85 612.25Q122.32 612.58 121.75 612.83Q118.72 614.22 114.74 613.51Q109.81 612.65 107 609.82L100.89 617.96Q103 619.9 106.26 621.35Q109.52 622.8 113.23 623.45Q120.23 624.68 126.06 622.79Q128.54 621.99 130.67 620.63Q133.54 618.8 135.77 615.97Q139.68 611.03 141.02 603.47Q142.79 593.45 138.8 587.01Q138.6 586.68 138.38 586.36Q137.49 585.06 136.41 583.95ZM125.61 597.96Q123.91 598.69 121.71 598.31Q119.45 597.91 118.09 596.58Q117.83 596.32 117.6 596.03Q117.13 595.41 116.86 594.72Q116.35 593.36 116.65 591.7Q116.97 589.87 118.04 588.72Q118.48 588.26 119.03 587.9Q119.45 587.64 119.9 587.46Q121.55 586.77 123.63 587.14Q126.11 587.58 127.48 589.05Q127.67 589.26 127.85 589.49Q128.39 590.2 128.66 591.01Q129.08 592.27 128.82 593.77Q128.53 595.37 127.63 596.46Q127.11 597.09 126.39 597.54Q126.01 597.78 125.61 597.96Z" fill="#FFFFFF" fill-opacity="1.000000" fill-rule="evenodd"/>
	<path id="9" d="M124.39 578.11Q133.9 579.78 138.38 586.36Q142.88 592.95 141.02 603.47Q139.68 611.03 135.77 615.97Q131.88 620.9 126.06 622.79Q120.23 624.68 113.23 623.45Q109.52 622.8 106.26 621.35Q103 619.9 100.89 617.96L107 609.82Q109.81 612.65 114.74 613.51Q119.46 614.35 122.85 612.25Q126.25 610.15 127.64 605.27Q123.28 607.82 117.17 606.74Q113 606.01 109.85 603.66Q106.7 601.31 105.21 597.78Q103.73 594.23 104.46 590.12Q105.25 585.66 108.15 582.63Q111.06 579.59 115.33 578.43Q119.6 577.26 124.39 578.11ZM121.71 598.31Q124.42 598.78 126.39 597.54Q128.37 596.29 128.82 593.77Q129.25 591.32 127.85 589.49Q126.46 587.64 123.63 587.14Q120.98 586.68 119.03 587.9Q117.11 589.12 116.65 591.7Q116.2 594.21 117.6 596.03Q119.01 597.83 121.71 598.31Z" stroke="#202027" stroke-opacity="1.000000" stroke-width="1.000000"/>
	<rect id="Frame 2043683074" rx="29.500000" width="159.000000" height="158.999985" transform="translate(58.273438 508.682129) rotate(10.000000)" stroke="#202027" stroke-opacity="1.000000" stroke-width="1.000000"/>
	<rect id="Frame 2043683068" rx="29.500000" width="159.000000" height="158.999985" transform="translate(227.782227 538.571045) rotate(10.000000)" fill="#D9B6FF" fill-opacity="1.000000"/>
	<path id="4" d="M304.73 647.6L311.28 648.76L313.03 638.86L306.48 637.71L307.81 630.21L296.02 628.14L294.69 635.63L285.74 634.05L308.26 611.45L295.35 609.17L270.68 633.22L269.24 641.34L292.55 645.46L291.06 653.9L303.23 656.05L304.73 647.6Z" fill="#FFFFFF" fill-opacity="1.000000" fill-rule="evenodd"/>
	<path id="4" d="M311.28 648.76L304.73 647.6L303.23 656.05L291.06 653.9L292.55 645.46L269.24 641.34L270.68 633.22L295.35 609.17L308.26 611.45L285.74 634.05L294.69 635.63L296.02 628.14L307.81 630.21L306.48 637.71L313.03 638.86L311.28 648.76Z" stroke="#202027" stroke-opacity="1.000000" stroke-width="1.000000"/>
	<rect id="Frame 2043683068" rx="29.500000" width="159.000000" height="158.999985" transform="translate(227.782227 538.571045) rotate(10.000000)" stroke="#202027" stroke-opacity="1.000000" stroke-width="1.000000"/>
	<rect id="Frame 2043683069" rx="29.500000" width="159.000000" height="158.999985" transform="translate(397.291016 568.460205) rotate(10.000000)" fill="#D9B6FF" fill-opacity="1.000000"/>
	<path id="92" d="M456.8 640.44Q452.41 635.94 444.78 634.6Q440.15 633.78 436 634.85Q435.86 634.89 435.73 634.92Q432.86 635.71 430.6 637.33Q429.5 638.13 428.54 639.13Q427.75 639.95 427.12 640.88Q425.42 643.37 424.85 646.62Q424.3 649.71 425 652.48Q425.24 653.39 425.6 654.27Q426.2 655.7 427.08 656.93Q428.36 658.75 430.24 660.15Q430.76 660.53 431.29 660.87Q434.07 662.62 437.57 663.23Q443.08 664.21 447.16 662.23Q447.6 662.01 448.03 661.76Q446.76 666.22 443.81 668.36Q443.53 668.56 443.24 668.74Q442.71 669.07 442.15 669.33Q439.11 670.71 435.13 670.01Q430.21 669.14 427.39 666.31L421.28 674.45Q423.4 676.4 426.65 677.84Q429.92 679.29 433.62 679.94Q440.62 681.18 446.45 679.29Q448.93 678.48 451.07 677.12Q453.93 675.29 456.16 672.46Q460.07 667.52 461.41 659.97Q463.18 649.95 459.19 643.5Q458.99 643.17 458.77 642.86Q457.89 641.55 456.8 640.44ZM495.17 689.89L496.92 680L479.9 677L489.59 670.77Q494.72 667.52 496.82 664.61Q497.73 663.35 498.37 661.96Q499.2 660.14 499.56 658.11Q500.05 655.32 499.43 652.81Q499.15 651.69 498.65 650.63Q498.43 650.16 498.17 649.72Q496.53 646.87 493.43 644.87Q489.84 642.54 484.8 641.65Q478.44 640.53 473.33 642.17Q469.84 643.29 467.17 645.44Q465.94 646.43 464.89 647.63L473.25 654.44Q474.48 653.09 476.01 652.34Q476.58 652.06 477.18 651.86Q477.79 651.66 478.41 651.55Q480.09 651.23 481.89 651.55Q484.66 652.04 485.89 653.49Q486.27 653.94 486.5 654.46Q487.01 655.6 486.75 657.09Q486.73 657.15 486.72 657.21Q486.41 658.77 485.35 660.19Q484.26 661.65 481.45 663.5L462.21 676.02L460.82 683.84L495.17 689.89ZM446 654.45Q444.3 655.19 442.11 654.8Q439.84 654.4 438.48 653.07Q438.22 652.81 437.99 652.52Q437.52 651.91 437.26 651.21Q436.75 649.86 437.04 648.2Q437.37 646.36 438.43 645.22Q438.87 644.75 439.43 644.4Q439.84 644.13 440.29 643.95Q441.94 643.27 444.02 643.64Q446.5 644.07 447.87 645.54Q448.07 645.75 448.24 645.98Q448.79 646.7 449.05 647.5Q449.48 648.77 449.21 650.26Q448.93 651.86 448.03 652.95Q447.51 653.58 446.78 654.04Q446.41 654.28 446 654.45Z" fill="#FFFFFF" fill-opacity="1.000000" fill-rule="evenodd"/>
	<path id="92" d="M444.78 634.6Q454.29 636.28 458.77 642.86Q463.27 649.44 461.41 659.97Q460.07 667.52 456.16 672.46Q452.28 677.39 446.45 679.29Q440.62 681.18 433.62 679.94Q429.92 679.29 426.65 677.84Q423.4 676.4 421.28 674.45L427.39 666.31Q430.21 669.14 435.13 670.01Q439.85 670.84 443.24 668.74Q446.64 666.64 448.03 661.76Q443.68 664.31 437.57 663.23Q433.4 662.5 430.24 660.15Q427.09 657.8 425.6 654.27Q424.12 650.73 424.85 646.62Q425.64 642.15 428.54 639.13Q431.46 636.09 435.73 634.92Q440 633.76 444.78 634.6ZM442.11 654.8Q444.82 655.28 446.78 654.04Q448.76 652.78 449.21 650.26Q449.64 647.82 448.24 645.98Q446.85 644.13 444.02 643.64Q441.38 643.17 439.43 644.4Q437.5 645.61 437.04 648.2Q436.6 650.7 437.99 652.52Q439.4 654.32 442.11 654.8ZM496.92 680L495.17 689.89L460.82 683.84L462.21 676.02L481.45 663.5Q484.26 661.65 485.35 660.19Q486.46 658.72 486.75 657.09Q487.13 654.93 485.89 653.49Q484.66 652.04 481.89 651.55Q479.42 651.12 477.18 651.86Q474.94 652.59 473.25 654.44L464.89 647.63Q468.23 643.81 473.33 642.17Q478.44 640.53 484.8 641.65Q489.84 642.54 493.43 644.87Q497.02 647.19 498.65 650.63Q500.27 654.08 499.56 658.11Q498.93 661.69 496.82 664.61Q494.72 667.52 489.59 670.77L479.9 677L496.92 680Z" stroke="#202027" stroke-opacity="1.000000" stroke-width="1.000000"/>
	<rect id="Frame 2043683069" rx="29.500000" width="159.000000" height="158.999985" transform="translate(397.291016 568.460205) rotate(10.000000)" stroke="#202027" stroke-opacity="1.000000" stroke-width="1.000000"/>
	<rect id="Frame 2043683070" rx="29.500000" width="159.000000" height="158.999985" transform="translate(566.799805 598.349121) rotate(10.000000)" fill="#D9B6FF" fill-opacity="1.000000"/>
	<path id="10" d="M631.76 713.08Q635.2 715.49 639.76 716.29Q644.01 717.04 647.86 716.11Q649.08 715.81 650.25 715.35Q651.14 715 651.98 714.56Q655.77 712.56 658.55 708.66Q661.96 703.9 663.22 696.77Q664.48 689.66 662.91 684.02Q661.64 679.41 658.77 676.24Q658.13 675.53 657.42 674.9Q656.44 674.03 655.37 673.32Q652.1 671.15 647.88 670.41Q643.37 669.62 639.34 670.68Q638.31 670.96 637.31 671.35Q636.49 671.68 635.72 672.08Q631.86 674.08 629.01 678.05Q625.6 682.81 624.34 689.92Q623.08 697.04 624.65 702.68Q625.96 707.38 628.9 710.58Q629.49 711.22 630.14 711.8Q630.92 712.49 631.76 713.08ZM613.82 710.81L621.63 666.7L600.96 663.06L599.26 672.69L607.44 674.13L601.34 708.61L613.82 710.81ZM643.8 706.05Q642.74 706.3 641.56 706.09Q640.31 705.87 639.35 705.22Q637.83 704.21 637.03 702.13Q635.71 698.74 636.88 692.13Q638.05 685.51 640.45 682.79Q641.92 681.12 643.7 680.68Q644.82 680.41 646.07 680.63Q647.25 680.83 648.16 681.43Q649.71 682.44 650.53 684.57Q651.85 687.95 650.68 694.56Q649.51 701.18 647.11 703.91Q645.61 705.63 643.8 706.05Z" fill="#FFFFFF" fill-opacity="1.000000" fill-rule="evenodd"/>
	<path id="10" d="M621.63 666.7L613.82 710.81L601.34 708.61L607.44 674.13L599.26 672.69L600.96 663.06L621.63 666.7ZM639.76 716.29Q634.08 715.29 630.14 711.8Q626.22 708.32 624.65 702.68Q623.08 697.04 624.34 689.92Q625.6 682.81 629.01 678.05Q632.43 673.29 637.31 671.35Q642.2 669.41 647.88 670.41Q653.48 671.4 657.42 674.9Q661.35 678.39 662.91 684.02Q664.48 689.66 663.22 696.77Q661.96 703.9 658.55 708.66Q655.15 713.42 650.25 715.35Q645.36 717.28 639.76 716.29ZM641.56 706.09Q644.72 706.65 647.11 703.91Q649.51 701.18 650.68 694.56Q651.85 687.95 650.53 684.57Q649.23 681.18 646.07 680.63Q642.86 680.06 640.45 682.79Q638.05 685.51 636.88 692.13Q635.71 698.74 637.03 702.13Q638.35 705.52 641.56 706.09Z" stroke="#202027" stroke-opacity="1.000000" stroke-width="1.000000"/>
	<rect id="Frame 2043683070" rx="29.500000" width="159.000000" height="158.999985" transform="translate(566.799805 598.349121) rotate(10.000000)" stroke="#202027" stroke-opacity="1.000000" stroke-width="1.000000"/>
	<rect id="Frame 2043683071" rx="29.500000" width="159.000000" height="158.999985" transform="translate(736.309082 628.238281) rotate(10.000000)" fill="#D9B6FF" fill-opacity="1.000000"/>
	<path id="7" d="M821.14 709.94L822.53 702.13L785.97 695.68L783.01 712.37L793.66 714.25L794.86 707.45L806.47 709.5L785.53 741.09L799.14 743.49L821.14 709.94Z" fill="#FFFFFF" fill-opacity="1.000000" fill-rule="evenodd"/>
	<path id="7" d="M822.53 702.13L821.14 709.94L799.14 743.49L785.53 741.09L806.47 709.5L794.86 707.45L793.66 714.25L783.01 712.37L785.97 695.68L822.53 702.13Z" stroke="#202027" stroke-opacity="1.000000" stroke-width="1.000000"/>
	<rect id="Frame 2043683071" rx="29.500000" width="159.000000" height="158.999985" transform="translate(736.309082 628.238281) rotate(10.000000)" stroke="#202027" stroke-opacity="1.000000" stroke-width="1.000000"/>
	<rect id="Frame 2043683129" rx="29.500000" width="159.000000" height="158.999985" transform="translate(28.405762 678.068848) rotate(10.000000)" fill="#D9B6FF" fill-opacity="1.000000"/>
	<path id="9" d="M106.54 753.34Q102.15 748.84 94.52 747.49Q89.89 746.68 85.74 747.74Q85.6 747.78 85.47 747.82Q82.6 748.6 80.34 750.23Q79.24 751.02 78.28 752.02Q77.49 752.84 76.86 753.77Q75.16 756.26 74.59 759.51Q74.04 762.6 74.74 765.37Q74.98 766.29 75.34 767.16Q75.94 768.59 76.82 769.83Q78.1 771.64 79.98 773.04Q80.49 773.42 81.03 773.76Q83.81 775.51 87.31 776.13Q92.81 777.1 96.9 775.12Q97.34 774.91 97.77 774.66Q96.5 779.12 93.55 781.25Q93.27 781.45 92.98 781.63Q92.45 781.96 91.89 782.22Q88.85 783.6 84.87 782.9Q79.94 782.03 77.13 779.2L71.02 787.35Q73.14 789.29 76.39 790.73Q79.65 792.18 83.36 792.84Q90.36 794.07 96.19 792.18Q98.67 791.37 100.81 790.01Q103.67 788.19 105.9 785.36Q109.81 780.41 111.15 772.86Q112.92 762.84 108.93 756.39Q108.73 756.07 108.51 755.75Q107.63 754.45 106.54 753.34ZM95.74 767.34Q94.04 768.08 91.85 767.69Q89.58 767.29 88.22 765.97Q87.96 765.71 87.73 765.41Q87.26 764.8 87 764.11Q86.49 762.75 86.78 761.09Q87.11 759.25 88.17 758.11Q88.61 757.64 89.17 757.29Q89.58 757.03 90.03 756.84Q91.68 756.16 93.76 756.53Q96.24 756.97 97.61 758.44Q97.81 758.64 97.98 758.87Q98.53 759.59 98.79 760.4Q99.21 761.66 98.95 763.16Q98.67 764.76 97.77 765.85Q97.25 766.47 96.52 766.93Q96.14 767.17 95.74 767.34Z" fill="#FFFFFF" fill-opacity="1.000000" fill-rule="evenodd"/>
	<path id="9" d="M94.52 747.49Q104.03 749.17 108.51 755.75Q113.01 762.33 111.15 772.86Q109.81 780.41 105.9 785.36Q102.02 790.29 96.19 792.18Q90.36 794.07 83.36 792.84Q79.65 792.18 76.39 790.73Q73.14 789.29 71.02 787.35L77.13 779.2Q79.94 782.03 84.87 782.9Q89.59 783.73 92.98 781.63Q96.38 779.54 97.77 774.66Q93.42 777.2 87.31 776.13Q83.14 775.39 79.98 773.04Q76.83 770.69 75.34 767.16Q73.86 763.62 74.59 759.51Q75.38 755.05 78.28 752.02Q81.2 748.98 85.47 747.82Q89.73 746.65 94.52 747.49ZM91.85 767.69Q94.55 768.17 96.52 766.93Q98.5 765.68 98.95 763.16Q99.38 760.71 97.98 758.87Q96.59 757.03 93.76 756.53Q91.11 756.06 89.17 757.29Q87.24 758.5 86.78 761.09Q86.34 763.6 87.73 765.41Q89.14 767.22 91.85 767.69Z" stroke="#202027" stroke-opacity="1.000000" stroke-width="1.000000"/>
	<rect id="Frame 2043683129" rx="29.500000" width="159.000000" height="158.999985" transform="translate(28.405762 678.068848) rotate(10.000000)" stroke="#202027" stroke-opacity="1.000000" stroke-width="1.000000"/>
	<rect id="Frame 2043683130" rx="29.500000" width="159.000000" height="158.999985" transform="translate(197.914551 707.958008) rotate(10.000000)" fill="#D9B6FF" fill-opacity="1.000000"/>
	<path id="4" d="M274.86 816.99L281.41 818.14L283.17 808.25L276.61 807.1L277.94 799.6L266.15 797.52L264.82 805.02L255.87 803.44L278.39 780.83L265.48 778.56L240.81 802.61L239.38 810.73L262.69 814.84L261.19 823.29L273.36 825.43L274.86 816.99Z" fill="#FFFFFF" fill-opacity="1.000000" fill-rule="evenodd"/>
	<path id="4" d="M281.41 818.14L274.86 816.99L273.36 825.43L261.19 823.29L262.69 814.84L239.38 810.73L240.81 802.61L265.48 778.56L278.39 780.83L255.87 803.44L264.82 805.02L266.15 797.52L277.94 799.6L276.61 807.1L283.17 808.25L281.41 818.14Z" stroke="#202027" stroke-opacity="1.000000" stroke-width="1.000000"/>
	<rect id="Frame 2043683130" rx="29.500000" width="159.000000" height="158.999985" transform="translate(197.914551 707.958008) rotate(10.000000)" stroke="#202027" stroke-opacity="1.000000" stroke-width="1.000000"/>
	<rect id="Frame 2043683131" rx="29.500000" width="159.000000" height="158.999985" transform="translate(367.423828 737.847168) rotate(10.000000)" fill="#D9B6FF" fill-opacity="1.000000"/>
	<path id="92" d="M426.94 809.83Q422.54 805.33 414.91 803.99Q410.28 803.17 406.13 804.24Q405.99 804.27 405.86 804.31Q402.99 805.09 400.73 806.72Q399.63 807.52 398.67 808.52Q397.88 809.34 397.25 810.27Q395.56 812.76 394.98 816Q394.43 819.1 395.14 821.87Q395.37 822.78 395.74 823.66Q396.34 825.09 397.21 826.32Q398.5 828.14 400.38 829.54Q400.89 829.92 401.43 830.26Q404.21 832.01 407.7 832.62Q413.21 833.59 417.29 831.62Q417.74 831.4 418.16 831.15Q416.89 835.61 413.94 837.75Q413.67 837.95 413.37 838.13Q412.84 838.46 412.28 838.71Q409.25 840.1 405.26 839.39Q400.34 838.53 397.52 835.7L391.42 843.84Q393.53 845.78 396.78 847.23Q400.05 848.68 403.76 849.33Q410.76 850.57 416.58 848.67Q419.07 847.87 421.2 846.51Q424.07 844.68 426.3 841.85Q430.2 836.91 431.54 829.35Q433.32 819.33 429.32 812.89Q429.12 812.56 428.91 812.24Q428.02 810.94 426.94 809.83ZM465.3 859.28L467.05 849.39L450.03 846.39L459.72 840.16Q464.85 836.91 466.95 833.99Q467.86 832.73 468.5 831.35Q469.33 829.53 469.69 827.5Q470.19 824.71 469.56 822.2Q469.28 821.08 468.78 820.02Q468.56 819.55 468.3 819.1Q466.66 816.26 463.56 814.26Q459.98 811.93 454.93 811.04Q448.57 809.92 443.46 811.56Q439.97 812.68 437.3 814.83Q436.07 815.82 435.02 817.02L443.38 823.82Q444.62 822.48 446.14 821.73Q446.71 821.45 447.31 821.25Q447.92 821.05 448.54 820.93Q450.22 820.62 452.02 820.94Q454.79 821.43 456.02 822.88Q456.41 823.33 456.64 823.85Q457.14 824.99 456.88 826.47Q456.87 826.54 456.85 826.6Q456.55 828.16 455.49 829.58Q454.39 831.03 451.58 832.89L432.34 845.41L430.96 853.22L465.3 859.28ZM416.14 823.84Q414.43 824.57 412.24 824.19Q409.97 823.79 408.62 822.46Q408.35 822.2 408.12 821.91Q407.65 821.29 407.39 820.6Q406.88 819.24 407.17 817.58Q407.5 815.75 408.57 814.6Q409 814.14 409.56 813.78Q409.98 813.52 410.42 813.34Q412.07 812.66 414.15 813.02Q416.63 813.46 418 814.93Q418.2 815.14 418.37 815.37Q418.92 816.08 419.19 816.89Q419.61 818.16 419.34 819.65Q419.06 821.25 418.16 822.34Q417.64 822.97 416.91 823.43Q416.54 823.66 416.14 823.84Z" fill="#FFFFFF" fill-opacity="1.000000" fill-rule="evenodd"/>
	<path id="92" d="M414.91 803.99Q424.42 805.66 428.91 812.24Q433.41 818.83 431.54 829.35Q430.2 836.91 426.3 841.85Q422.41 846.78 416.58 848.67Q410.76 850.57 403.76 849.33Q400.05 848.68 396.78 847.23Q393.53 845.78 391.42 843.84L397.52 835.7Q400.34 838.53 405.26 839.39Q409.99 840.23 413.37 838.13Q416.78 836.03 418.16 831.15Q413.81 833.7 407.7 832.62Q403.53 831.89 400.38 829.54Q397.22 827.19 395.74 823.66Q394.25 820.11 394.98 816Q395.77 811.54 398.67 808.52Q401.59 805.48 405.86 804.31Q410.13 803.14 414.91 803.99ZM412.24 824.19Q414.95 824.67 416.91 823.43Q418.9 822.17 419.34 819.65Q419.78 817.2 418.37 815.37Q416.99 813.52 414.15 813.02Q411.51 812.56 409.56 813.78Q407.63 815 407.17 817.58Q406.73 820.09 408.12 821.91Q409.53 823.71 412.24 824.19ZM467.05 849.39L465.3 859.28L430.96 853.22L432.34 845.41L451.58 832.89Q454.39 831.03 455.49 829.58Q456.59 828.1 456.88 826.47Q457.26 824.32 456.02 822.88Q454.79 821.43 452.02 820.94Q449.56 820.5 447.31 821.25Q445.07 821.98 443.38 823.82L435.02 817.02Q438.36 813.2 443.46 811.56Q448.57 809.92 454.93 811.04Q459.98 811.93 463.56 814.26Q467.15 816.58 468.78 820.02Q470.41 823.47 469.69 827.5Q469.06 831.08 466.95 833.99Q464.85 836.91 459.72 840.16L450.03 846.39L467.05 849.39Z" stroke="#202027" stroke-opacity="1.000000" stroke-width="1.000000"/>
	<rect id="Frame 2043683131" rx="29.500000" width="159.000000" height="158.999985" transform="translate(367.423828 737.847168) rotate(10.000000)" stroke="#202027" stroke-opacity="1.000000" stroke-width="1.000000"/>
	<rect id="Frame 2043683132" rx="29.500000" width="159.000000" height="158.999985" transform="translate(536.932617 767.736084) rotate(10.000000)" fill="#D9B6FF" fill-opacity="1.000000"/>
	<path id="10" d="M601.9 882.47Q605.33 884.87 609.89 885.68Q614.14 886.43 617.99 885.5Q619.21 885.2 620.39 884.74Q621.27 884.39 622.11 883.94Q625.9 881.94 628.68 878.04Q632.09 873.28 633.36 866.16Q634.61 859.05 633.04 853.41Q631.77 848.8 628.9 845.63Q628.27 844.92 627.55 844.29Q626.58 843.42 625.5 842.71Q622.23 840.54 618.02 839.8Q613.5 839 609.48 840.07Q608.44 840.34 607.44 840.74Q606.62 841.06 605.85 841.47Q601.99 843.47 599.14 847.43Q595.73 852.19 594.47 859.3Q593.21 866.43 594.78 872.07Q596.09 876.76 599.03 879.97Q599.62 880.61 600.27 881.19Q601.05 881.88 601.9 882.47ZM583.95 880.2L591.76 836.09L571.09 832.45L569.39 842.08L577.58 843.52L571.47 878L583.95 880.2ZM613.94 875.44Q612.87 875.68 611.7 875.48Q610.45 875.26 609.48 874.61Q607.97 873.59 607.16 871.52Q605.84 868.13 607.01 861.51Q608.18 854.9 610.59 852.18Q612.06 850.51 613.83 850.07Q614.96 849.79 616.21 850.01Q617.38 850.22 618.3 850.82Q619.84 851.83 620.66 853.96Q621.99 857.33 620.81 863.95Q619.64 870.56 617.24 873.3Q615.74 875.02 613.94 875.44Z" fill="#FFFFFF" fill-opacity="1.000000" fill-rule="evenodd"/>
	<path id="10" d="M591.76 836.09L583.95 880.2L571.47 878L577.58 843.52L569.39 842.08L571.09 832.45L591.76 836.09ZM609.89 885.68Q604.21 884.68 600.27 881.19Q596.35 877.71 594.78 872.07Q593.21 866.43 594.47 859.3Q595.73 852.19 599.14 847.43Q602.56 842.67 607.44 840.74Q612.34 838.8 618.02 839.8Q623.62 840.79 627.55 844.29Q631.49 847.77 633.04 853.41Q634.61 859.05 633.36 866.16Q632.09 873.28 628.68 878.04Q625.28 882.81 620.39 884.74Q615.49 886.67 609.89 885.68ZM611.7 875.48Q614.85 876.03 617.24 873.3Q619.64 870.56 620.81 863.95Q621.99 857.33 620.66 853.96Q619.36 850.57 616.21 850.01Q612.99 849.45 610.59 852.18Q608.18 854.9 607.01 861.51Q605.84 868.13 607.16 871.52Q608.48 874.91 611.7 875.48Z" stroke="#202027" stroke-opacity="1.000000" stroke-width="1.000000"/>
	<rect id="Frame 2043683132" rx="29.500000" width="159.000000" height="158.999985" transform="translate(536.932617 767.736084) rotate(10.000000)" stroke="#202027" stroke-opacity="1.000000" stroke-width="1.000000"/>
	<rect id="Frame 2043683133" rx="29.500000" width="159.000000" height="158.999985" transform="translate(706.441406 797.625000) rotate(10.000000)" fill="#D9B6FF" fill-opacity="1.000000"/>
	<path id="7" d="M791.28 879.33L792.66 871.51L756.1 865.07L753.14 881.76L763.79 883.64L765 876.84L776.6 878.88L755.66 910.48L769.28 912.88L791.28 879.33Z" fill="#FFFFFF" fill-opacity="1.000000" fill-rule="evenodd"/>
	<path id="7" d="M792.66 871.51L791.28 879.33L769.28 912.88L755.66 910.48L776.6 878.88L765 876.84L763.79 883.64L753.14 881.76L756.1 865.07L792.66 871.51Z" stroke="#202027" stroke-opacity="1.000000" stroke-width="1.000000"/>
	<rect id="Frame 2043683133" rx="29.500000" width="159.000000" height="158.999985" transform="translate(706.441406 797.625000) rotate(10.000000)" stroke="#202027" stroke-opacity="1.000000" stroke-width="1.000000"/>
</svg>
