<svg width="390.026367" height="448.697754" viewBox="0 0 390.026 448.698" fill="none" xmlns="http://www.w3.org/2000/svg" xmlns:xlink="http://www.w3.org/1999/xlink">
	<desc>
			Created with Pixso.
	</desc>
	<defs>
		<filter id="filter_18933_267_dd" x="0.000000" y="0.000000" width="390.026367" height="448.697754" filterUnits="userSpaceOnUse" color-interpolation-filters="sRGB">
			<feFlood flood-opacity="0" result="BackgroundImageFix"/>
			<feColorMatrix in="SourceAlpha" type="matrix" values="0 0 0 0 0 0 0 0 0 0 0 0 0 0 0 0 0 0 127 0" result="hardAlpha"/>
			<feMorphology radius="-14.4434" in="" result="BackgroundImageFix"/>
			<feOffset dx="0" dy="24.0724"/>
			<feGaussianBlur stdDeviation="26.8808"/>
			<feComposite in2="hardAlpha" operator="out" k2="-1" k3="1"/>
			<feColorMatrix type="matrix" values="0 0 0 0 0 0 0 0 0 0 0 0 0 0 0 0 0 0 0.3 0"/>
			<feBlend mode="normal" in2="BackgroundImageFix" result="effect_dropShadow_1"/>
			<feBlend mode="normal" in="SourceGraphic" in2="effect_dropShadow_1" result="shape"/>
		</filter>
	</defs>
	<g filter="url(#filter_18933_267_dd)">
		<rect id="Frame 2043683065" rx="30.500000" width="218.818085" height="291.424133" transform="translate(112.585449 37.878418) rotate(10.000000)" fill="#E1FF8F" fill-opacity="1.000000"/>
		<rect id="Frame 2043683065" rx="30.500000" width="218.818085" height="291.424133" transform="translate(112.585449 37.878418) rotate(10.000000)" stroke="#202027" stroke-opacity="1.000000" stroke-width="1.000000"/>
		<rect id="Frame 2043683065" rx="30.500000" width="218.818085" height="291.424133" transform="translate(112.585449 37.878418) rotate(10.000000)" stroke="#000000" stroke-opacity="0.200000" stroke-width="1.000000"/>
	</g>
	<path id="?" d="M186.46 201.11Q182.97 204.72 181.85 211.03L204.28 214.98Q204.64 212.97 205.65 211.37Q206.36 210.25 207.38 209.34Q209.87 207.11 214.79 204.21Q219.3 201.51 222.21 199.23Q225.16 196.93 227.62 193.27Q230.1 189.61 231.01 184.47Q232.04 178.67 230.39 173.77Q228.85 169.18 224.97 165.38Q216.94 157.52 201.95 154.88Q188.59 152.53 178.24 155.78Q171.73 157.83 166.65 161.74Q163.67 164.03 161.19 166.96L178.21 180.33Q180.44 177.73 183.24 176.12Q184.56 175.36 186.01 174.82Q187.27 174.36 188.56 174.09Q191.93 173.39 195.57 174.03Q200.47 174.9 203.15 177.66Q204.64 179.17 205.12 180.96Q205.51 182.43 205.22 184.08Q205.1 184.74 204.88 185.36Q204.2 187.23 202.55 188.75Q200.39 190.75 196.15 193.52Q189.99 197.48 186.46 201.11ZM180.04 243.15Q182.95 245.52 187.19 246.27Q191.73 247.07 195.44 245.67Q196.89 245.13 198.21 244.25Q200.61 242.65 202.05 240.43Q203.42 238.29 203.91 235.57Q204.48 232.31 203.62 229.5Q202.97 227.39 201.53 225.54Q200.76 224.54 199.83 223.72Q196.71 220.91 191.83 220.05Q186.9 219.18 183.01 220.8Q181.92 221.25 180.91 221.9Q179 223.11 177.71 224.8Q175.88 227.19 175.28 230.53Q174.8 233.24 175.36 235.72Q175.95 238.3 177.65 240.62Q178.71 242.05 180.04 243.15Z" fill="#FFFFFF" fill-opacity="1.000000" fill-rule="evenodd"/>
	<path id="?" d="M181.85 211.03Q182.97 204.72 186.46 201.11Q189.99 197.48 196.15 193.52Q200.39 190.75 202.55 188.75Q204.75 186.73 205.22 184.08Q205.87 180.42 203.15 177.66Q200.47 174.9 195.57 174.03Q190.53 173.14 186.01 174.82Q181.49 176.5 178.21 180.33L161.19 166.96Q167.92 159.03 178.24 155.78Q188.59 152.53 201.95 154.88Q216.94 157.52 224.97 165.38Q233 173.24 231.01 184.47Q230.1 189.61 227.62 193.27Q225.16 196.93 222.21 199.23Q219.3 201.51 214.79 204.21Q209.87 207.11 207.38 209.34Q204.89 211.57 204.28 214.98L181.85 211.03ZM187.19 246.27Q181 245.18 177.65 240.62Q174.3 236.06 175.28 230.53Q176.29 224.83 180.91 221.9Q185.52 218.94 191.83 220.05Q198.14 221.17 201.53 225.54Q204.91 229.88 203.91 235.57Q202.92 241.11 198.21 244.25Q193.5 247.38 187.19 246.27Z" stroke="#202027" stroke-opacity="1.000000" stroke-width="1.000000"/>
</svg>
