<svg width="56.557617" height="67.177612" viewBox="0 0 56.5576 67.1776" fill="none" xmlns="http://www.w3.org/2000/svg" xmlns:xlink="http://www.w3.org/1999/xlink">
	<desc>
			Created with Pixso.
	</desc>
	<defs/>
	<path id="?" d="M24.9 34.24Q22.68 36.52 21.97 40.52L36.2 43.03Q36.43 41.75 37.07 40.74Q37.51 40.03 38.16 39.45Q39.74 38.04 42.87 36.2Q45.72 34.49 47.57 33.04Q49.44 31.58 51 29.26Q52.58 26.94 53.15 23.68Q53.8 20 52.76 16.89Q51.78 13.99 49.32 11.58Q44.22 6.59 34.72 4.92Q26.25 3.42 19.69 5.49Q15.56 6.79 12.34 9.27Q10.45 10.72 8.87 12.57L19.66 21.06Q21.08 19.41 22.86 18.39Q23.69 17.9 24.61 17.56Q25.41 17.27 26.23 17.1Q28.37 16.66 30.68 17.06Q33.78 17.61 35.48 19.36Q36.43 20.32 36.73 21.46Q36.98 22.39 36.79 23.43Q36.72 23.85 36.58 24.24Q36.15 25.43 35.1 26.4Q33.73 27.66 31.04 29.42Q27.14 31.93 24.9 34.24ZM20.83 60.89Q22.67 62.4 25.36 62.87Q28.24 63.38 30.59 62.49Q31.51 62.15 32.35 61.59Q33.87 60.58 34.78 59.17Q35.66 57.81 35.96 56.09Q36.33 54.02 35.78 52.24Q35.37 50.9 34.45 49.73Q33.96 49.09 33.38 48.57Q31.4 46.79 28.31 46.25Q25.18 45.7 22.71 46.72Q22.02 47.01 21.38 47.42Q20.17 48.19 19.35 49.26Q18.19 50.77 17.81 52.89Q17.51 54.61 17.86 56.18Q18.23 57.82 19.31 59.29Q19.98 60.2 20.83 60.89Z" fill="#FFFFFF" fill-opacity="1.000000" fill-rule="evenodd"/>
	<path id="?" d="M21.97 40.52Q22.68 36.52 24.9 34.24Q27.14 31.93 31.04 29.42Q33.73 27.66 35.1 26.4Q36.5 25.11 36.79 23.43Q37.2 21.11 35.48 19.36Q33.78 17.61 30.68 17.06Q27.48 16.5 24.61 17.56Q21.75 18.63 19.66 21.06L8.87 12.57Q13.14 7.55 19.69 5.49Q26.25 3.42 34.72 4.92Q44.22 6.59 49.32 11.58Q54.41 16.56 53.15 23.68Q52.58 26.94 51 29.26Q49.44 31.58 47.57 33.04Q45.72 34.49 42.87 36.2Q39.74 38.04 38.16 39.45Q36.58 40.86 36.2 43.03L21.97 40.52ZM25.36 62.87Q21.44 62.18 19.31 59.29Q17.19 56.4 17.81 52.89Q18.45 49.28 21.38 47.42Q24.3 45.54 28.31 46.25Q32.31 46.95 34.45 49.73Q36.6 52.48 35.96 56.09Q35.34 59.6 32.35 61.59Q29.36 63.58 25.36 62.87Z" stroke="#202027" stroke-opacity="1.000000" stroke-width="0.634167"/>
</svg>
