<svg width="1074.500488" height="1138.957520" viewBox="0 0 1074.5 1138.96" fill="none" xmlns="http://www.w3.org/2000/svg" xmlns:xlink="http://www.w3.org/1999/xlink">
	<desc>
			Created with Pixso.
	</desc>
	<defs>
		<filter id="filter_18933_12_dd" x="366.998535" y="711.634644" width="228.884277" height="427.322876" filterUnits="userSpaceOnUse" color-interpolation-filters="sRGB">
			<feFlood flood-opacity="0" result="BackgroundImageFix"/>
			<feColorMatrix in="SourceAlpha" type="matrix" values="0 0 0 0 0 0 0 0 0 0 0 0 0 0 0 0 0 0 127 0" result="hardAlpha"/>
			<feOffset dx="0" dy="4"/>
			<feGaussianBlur stdDeviation="1.33333"/>
			<feComposite in2="hardAlpha" operator="out" k2="-1" k3="1"/>
			<feColorMatrix type="matrix" values="0 0 0 0 0 0 0 0 0 0 0 0 0 0 0 0 0 0 0.25 0"/>
			<feBlend mode="normal" in2="BackgroundImageFix" result="effect_dropShadow_1"/>
			<feBlend mode="normal" in="SourceGraphic" in2="effect_dropShadow_1" result="shape"/>
		</filter>
	</defs>
	<path id="Vector 4780" d="M241.29 323.45L317.5 411.83L0.5 486.45" stroke="#202027" stroke-opacity="1.000000" stroke-width="1.000000" stroke-linecap="round"/>
	<path id="Vector" d="M708.18 381.86C717.61 384.48 980.01 495.42 980.01 495.42L701.61 525.3L877.49 751.11L629.53 596.86L604.27 858.31L534.38 582.98L301.43 713.95L461.9 521.72L177.13 508.74L444.8 428.48L245.9 199.41L525.53 330.96L589.53 77.14L618.26 331.5L872.98 156.05L708.18 381.86Z" fill="#BCEC30" fill-opacity="1.000000" fill-rule="nonzero"/>
	<path id="Vector" d="M980.01 495.42L701.61 525.3L877.49 751.11L629.53 596.86L604.27 858.31L534.38 582.98L301.43 713.95L461.9 521.72L177.13 508.74L444.8 428.48L245.9 199.41L525.53 330.96L589.53 77.14L618.26 331.5L872.98 156.05L708.18 381.86C717.61 384.48 980.01 495.42 980.01 495.42Z" stroke="#202027" stroke-opacity="1.000000" stroke-width="1.000000"/>
	<path id="Vector 4781" d="M231.58 587.45L355.5 587.45L213.5 766.45" stroke="#202027" stroke-opacity="1.000000" stroke-width="1.000000" stroke-linecap="round"/>
	<g filter="url(#filter_18933_12_dd)">
		<path id="Vector 4782" d="M371.5 791.5L485.26 712.45L591.38 1130.46" stroke="#202027" stroke-opacity="1.000000" stroke-width="1.000000" stroke-linecap="round"/>
	</g>
	<path id="Vector 4788" d="M449.66 801.45L393.5 860.22L473.5 927.45L449.66 801.45Z" fill="#BCEC30" fill-opacity="1.000000" fill-rule="nonzero"/>
	<path id="Vector 4788" d="M449.66 801.45L473.5 927.45L393.5 860.22L449.66 801.45Z" stroke="#202027" stroke-opacity="1.000000" stroke-width="1.000000"/>
	<path id="Vector 4791" d="M491.5 996.45L525.5 1120.46" stroke="#202027" stroke-opacity="1.000000" stroke-width="1.000000" stroke-linecap="round"/>
</svg>
